{
.appVersion = "1352";
DisplayStrings = (
"/blackLargeCircle"
);
classes = (
{
automatic = 1;
code = "A Aacute Abreve Acircumflex Adieresis Agrave Amacron Aogonek Aring Atilde AE B C Cacute Ccaron Ccedilla Cdotaccent D Eth Dcaron Dcroat E Eacute Ecaron Ecircumflex Edieresis Edotaccent Egrave Emacron Eogonek F G Gbreve Gcommaaccent Gdotaccent H Hbar I IJ Iacute Icircumflex Idieresis Idotaccent Igrave Imacron Iogonek J K Kcommaaccent L Lacute Lcaron Lcommaaccent Lslash M N Nacute Ncaron Ncommaaccent Eng Ntilde O Oacute Ocircumflex Odieresis Ograve Ohungarumlaut Omacron Oslash Otilde OE P Thorn Q R Racute Rcaron Rcommaaccent S Sacute Scaron Scedilla Scommaaccent Germandbls T Tbar Tcaron Tcedilla Tcommaaccent U Uacute Ucircumflex Udieresis Ugrave Uhungarumlaut Umacron Uogonek Uring V W Wacute Wcircumflex Wdieresis Wgrave X Y Yacute Ycircumflex Ydieresis Ygrave Z Zacute Zcaron Zdotaccent A-cy Be-cy Ve-cy Ge-cy Gje-cy Gheupturn-cy De-cy Ie-cy Iegrave-cy Io-cy Zhe-cy Ze-cy Ii-cy Iishort-cy Iigrave-cy Ka-cy Kje-cy El-cy Em-cy En-cy O-cy Pe-cy Er-cy Es-cy Te-cy U-cy Ushort-cy Ef-cy Ha-cy Che-cy Tse-cy Sha-cy Shcha-cy Dzhe-cy Softsign-cy Hardsign-cy Yeru-cy Lje-cy Nje-cy Dze-cy E-cy Ereversed-cy I-cy Yi-cy Je-cy Tshe-cy Iu-cy Ia-cy Dje-cy Palochka-cy Imacron-cy Umacron-cy De-cy.loclRUS El-cy.loclRUS Ef-cy.loclRUS Lje-cy.loclRUS Alpha Beta Gamma Delta Epsilon Zeta Eta Theta Iota Kappa Lambda Mu Nu Xi Omicron Pi Rho Sigma Tau Upsilon Phi Chi Psi Omega Alphatonos Epsilontonos Etatonos Iotatonos Omicrontonos Upsilontonos Omegatonos Iotadieresis Upsilondieresis";
name = Uppercase;
}
);
copyright = "Copyright 2019 The Sofia Sans Project Authors (https://github.com/lettersoup/Sofia-Sans)";
customParameters = (
{
name = fsType;
value = (
);
},
{
name = "Use Typo Metrics";
value = 1;
},
{
name = "Use Extension Kerning";
value = 1;
},
{
name = "Enforce Compatibility Check";
value = 1;
},
{
name = licenseURL;
value = "https://scripts.sil.org/OFL";
},
{
name = license;

glyphs = (
{
glyphname = A;
lastChange = "2022-10-27 03:39:12 +0000";
layers = (
{
anchors = (
{
name = bottom;
position = "{174, 0}";
},
{
name = ogonek;
position = "{368, 10}";
},
{
name = top;
position = "{274, 655}";
},
{
name = topleft;
position = "{194, 655}";
}
);
layerId = "C7C49F0D-FB24-4177-B585-680F100D73B3";
paths = (
{
closed = 1;
nodes = (
"-9 0 LINE SMOOTH",
"-7 0 OFFCURVE",
"-6 0 OFFCURVE",
"-5 3 CURVE SMOOTH",
"221 517 LINE SMOOTH",
"238 557 OFFCURVE",
"255 598 OFFCURVE",
"271 638 CURVE",
"272 638 LINE",
"275 598 OFFCURVE",
"279 559 OFFCURVE",
"283 519 CURVE SMOOTH",
"346 3 LINE SMOOTH",
"346 0 OFFCURVE",
"347 0 OFFCURVE",
"349 0 CURVE SMOOTH",
"358 0 LINE SMOOTH",
"361 0 OFFCURVE",
"362 1 OFFCURVE",
"362 3 CURVE SMOOTH",
"284 652 LINE SMOOTH",
"284 654 OFFCURVE",
"283 655 OFFCURVE",
"281 655 CURVE SMOOTH",
"266 655 LINE SMOOTH",
"264 655 OFFCURVE",
"263 655 OFFCURVE",
"262 652 CURVE SMOOTH",
"-21 4 LINE SMOOTH",
"-22 1 OFFCURVE",
"-21 0 OFFCURVE",
"-19 0 CURVE SMOOTH"
);
},
{
closed = 1;
nodes = (
"327 191 LINE",
"324 207 LINE",
"79 207 LINE",
"72 191 LINE"
);
}
);
width = 398;
},
{
anchors = (
{
name = bottom;
position = "{178, 0}";
},
{
name = ogonek;
position = "{394, 10}";
},
{
name = top;
position = "{283, 655}";
},
{
name = topleft;
position = "{195, 655}";
}
);
layerId = "7BFDDD14-D104-4977-93DD-3DA2763EA456";
paths = (
{
closed = 1;
nodes = (
"33 0 LINE SMOOTH",
"38 0 OFFCURVE",
"42 3 OFFCURVE",
"44 9 CURVE SMOOTH",
"216 439 LINE SMOOTH",
"235 487 OFFCURVE",
"253 533 OFFCURVE",
"270 580 CURVE",
"272 580 LINE",
"275 533 OFFCURVE",
"279 486 OFFCURVE",
"283 439 CURVE SMOOTH",
"318 9 LINE SMOOTH",
"318 3 OFFCURVE",
"321 0 OFFCURVE",
"327 0 CURVE SMOOTH",
"383 0 LINE SMOOTH",
"389 0 OFFCURVE",
"392 4 OFFCURVE",
"391 9 CURVE SMOOTH",
"329 646 LINE SMOOTH",
"328 652 OFFCURVE",
"325 655 OFFCURVE",
"319 655 CURVE SMOOTH",
"245 655 LINE SMOOTH",
"240 655 OFFCURVE",
"237 652 OFFCURVE",
"235 646 CURVE SMOOTH",
"-28 9 LINE SMOOTH",
"-31 3 OFFCURVE",
"-28 0 OFFCURVE",
"-22 0 CURVE SMOOTH"
);
},
{
closed = 1;
nodes = (
"318 159 LINE",
"312 224 LINE",
"116 224 LINE",
"91 159 LINE"
);
}
);
width = 419;
},
{
anchors = (
{
name = bottom;
position = "{234, 0}";
},
{
name = ogonek;
position = "{490, 10}";
},
{
name = top;
position = "{338, 655}";
},
{
name = topleft;
position = "{196, 655}";
}
);
layerId = "84FABC8E-B1B3-42CE-8CB3-674F4218367A";
paths = (
{
closed = 1;
nodes = (
"132 0 LINE SMOOTH",
"140 0 OFFCURVE",
"146 6 OFFCURVE",
"148 15 CURVE SMOOTH",
"270 367 LINE SMOOTH",
"286 415 OFFCURVE",
"302 462 OFFCURVE",
"316 509 CURVE",
"318 509 LINE",
"317 462 OFFCURVE",
"318 415 OFFCURVE",
"319 368 CURVE SMOOTH",
"326 15 LINE SMOOTH",
"327 5 OFFCURVE",
"332 0 OFFCURVE",
"341 0 CURVE SMOOTH",
"485 0 LINE SMOOTH",
"494 0 OFFCURVE",
"500 5 OFFCURVE",
"499 15 CURVE SMOOTH",
"438 640 LINE SMOOTH",
"437 650 OFFCURVE",
"431 655 OFFCURVE",
"423 655 CURVE SMOOTH",
"250 655 LINE SMOOTH",
"242 655 OFFCURVE",
"236 649 OFFCURVE",
"233 640 CURVE SMOOTH",
"-27 15 LINE SMOOTH",
"-30 6 OFFCURVE",
"-26 0 OFFCURVE",
"-17 0 CURVE SMOOTH"
);
},
{
closed = 1;
nodes = (
"345 117 LINE",
"341 246 LINE",
"201 246 LINE",
"158 117 LINE"
);
}
);
width = 526;
}
);
leftKerningGroup = A;
rightKerningGroup = A;
unicode = 0041;
},
{
glyphname = Aring;
lastChange = "2022-10-27 03:39:12 +0000";
layers = (
{
layerId = "C7C49F0D-FB24-4177-B585-680F100D73B3";
paths = (
{
closed = 1;
nodes = (
"-9 0 LINE SMOOTH",
"-7 0 OFFCURVE",
"-6 0 OFFCURVE",
"-5 3 CURVE",
"77 191 LINE",
"324 191 LINE",
"346 3 LINE",
"346 0 OFFCURVE",
"347 0 OFFCURVE",
"349 0 CURVE SMOOTH",
"358 0 LINE SMOOTH",
"361 0 OFFCURVE",
"362 1 OFFCURVE",
"362 3 CURVE",
"285 642 LINE",
"325 647 OFFCURVE",
"350 680 OFFCURVE",
"350 728 CURVE SMOOTH",
"350 766 OFFCURVE",
"326 789 OFFCURVE",
"289 789 CURVE SMOOTH",
"241 789 OFFCURVE",
"212 756 OFFCURVE",
"212 703 CURVE SMOOTH",
"212 670 OFFCURVE",
"230 649 OFFCURVE",
"258 643 CURVE",
"-21 4 LINE",
"-22 1 OFFCURVE",
"-21 0 OFFCURVE",
"-19 0 CURVE SMOOTH"
);
},
{
closed = 1;
nodes = (
"221 517 LINE SMOOTH",
"238 557 OFFCURVE",
"255 598 OFFCURVE",
"271 638 CURVE",
"272 638 LINE",
"275 598 OFFCURVE",
"279 559 OFFCURVE",
"283 519 CURVE SMOOTH",
"322 207 LINE",
"84 207 LINE"
);
},
{
closed = 1;
nodes = (
"245 656 OFFCURVE",
"228 672 OFFCURVE",
"228 703 CURVE SMOOTH",
"228 748 OFFCURVE",
"249 774 OFFCURVE",
"287 774 CURVE SMOOTH",
"317 774 OFFCURVE",
"334 758 OFFCURVE",
"334 728 CURVE SMOOTH",
"334 683 OFFCURVE",
"313 656 OFFCURVE",
"275 656 CURVE SMOOTH"
);
}
);
width = 398;
},
{
layerId = "7BFDDD14-D104-4977-93DD-3DA2763EA456";
paths = (
{
closed = 1;
nodes = (
"33 0 LINE SMOOTH",
"38 0 OFFCURVE",
"42 3 OFFCURVE",
"44 9 CURVE",
"104 159 LINE",
"306 159 LINE",
"318 9 LINE",
"318 3 OFFCURVE",
"321 0 OFFCURVE",
"327 0 CURVE SMOOTH",
"383 0 LINE SMOOTH",
"389 0 OFFCURVE",
"392 4 OFFCURVE",
"391 9 CURVE",
"331 627 LINE",
"359 643 OFFCURVE",
"376 674 OFFCURVE",
"376 716 CURVE SMOOTH",
"376 761 OFFCURVE",
"346 789 OFFCURVE",
"297 789 CURVE SMOOTH",
"237 789 OFFCURVE",
"203 751 OFFCURVE",
"203 689 CURVE SMOOTH",
"203 664 OFFCURVE",
"212 644 OFFCURVE",
"229 633 CURVE",
"-28 9 LINE",
"-31 3 OFFCURVE",
"-28 0 OFFCURVE",
"-22 0 CURVE SMOOTH"
);
},
{
closed = 1;
nodes = (
"216 439 LINE SMOOTH",
"235 487 OFFCURVE",
"253 533 OFFCURVE",
"270 580 CURVE",
"272 580 LINE",
"275 533 OFFCURVE",
"279 486 OFFCURVE",
"283 439 CURVE SMOOTH",
"301 224 LINE",
"130 224 LINE"
);
},
{
closed = 1;
nodes = (
"263 656 OFFCURVE",
"251 668 OFFCURVE",
"251 691 CURVE SMOOTH",
"251 726 OFFCURVE",
"266 747 OFFCURVE",
"293 747 CURVE SMOOTH",
"315 747 OFFCURVE",
"327 735 OFFCURVE",
"327 712 CURVE SMOOTH",
"327 677 OFFCURVE",
"312 656 OFFCURVE",
"285 656 CURVE SMOOTH"
);
}
);
width = 419;
},
{
layerId = "84FABC8E-B1B3-42CE-8CB3-674F4218367A";
paths = (
{
closed = 1;
nodes = (
"132 0 LINE SMOOTH",
"140 0 OFFCURVE",
"146 6 OFFCURVE",
"148 15 CURVE SMOOTH",
"184 117 LINE",
"324 117 LINE",
"326 15 LINE SMOOTH",
"327 5 OFFCURVE",
"332 0 OFFCURVE",
"341 0 CURVE SMOOTH",
"485 0 LINE SMOOTH",
"494 0 OFFCURVE",
"500 5 OFFCURVE",
"499 15 CURVE SMOOTH",
"441 617 LINE",
"454 637 OFFCURVE",
"462 662 OFFCURVE",
"462 692 CURVE SMOOTH",
"462 752 OFFCURVE",
"420 790 OFFCURVE",
"352 790 CURVE SMOOTH",
"270 790 OFFCURVE",
"222 743 OFFCURVE",
"222 664 CURVE SMOOTH",
"222 651 OFFCURVE",
"224 640 OFFCURVE",
"230 630 CURVE",
"-27 15 LINE SMOOTH",
"-30 6 OFFCURVE",
"-26 0 OFFCURVE",
"-17 0 CURVE SMOOTH"
);
},
{
closed = 1;
nodes = (
"270 367 LINE SMOOTH",
"286 415 OFFCURVE",
"302 462 OFFCURVE",
"316 509 CURVE",
"318 509 LINE",
"317 462 OFFCURVE",
"318 415 OFFCURVE",
"319 368 CURVE SMOOTH",
"322 246 LINE",
"227 246 LINE"
);
},
{
closed = 1;
nodes = (
"323 636 OFFCURVE",
"315 647 OFFCURVE",
"315 668 CURVE SMOOTH",
"315 701 OFFCURVE",
"326 719 OFFCURVE",
"345 719 CURVE SMOOTH",
"362 719 OFFCURVE",
"370 708 OFFCURVE",
"370 687 CURVE SMOOTH",
"370 655 OFFCURVE",
"359 636 OFFCURVE",
"339 636 CURVE SMOOTH"
);
}
);
width = 526;
}
);
leftKerningGroup = A;
leftMetricsKey = A;
rightKerningGroup = A;
rightMetricsKey = A;
unicode = 00C5;
},
{
glyphname = AE;
lastChange = "2022-10-27 03:39:12 +0000";
layers = (
{
anchors = (
{
name = bottom;
position = "{327, 0}";
},
{
name = top;
position = "{480, 655}";
}
);
layerId = "C7C49F0D-FB24-4177-B585-680F100D73B3";
paths = (
{
closed = 1;
nodes = (
"-8 0 LINE SMOOTH",
"-6 0 OFFCURVE",
"-5 0 OFFCURVE",
"-4 2 CURVE SMOOTH",
"105 191 LINE",
"289 191 LINE",
"259 4 LINE SMOOTH",
"258 0 OFFCURVE",
"260 0 OFFCURVE",
"262 0 CURVE SMOOTH",
"516 0 LINE SMOOTH",
"519 0 OFFCURVE",
"520 0 OFFCURVE",
"521 3 CURVE SMOOTH",
"523 12 LINE SMOOTH",
"524 16 OFFCURVE",
"522 16 OFFCURVE",
"520 16 CURVE SMOOTH",
"277 16 LINE",
"327 328 LINE",
"552 328 LINE SMOOTH",
"555 328 OFFCURVE",
"556 328 OFFCURVE",
"557 331 CURVE SMOOTH",
"559 340 LINE SMOOTH",
"560 344 OFFCURVE",
"558 344 OFFCURVE",
"556 344 CURVE SMOOTH",
"330 344 LINE",
"376 639 LINE",
"618 639 LINE SMOOTH",
"621 639 OFFCURVE",
"622 639 OFFCURVE",
"623 642 CURVE SMOOTH",
"625 651 LINE SMOOTH",
"626 655 OFFCURVE",
"624 655 OFFCURVE",
"622 655 CURVE SMOOTH",
"356 655 LINE SMOOTH",
"354 655 OFFCURVE",
"353 655 OFFCURVE",
"350 651 CURVE SMOOTH",
"-21 3 LINE SMOOTH",
"-22 1 OFFCURVE",
"-21 0 OFFCURVE",
"-19 0 CURVE SMOOTH"
);
},
{
closed = 1;
nodes = (
"313 554 LINE SMOOTH",
"329 583 OFFCURVE",
"344 611 OFFCURVE",
"360 639 CURVE",
"361 639 LINE",
"356 609 OFFCURVE",
"351 580 OFFCURVE",
"346 550 CURVE SMOOTH",
"292 207 LINE",
"114 207 LINE"
);
}
);
width = 613;
},
{
anchors = (
{
name = bottom;
position = "{331, 0}";
},
{
name = top;
position = "{480, 655}";
}
);
layerId = "7BFDDD14-D104-4977-93DD-3DA2763EA456";
paths = (
{
closed = 1;
nodes = (
"37 0 LINE SMOOTH",
"42 0 OFFCURVE",
"44 3 OFFCURVE",
"47 8 CURVE SMOOTH",
"125 159 LINE",
"280 159 LINE",
"256 9 LINE SMOOTH",
"255 3 OFFCURVE",
"258 0 OFFCURVE",
"264 0 CURVE SMOOTH",
"533 0 LINE SMOOTH",
"538 0 OFFCURVE",
"541 3 OFFCURVE",
"542 9 CURVE SMOOTH",
"550 57 LINE SMOOTH",
"551 63 OFFCURVE",
"548 66 OFFCURVE",
"542 66 CURVE SMOOTH",
"334 66 LINE",
"371 302 LINE",
"563 302 LINE SMOOTH",
"569 302 OFFCURVE",
"571 305 OFFCURVE",
"572 311 CURVE SMOOTH",
"580 356 LINE SMOOTH",
"581 362 OFFCURVE",
"578 366 OFFCURVE",
"571 366 CURVE SMOOTH",
"381 366 LINE",
"417 589 LINE",
"626 589 LINE SMOOTH",
"632 589 OFFCURVE",
"634 592 OFFCURVE",
"635 598 CURVE SMOOTH",
"643 646 LINE SMOOTH",
"644 652 OFFCURVE",
"641 655 OFFCURVE",
"635 655 CURVE SMOOTH",
"320 655 LINE SMOOTH",
"314 655 OFFCURVE",
"310 652 OFFCURVE",
"307 646 CURVE SMOOTH",
"-27 10 LINE SMOOTH",
"-30 4 OFFCURVE",
"-27 0 OFFCURVE",
"-21 0 CURVE SMOOTH"
);
},
{
closed = 1;
nodes = (
"305 509 LINE SMOOTH",
"320 540 OFFCURVE",
"334 568 OFFCURVE",
"349 599 CURVE",
"350 599 LINE",
"344 568 OFFCURVE",
"340 541 OFFCURVE",
"334 505 CURVE SMOOTH",
"290 224 LINE",
"158 224 LINE"
);
}
);
width = 623;
},
{
anchors = (
{
name = bottom;
position = "{354, 0}";
},
{
name = top;
position = "{502, 655}";
}
);
layerId = "84FABC8E-B1B3-42CE-8CB3-674F4218367A";
paths = (
{
closed = 1;
nodes = (
"132 0 LINE SMOOTH",
"140 0 OFFCURVE",
"145 6 OFFCURVE",
"148 14 CURVE SMOOTH",
"190 117 LINE",
"290 117 LINE",
"273 15 LINE SMOOTH",
"271 5 OFFCURVE",
"277 0 OFFCURVE",
"286 0 CURVE SMOOTH",
"633 0 LINE SMOOTH",
"642 0 OFFCURVE",
"646 6 OFFCURVE",
"647 15 CURVE SMOOTH",
"666 130 LINE SMOOTH",
"667 138 OFFCURVE",
"661 144 OFFCURVE",
"652 144 CURVE SMOOTH",
"451 144 LINE",
"469 261 LINE",
"655 261 LINE SMOOTH",
"663 261 OFFCURVE",
"668 267 OFFCURVE",
"669 276 CURVE SMOOTH",
"686 383 LINE SMOOTH",
"688 393 OFFCURVE",
"683 398 OFFCURVE",
"674 398 CURVE SMOOTH",
"491 398 LINE",
"508 511 LINE",
"714 511 LINE SMOOTH",
"722 511 OFFCURVE",
"727 518 OFFCURVE",
"728 526 CURVE SMOOTH",
"746 640 LINE SMOOTH",
"748 650 OFFCURVE",
"743 655 OFFCURVE",
"733 655 CURVE SMOOTH",
"268 655 LINE SMOOTH",
"260 655 OFFCURVE",
"255 650 OFFCURVE",
"250 640 CURVE SMOOTH",
"-27 15 LINE SMOOTH",
"-31 6 OFFCURVE",
"-26 0 OFFCURVE",
"-17 0 CURVE SMOOTH"
);
},
{
closed = 1;
nodes = (
"305 406 LINE SMOOTH",
"321 444 OFFCURVE",
"339 493 OFFCURVE",
"355 536 CURVE",
"357 536 LINE",
"350 491 OFFCURVE",
"344 457 OFFCURVE",
"337 410 CURVE SMOOTH",
"310 246 LINE",
"240 246 LINE"
);
}
);
width = 708;
}
);
leftKerningGroup = AE;
leftMetricsKey = A;
rightKerningGroup = E;
rightMetricsKey = E;
unicode = 00C6;
},
{
glyphname = B;
lastChange = "2022-10-27 03:39:12 +0000";
layers = (
{
layerId = "C7C49F0D-FB24-4177-B585-680F100D73B3";
paths = (
{
closed = 1;
nodes = (
"169 0 LINE SMOOTH",
"311 0 OFFCURVE",
"384 73 OFFCURVE",
"384 209 CURVE SMOOTH",
"384 280 OFFCURVE",
"350 323 OFFCURVE",
"286 338 CURVE",
"286 340 LINE",
"363 363 OFFCURVE",
"412 434 OFFCURVE",
"412 526 CURVE SMOOTH",
"412 614 OFFCURVE",
"364 655 OFFCURVE",
"256 655 CURVE SMOOTH",
"159 655 LINE SMOOTH",
"156 655 OFFCURVE",
"155 655 OFFCURVE",
"154 651 CURVE SMOOTH",
"51 4 LINE SMOOTH",
"50 0 OFFCURVE",
"52 0 OFFCURVE",
"54 0 CURVE SMOOTH"
);
},
{
closed = 1;
nodes = (
"118 330 LINE",
"236 330 LINE SMOOTH",
"322 330 OFFCURVE",
"368 287 OFFCURVE",
"368 207 CURVE SMOOTH",
"368 83 OFFCURVE",
"301 16 OFFCURVE",
"170 16 CURVE SMOOTH",
"69 16 LINE"
);
},
{
closed = 1;
nodes = (
"168 639 LINE",
"254 639 LINE SMOOTH",
"352 639 OFFCURVE",
"396 603 OFFCURVE",
"396 525 CURVE SMOOTH",
"396 423 OFFCURVE",
"328 346 OFFCURVE",
"237 346 CURVE SMOOTH",
"121 346 LINE"
);
}
);
width = 431;
},
{
layerId = "7BFDDD14-D104-4977-93DD-3DA2763EA456";
paths = (
{
closed = 1;
nodes = (
"177 0 LINE SMOOTH",
"319 0 OFFCURVE",
"404 73 OFFCURVE",
"404 218 CURVE SMOOTH",
"404 285 OFFCURVE",
"374 327 OFFCURVE",
"316 343 CURVE",
"316 345 LINE",
"387 371 OFFCURVE",
"430 435 OFFCURVE",
"430 521 CURVE SMOOTH",
"430 610 OFFCURVE",
"379 655 OFFCURVE",
"265 655 CURVE SMOOTH",
"146 655 LINE SMOOTH",
"141 655 OFFCURVE",
"138 652 OFFCURVE",
"137 646 CURVE SMOOTH",
"36 9 LINE SMOOTH",
"35 4 OFFCURVE",
"38 0 OFFCURVE",
"43 0 CURVE SMOOTH"
);
},
{
closed = 1;
nodes = (
"152 308 LINE",
"225 308 LINE SMOOTH",
"298 308 OFFCURVE",
"333 278 OFFCURVE",
"333 217 CURVE SMOOTH",
"333 113 OFFCURVE",
"279 65 OFFCURVE",
"183 65 CURVE SMOOTH",
"114 65 LINE"
);
},
{
closed = 1;
nodes = (
"197 590 LINE",
"257 590 LINE SMOOTH",
"330 590 OFFCURVE",
"360 566 OFFCURVE",
"360 510 CURVE SMOOTH",
"360 420 OFFCURVE",
"309 371 OFFCURVE",
"230 371 CURVE SMOOTH",
"163 371 LINE"
);
}
);
width = 436;
},
{
layerId = "84FABC8E-B1B3-42CE-8CB3-674F4218367A";
paths = (
{
closed = 1;
nodes = (
"217 0 LINE SMOOTH",
"395 0 OFFCURVE",
"486 80 OFFCURVE",
"486 211 CURVE SMOOTH",
"486 284 OFFCURVE",
"453 326 OFFCURVE",
"391 344 CURVE",
"391 347 LINE",
"466 371 OFFCURVE",
"509 426 OFFCURVE",
"509 511 CURVE SMOOTH",
"509 607 OFFCURVE",
"438 655 OFFCURVE",
"301 655 CURVE SMOOTH",
"128 655 LINE SMOOTH",
"120 655 OFFCURVE",
"114 650 OFFCURVE",
"113 640 CURVE SMOOTH",
"13 15 LINE SMOOTH",
"11 5 OFFCURVE",
"17 0 OFFCURVE",
"26 0 CURVE SMOOTH"
);
},
{
closed = 1;
nodes = (
"215 272 LINE",
"256 272 LINE SMOOTH",
"305 272 OFFCURVE",
"324 252 OFFCURVE",
"324 214 CURVE SMOOTH",
"324 165 OFFCURVE",
"297 133 OFFCURVE",
"239 133 CURVE SMOOTH",
"192 133 LINE"
);
},
{
closed = 1;
nodes = (
"254 523 LINE",
"288 523 LINE SMOOTH",
"327 523 OFFCURVE",
"344 508 OFFCURVE",
"344 472 CURVE SMOOTH",
"344 428 OFFCURVE",
"320 391 OFFCURVE",
"272 391 CURVE SMOOTH",
"233 391 LINE"
);
}
);
width = 504;
}
);
leftKerningGroup = H;
leftMetricsKey = H;
rightKerningGroup = B;
unicode = 0042;
},
{
glyphname = C;
lastChange = "2022-10-27 03:39:12 +0000";
layers = (
{
anchors = (
{
name = bottom;
position = "{208, 0}";
},
{
name = top;
position = "{312, 655}";
}
);
layerId = "C7C49F0D-FB24-4177-B585-680F100D73B3";
paths = (
{
closed = 1;
nodes = (
"334 -8 OFFCURVE",
"393 55 OFFCURVE",
"411 194 CURVE SMOOTH",
"412 199 OFFCURVE",
"410 199 OFFCURVE",
"408 199 CURVE SMOOTH",
"400 199 LINE SMOOTH",
"397 199 OFFCURVE",
"395 198 OFFCURVE",
"395 195 CURVE SMOOTH",
"378 65 OFFCURVE",
"325 8 OFFCURVE",
"222 8 CURVE SMOOTH",
"114 8 OFFCURVE",
"65 74 OFFCURVE",
"84 196 CURVE SMOOTH",
"129 480 LINE SMOOTH",
"148 595 OFFCURVE",
"200 647 OFFCURVE",
"301 647 CURVE SMOOTH",
"411 647 OFFCURVE",
"458 583 OFFCURVE",
"437 460 CURVE SMOOTH",
"436 456 OFFCURVE",
"437 456 OFFCURVE",
"440 456 CURVE SMOOTH",
"448 456 LINE SMOOTH",
"451 456 OFFCURVE",
"452 456 OFFCURVE",
"453 460 CURVE SMOOTH",
"477 590 OFFCURVE",
"421 663 OFFCURVE",
"302 663 CURVE SMOOTH",
"192 663 OFFCURVE",
"133 607 OFFCURVE",
"113 481 CURVE SMOOTH",
"68 195 LINE SMOOTH",
"48 65 OFFCURVE",
"104 -8 OFFCURVE",
"221 -8 CURVE SMOOTH"
);
}
);
width = 473;
},
{
anchors = (
{
name = bottom;
position = "{219, 0}";
},
{
name = top;
position = "{312, 655}";
}
);
layerId = "7BFDDD14-D104-4977-93DD-3DA2763EA456";
paths = (
{
closed = 1;
nodes = (
"347 -8 OFFCURVE",
"421 72 OFFCURVE",
"428 211 CURVE SMOOTH",
"428 219 OFFCURVE",
"424 220 OFFCURVE",
"419 220 CURVE SMOOTH",
"368 220 LINE SMOOTH",
"361 220 OFFCURVE",
"359 216 OFFCURVE",
"359 211 CURVE SMOOTH",
"351 116 OFFCURVE",
"310 57 OFFCURVE",
"225 57 CURVE SMOOTH",
"145 57 OFFCURVE",
"111 105 OFFCURVE",
"127 206 CURVE SMOOTH",
"168 465 LINE SMOOTH",
"183 557 OFFCURVE",
"224 598 OFFCURVE",
"300 598 CURVE SMOOTH",
"386 598 OFFCURVE",
"415 542 OFFCURVE",
"394 444 CURVE SMOOTH",
"393 438 OFFCURVE",
"396 435 OFFCURVE",
"402 435 CURVE SMOOTH",
"453 435 LINE SMOOTH",
"459 435 OFFCURVE",
"461 438 OFFCURVE",
"463 444 CURVE SMOOTH",
"498 574 OFFCURVE",
"433 663 OFFCURVE",
"308 663 CURVE SMOOTH",
"186 663 OFFCURVE",
"119 599 OFFCURVE",
"98 465 CURVE SMOOTH",
"58 208 LINE SMOOTH",
"36 68 OFFCURVE",
"94 -8 OFFCURVE",
"218 -8 CURVE SMOOTH"
);
}
);
width = 476;
},
{
anchors = (
{
name = bottom;
position = "{253, 0}";
},
{
name = top;
position = "{343, 655}";
}
);
layerId = "84FABC8E-B1B3-42CE-8CB3-674F4218367A";
paths = (
{
closed = 1;
nodes = (
"420 -8 OFFCURVE",
"505 83 OFFCURVE",
"514 234 CURVE SMOOTH",
"515 244 OFFCURVE",
"510 249 OFFCURVE",
"500 249 CURVE SMOOTH",
"367 249 LINE SMOOTH",
"358 249 OFFCURVE",
"354 244 OFFCURVE",
"353 234 CURVE SMOOTH",
"347 175 OFFCURVE",
"324 137 OFFCURVE",
"269 137 CURVE SMOOTH",
"211 137 OFFCURVE",
"189 173 OFFCURVE",
"201 251 CURVE SMOOTH",
"228 416 LINE SMOOTH",
"240 488 OFFCURVE",
"265 518 OFFCURVE",
"318 518 CURVE SMOOTH",
"374 518 OFFCURVE",
"393 481 OFFCURVE",
"382 421 CURVE SMOOTH",
"381 411 OFFCURVE",
"386 407 OFFCURVE",
"395 407 CURVE SMOOTH",
"528 407 LINE SMOOTH",
"537 407 OFFCURVE",
"541 411 OFFCURVE",
"543 421 CURVE SMOOTH",
"575 569 OFFCURVE",
"491 663 OFFCURVE",
"333 663 CURVE SMOOTH",
"178 663 OFFCURVE",
"95 588 OFFCURVE",
"69 425 CURVE SMOOTH",
"42 252 LINE SMOOTH",
"15 85 OFFCURVE",
"93 -8 OFFCURVE",
"255 -8 CURVE SMOOTH"
);
}
);
width = 539;
}
);
leftKerningGroup = O;
leftMetricsKey = O;
rightKerningGroup = C;
unicode = 0043;
},
{
glyphname = D;
lastChange = "2022-10-27 03:39:12 +0000";
layers = (
{
anchors = (
{
name = bottom;
position = "{173, 0}";
},
{
name = center;
position = "{259, 328}";
},
{
name = top;
position = "{279, 655}";
}
);
layerId = "C7C49F0D-FB24-4177-B585-680F100D73B3";
paths = (
{
closed = 1;
nodes = (
"168 0 LINE SMOOTH",
"320 0 OFFCURVE",
"400 78 OFFCURVE",
"430 271 CURVE SMOOTH",
"446 377 LINE SMOOTH",
"476 573 OFFCURVE",
"417 655 OFFCURVE",
"256 655 CURVE SMOOTH",
"159 655 LINE SMOOTH",
"156 655 OFFCURVE",
"155 655 OFFCURVE",
"154 651 CURVE SMOOTH",
"51 4 LINE SMOOTH",
"50 0 OFFCURVE",
"52 0 OFFCURVE",
"54 0 CURVE SMOOTH"
);
},
{
closed = 1;
nodes = (
"168 639 LINE",
"255 639 LINE SMOOTH",
"405 639 OFFCURVE",
"460 564 OFFCURVE",
"430 376 CURVE SMOOTH",
"414 272 LINE SMOOTH",
"386 90 OFFCURVE",
"312 16 OFFCURVE",
"169 16 CURVE SMOOTH",
"69 16 LINE"
);
}
);
width = 474;
},
{
anchors = (
{
name = bottom;
position = "{188, 0}";
},
{
name = center;
position = "{265, 327}";
},
{
name = top;
position = "{280, 656}";
}
);
layerId = "7BFDDD14-D104-4977-93DD-3DA2763EA456";
paths = (
{
closed = 1;
nodes = (
"176 0 LINE SMOOTH",
"334 0 OFFCURVE",
"420 92 OFFCURVE",
"451 291 CURVE SMOOTH",
"464 378 LINE SMOOTH",
"493 566 OFFCURVE",
"427 655 OFFCURVE",
"259 655 CURVE SMOOTH",
"146 655 LINE SMOOTH",
"141 655 OFFCURVE",
"138 652 OFFCURVE",
"137 646 CURVE SMOOTH",
"36 9 LINE SMOOTH",
"35 3 OFFCURVE",
"38 0 OFFCURVE",
"44 0 CURVE SMOOTH"
);
},
{
closed = 1;
nodes = (
"197 590 LINE",
"255 590 LINE SMOOTH",
"377 590 OFFCURVE",
"417 525 OFFCURVE",
"395 381 CURVE SMOOTH",
"381 289 LINE SMOOTH",
"356 131 OFFCURVE",
"295 65 OFFCURVE",
"177 65 CURVE SMOOTH",
"114 65 LINE"
);
}
);
width = 482;
},
{
anchors = (
{
name = bottom;
position = "{211, 0}";
},
{
name = center;
position = "{286, 341}";
},
{
name = top;
position = "{313, 655}";
}
);
layerId = "84FABC8E-B1B3-42CE-8CB3-674F4218367A";
paths = (
{
closed = 1;
nodes = (
"225 0 LINE SMOOTH",
"404 0 OFFCURVE",
"495 95 OFFCURVE",
"527 291 CURVE SMOOTH",
"538 362 LINE SMOOTH",
"569 556 OFFCURVE",
"485 655 OFFCURVE",
"300 655 CURVE SMOOTH",
"127 655 LINE SMOOTH",
"119 655 OFFCURVE",
"114 650 OFFCURVE",
"113 640 CURVE SMOOTH",
"13 15 LINE SMOOTH",
"12 5 OFFCURVE",
"16 0 OFFCURVE",
"27 0 CURVE SMOOTH"
);
},
{
closed = 1;
nodes = (
"252 511 LINE",
"288 511 LINE SMOOTH",
"364 511 OFFCURVE",
"394 463 OFFCURVE",
"378 364 CURVE SMOOTH",
"367 294 LINE SMOOTH",
"350 189 OFFCURVE",
"314 144 OFFCURVE",
"238 144 CURVE SMOOTH",
"194 144 LINE"
);
}
);
width = 539;
}
);
leftKerningGroup = H;
leftMetricsKey = H;
rightKerningGroup = D;
unicode = 0044;
},
{
glyphname = Eth;
lastChange = "2022-10-27 03:39:12 +0000";
layers = (
{
components = (
{
alignment = -1;
name = D;
}
);
layerId = "C7C49F0D-FB24-4177-B585-680F100D73B3";
paths = (
{
closed = 1;
nodes = (
"255 328 LINE SMOOTH",
"258 328 OFFCURVE",
"259 328 OFFCURVE",
"260 331 CURVE SMOOTH",
"262 340 LINE SMOOTH",
"263 344 OFFCURVE",
"261 344 OFFCURVE",
"259 344 CURVE SMOOTH",
"105 344 LINE",
"37 344 LINE SMOOTH",
"34 344 OFFCURVE",
"33 344 OFFCURVE",
"32 341 CURVE SMOOTH",
"30 332 LINE SMOOTH",
"29 328 OFFCURVE",
"31 328 OFFCURVE",
"33 328 CURVE SMOOTH"
);
}
);
width = 474;
},
{
components = (
{
alignment = -1;
name = D;
}
);
layerId = "7BFDDD14-D104-4977-93DD-3DA2763EA456";
paths = (
{
closed = 1;
nodes = (
"253 303 LINE SMOOTH",
"259 303 OFFCURVE",
"261 306 OFFCURVE",
"262 312 CURVE SMOOTH",
"269 355 LINE SMOOTH",
"270 361 OFFCURVE",
"267 364 OFFCURVE",
"261 364 CURVE SMOOTH",
"92 364 LINE",
"42 364 LINE SMOOTH",
"37 364 OFFCURVE",
"34 361 OFFCURVE",
"33 355 CURVE SMOOTH",
"26 312 LINE SMOOTH",
"25 306 OFFCURVE",
"29 303 OFFCURVE",
"35 303 CURVE SMOOTH"
);
}
);
width = 482;
},
{
components = (
{
alignment = -1;
name = D;
transform = "{1, 0, 0, 1, 6, 0}";
}
);
layerId = "84FABC8E-B1B3-42CE-8CB3-674F4218367A";
paths = (
{
closed = 1;
nodes = (
"273 269 LINE SMOOTH",
"281 269 OFFCURVE",
"286 275 OFFCURVE",
"287 284 CURVE SMOOTH",
"302 374 LINE SMOOTH",
"304 383 OFFCURVE",
"298 389 OFFCURVE",
"288 389 CURVE SMOOTH",
"79 389 LINE",
"45 389 LINE SMOOTH",
"37 389 OFFCURVE",
"32 383 OFFCURVE",
"31 374 CURVE SMOOTH",
"16 284 LINE SMOOTH",
"14 274 OFFCURVE",
"20 269 OFFCURVE",
"29 269 CURVE SMOOTH"
);
}
);
width = 545;
}
);
leftKerningGroup = Eth;
rightKerningGroup = D;
rightMetricsKey = D;
unicode = 00D0;
},
{
glyphname = E;
lastChange = "2022-10-27 03:39:12 +0000";
layers = (
{
anchors = (
{
name = bottom;
position = "{175, 0}";
},
{
name = ogonek;
position = "{297, 10}";
},
{
name = top;
position = "{282, 655}";
},
{
name = topleft;
position = "{96, 655}";
}
);
layerId = "C7C49F0D-FB24-4177-B585-680F100D73B3";
paths = (
{
closed = 1;
nodes = (
"307 0 LINE SMOOTH",
"310 0 OFFCURVE",
"311 0 OFFCURVE",
"312 3 CURVE SMOOTH",
"314 12 LINE SMOOTH",
"315 16 OFFCURVE",
"313 16 OFFCURVE",
"311 16 CURVE SMOOTH",
"69 16 LINE",
"118 328 LINE",
"343 328 LINE SMOOTH",
"346 328 OFFCURVE",
"347 328 OFFCURVE",
"348 331 CURVE SMOOTH",
"350 340 LINE SMOOTH",
"351 344 OFFCURVE",
"349 344 OFFCURVE",
"347 344 CURVE SMOOTH",
"121 344 LINE",
"168 639 LINE",
"409 639 LINE SMOOTH",
"412 639 OFFCURVE",
"413 639 OFFCURVE",
"414 642 CURVE SMOOTH",
"416 651 LINE SMOOTH",
"417 655 OFFCURVE",
"415 655 OFFCURVE",
"413 655 CURVE SMOOTH",
"159 655 LINE SMOOTH",
"156 655 OFFCURVE",
"155 655 OFFCURVE",
"154 651 CURVE SMOOTH",
"51 4 LINE SMOOTH",
"50 0 OFFCURVE",
"52 0 OFFCURVE",
"54 0 CURVE SMOOTH"
);
}
);
width = 404;
},
{
anchors = (
{
name = bottom;
position = "{181, 0}";
},
{
name = ogonek;
position = "{309, 10}";
},
{
name = top;
position = "{279, 655}";
},
{
name = topleft;
position = "{105, 655}";
}
);
layerId = "7BFDDD14-D104-4977-93DD-3DA2763EA456";
paths = (
{
closed = 1;
nodes = (
"312 0 LINE SMOOTH",
"318 0 OFFCURVE",
"321 3 OFFCURVE",
"322 9 CURVE SMOOTH",
"330 57 LINE SMOOTH",
"331 63 OFFCURVE",
"328 66 OFFCURVE",
"322 66 CURVE SMOOTH",
"114 66 LINE",
"151 302 LINE",
"343 302 LINE SMOOTH",
"349 302 OFFCURVE",
"352 305 OFFCURVE",
"353 311 CURVE SMOOTH",
"360 356 LINE SMOOTH",
"361 362 OFFCURVE",
"358 366 OFFCURVE",
"352 366 CURVE SMOOTH",
"161 366 LINE",
"197 589 LINE",
"406 589 LINE SMOOTH",
"412 589 OFFCURVE",
"415 592 OFFCURVE",
"416 598 CURVE SMOOTH",
"424 646 LINE SMOOTH",
"425 652 OFFCURVE",
"422 655 OFFCURVE",
"416 655 CURVE SMOOTH",
"146 655 LINE SMOOTH",
"141 655 OFFCURVE",
"138 652 OFFCURVE",
"137 646 CURVE SMOOTH",
"36 9 LINE SMOOTH",
"35 3 OFFCURVE",
"38 0 OFFCURVE",
"43 0 CURVE SMOOTH"
);
}
);
width = 403;
},
{
anchors = (
{
name = bottom;
position = "{201, 0}";
},
{
name = ogonek;
position = "{368, 10}";
},
{
name = top;
position = "{300, 655}";
},
{
name = topleft;
position = "{104, 655}";
}
);
layerId = "84FABC8E-B1B3-42CE-8CB3-674F4218367A";
paths = (
{
closed = 1;
nodes = (
"377 0 LINE SMOOTH",
"386 0 OFFCURVE",
"390 6 OFFCURVE",
"392 15 CURVE SMOOTH",
"410 130 LINE SMOOTH",
"411 138 OFFCURVE",
"406 144 OFFCURVE",
"397 144 CURVE SMOOTH",
"195 144 LINE",
"214 261 LINE",
"399 261 LINE SMOOTH",
"408 261 OFFCURVE",
"413 267 OFFCURVE",
"414 276 CURVE SMOOTH",
"431 383 LINE SMOOTH",
"433 393 OFFCURVE",
"428 398 OFFCURVE",
"418 398 CURVE SMOOTH",
"235 398 LINE",
"253 511 LINE",
"458 511 LINE SMOOTH",
"467 511 OFFCURVE",
"472 518 OFFCURVE",
"473 526 CURVE SMOOTH",
"491 640 LINE SMOOTH",
"493 650 OFFCURVE",
"487 655 OFFCURVE",
"478 655 CURVE SMOOTH",
"128 655 LINE SMOOTH",
"119 655 OFFCURVE",
"114 650 OFFCURVE",
"113 640 CURVE SMOOTH",
"13 15 LINE SMOOTH",
"11 5 OFFCURVE",
"17 0 OFFCURVE",
"26 0 CURVE SMOOTH"
);
}
);
width = 452;
}
);
leftKerningGroup = H;
leftMetricsKey = H;
rightKerningGroup = E;
unicode = 0045;
},
{
glyphname = F;
lastChange = "2022-10-27 03:39:12 +0000";
layers = (
{
layerId = "C7C49F0D-FB24-4177-B585-680F100D73B3";
paths = (
{
closed = 1;
nodes = (
"62 0 LINE SMOOTH",
"65 0 OFFCURVE",
"66 0 OFFCURVE",
"67 5 CURVE SMOOTH",
"117 320 LINE",
"333 320 LINE SMOOTH",
"336 320 OFFCURVE",
"337 320 OFFCURVE",
"338 323 CURVE SMOOTH",
"340 332 LINE SMOOTH",
"341 336 OFFCURVE",
"339 336 OFFCURVE",
"337 336 CURVE SMOOTH",
"120 336 LINE",
"168 639 LINE",
"409 639 LINE SMOOTH",
"412 639 OFFCURVE",
"413 639 OFFCURVE",
"414 642 CURVE SMOOTH",
"416 651 LINE SMOOTH",
"417 655 OFFCURVE",
"415 655 OFFCURVE",
"413 655 CURVE SMOOTH",
"159 655 LINE SMOOTH",
"156 655 OFFCURVE",
"155 655 OFFCURVE",
"154 651 CURVE SMOOTH",
"51 5 LINE SMOOTH",
"50 0 OFFCURVE",
"52 0 OFFCURVE",
"55 0 CURVE SMOOTH"
);
}
);
width = 374;
},
{
layerId = "7BFDDD14-D104-4977-93DD-3DA2763EA456";
paths = (
{
closed = 1;
nodes = (
"95 0 LINE SMOOTH",
"100 0 OFFCURVE",
"104 3 OFFCURVE",
"105 9 CURVE SMOOTH",
"150 295 LINE",
"333 295 LINE SMOOTH",
"338 295 OFFCURVE",
"341 299 OFFCURVE",
"341 305 CURVE SMOOTH",
"349 350 LINE SMOOTH",
"350 356 OFFCURVE",
"348 359 OFFCURVE",
"342 359 CURVE SMOOTH",
"161 359 LINE",
"197 589 LINE",
"406 589 LINE SMOOTH",
"411 589 OFFCURVE",
"415 592 OFFCURVE",
"416 598 CURVE SMOOTH",
"423 646 LINE SMOOTH",
"424 652 OFFCURVE",
"422 655 OFFCURVE",
"417 655 CURVE SMOOTH",
"146 655 LINE SMOOTH",
"140 655 OFFCURVE",
"138 652 OFFCURVE",
"137 646 CURVE SMOOTH",
"36 9 LINE SMOOTH",
"35 3 OFFCURVE",
"38 0 OFFCURVE",
"43 0 CURVE SMOOTH"
);
}
);
width = 386;
},
{
layerId = "84FABC8E-B1B3-42CE-8CB3-674F4218367A";
paths = (
{
closed = 1;
nodes = (
"158 0 LINE SMOOTH",
"166 0 OFFCURVE",
"172 6 OFFCURVE",
"173 15 CURVE SMOOTH",
"211 249 LINE",
"386 249 LINE SMOOTH",
"395 249 OFFCURVE",
"400 255 OFFCURVE",
"401 263 CURVE SMOOTH",
"418 375 LINE SMOOTH",
"420 385 OFFCURVE",
"415 389 OFFCURVE",
"406 389 CURVE SMOOTH",
"233 389 LINE",
"252 511 LINE",
"457 511 LINE SMOOTH",
"466 511 OFFCURVE",
"471 518 OFFCURVE",
"472 526 CURVE SMOOTH",
"490 640 LINE SMOOTH",
"492 650 OFFCURVE",
"487 655 OFFCURVE",
"477 655 CURVE SMOOTH",
"128 655 LINE SMOOTH",
"119 655 OFFCURVE",
"114 650 OFFCURVE",
"113 640 CURVE SMOOTH",
"13 15 LINE SMOOTH",
"11 5 OFFCURVE",
"17 0 OFFCURVE",
"26 0 CURVE SMOOTH"
);
}
);
width = 441;
}
);
leftKerningGroup = H;
leftMetricsKey = H;
rightKerningGroup = F;
unicode = 0046;
},
{
glyphname = G;
lastChange = "2022-10-27 03:39:12 +0000";
layers = (
{
anchors = (
{
name = bottom;
position = "{214, 0}";
},
{
name = top;
position = "{315, 655}";
},
{
name = topleft;
position = "{131, 655}";
}
);
layerId = "C7C49F0D-FB24-4177-B585-680F100D73B3";
paths = (
{
closed = 1;
nodes = (
"302 -8 OFFCURVE",
"353 44 OFFCURVE",
"386 129 CURVE",
"387 129 LINE",
"379 87 OFFCURVE",
"374 47 OFFCURVE",
"372 5 CURVE SMOOTH",
"372 1 OFFCURVE",
"372 0 OFFCURVE",
"376 0 CURVE SMOOTH",
"382 0 LINE SMOOTH",
"386 0 OFFCURVE",
"387 1 OFFCURVE",
"387 5 CURVE SMOOTH",
"389 46 OFFCURVE",
"394 87 OFFCURVE",
"402 140 CURVE SMOOTH",
"429 313 LINE SMOOTH",
"430 316 OFFCURVE",
"428 317 OFFCURVE",
"426 317 CURVE SMOOTH",
"279 317 LINE SMOOTH",
"275 317 OFFCURVE",
"274 317 OFFCURVE",
"274 314 CURVE SMOOTH",
"272 305 LINE SMOOTH",
"271 302 OFFCURVE",
"272 301 OFFCURVE",
"275 301 CURVE SMOOTH",
"412 301 LINE",
"403 249 LINE SMOOTH",
"376 82 OFFCURVE",
"312 8 OFFCURVE",
"205 8 CURVE SMOOTH",
"112 8 OFFCURVE",
"65 77 OFFCURVE",
"84 197 CURVE SMOOTH",
"130 484 LINE SMOOTH",
"148 598 OFFCURVE",
"201 647 OFFCURVE",
"301 647 CURVE SMOOTH",
"405 647 OFFCURVE",
"460 579 OFFCURVE",
"438 470 CURVE SMOOTH",
"437 467 OFFCURVE",
"438.004 466 OFFCURVE",
"440 466 CURVE SMOOTH",
"449 466 LINE SMOOTH",
"452 466 OFFCURVE",
"453 467 OFFCURVE",
"454 470 CURVE SMOOTH",
"478 587 OFFCURVE",
"417 663 OFFCURVE",
"302 663 CURVE SMOOTH",
"192 663 OFFCURVE",
"134 610 OFFCURVE",
"114 485 CURVE SMOOTH",
"68 196 LINE SMOOTH",
"48 67 OFFCURVE",
"102 -8 OFFCURVE",
"204 -8 CURVE SMOOTH"
);
}
);
width = 487;
},
{
anchors = (
{
name = bottom;
position = "{212, 0}";
},
{
name = top;
position = "{315, 655}";
},
{
name = topleft;
position = "{131, 655}";
}
);
layerId = "7BFDDD14-D104-4977-93DD-3DA2763EA456";
paths = (
{
closed = 1;
nodes = (
"272 -8 OFFCURVE",
"317 24 OFFCURVE",
"351 78 CURVE",
"352 78 LINE",
"348 51 OFFCURVE",
"345 27 OFFCURVE",
"345 9 CURVE SMOOTH",
"345 3 OFFCURVE",
"348 0 OFFCURVE",
"354 0 CURVE SMOOTH",
"396 0 LINE SMOOTH",
"402 0 OFFCURVE",
"405 3 OFFCURVE",
"405 9 CURVE SMOOTH",
"406 42 OFFCURVE",
"410 75 OFFCURVE",
"418 128 CURVE SMOOTH",
"449 322 LINE SMOOTH",
"450 328 OFFCURVE",
"447 331 OFFCURVE",
"441 331 CURVE SMOOTH",
"275 331 LINE SMOOTH",
"269 331 OFFCURVE",
"266 328 OFFCURVE",
"265 322 CURVE SMOOTH",
"258 277 LINE SMOOTH",
"257 270 OFFCURVE",
"259 267 OFFCURVE",
"265 267 CURVE SMOOTH",
"374 267 LINE",
"364 210 LINE SMOOTH",
"349 118 OFFCURVE",
"303 57 OFFCURVE",
"217 57 CURVE SMOOTH",
"142 57 OFFCURVE",
"111 106 OFFCURVE",
"127 205 CURVE SMOOTH",
"167 464 LINE SMOOTH",
"182 558 OFFCURVE",
"222 598 OFFCURVE",
"299 598 CURVE SMOOTH",
"382 598 OFFCURVE",
"416 543 OFFCURVE",
"397 455 CURVE SMOOTH",
"395 449 OFFCURVE",
"398 445 OFFCURVE",
"404 445 CURVE SMOOTH",
"455 445 LINE SMOOTH",
"461 445 OFFCURVE",
"464 448 OFFCURVE",
"465 454 CURVE SMOOTH",
"495 578 OFFCURVE",
"433 663 OFFCURVE",
"307 663 CURVE SMOOTH",
"185 663 OFFCURVE",
"119 599 OFFCURVE",
"98 464 CURVE SMOOTH",
"57 201 LINE SMOOTH",
"36 64 OFFCURVE",
"95 -8 OFFCURVE",
"199 -8 CURVE SMOOTH"
);
}
);
width = 492;
},
{
anchors = (
{
name = bottom;
position = "{238, 0}";
},
{
name = top;
position = "{347, 655}";
},
{
name = topleft;
position = "{136, 655}";
}
);
layerId = "84FABC8E-B1B3-42CE-8CB3-674F4218367A";
paths = (
{
closed = 1;
nodes = (
"274 -8 OFFCURVE",
"319 17 OFFCURVE",
"355 74 CURVE",
"357 74 LINE",
"354 53 OFFCURVE",
"352 29 OFFCURVE",
"353 15 CURVE SMOOTH",
"353 5 OFFCURVE",
"358 0 OFFCURVE",
"367 0 CURVE SMOOTH",
"470 0 LINE SMOOTH",
"480 0 OFFCURVE",
"484 5 OFFCURVE",
"484 15 CURVE SMOOTH",
"483 47 OFFCURVE",
"488 96 OFFCURVE",
"500 172 CURVE SMOOTH",
"526 338 LINE SMOOTH",
"528 347 OFFCURVE",
"523 353 OFFCURVE",
"513 353 CURVE SMOOTH",
"303 353 LINE SMOOTH",
"294 353 OFFCURVE",
"289 347 OFFCURVE",
"288 338 CURVE SMOOTH",
"275 258 LINE SMOOTH",
"273 248 OFFCURVE",
"277 243 OFFCURVE",
"288 243 CURVE SMOOTH",
"362 243 LINE",
"357 218 LINE SMOOTH",
"347 164 OFFCURVE",
"316 137 OFFCURVE",
"267 137 CURVE SMOOTH",
"210 137 OFFCURVE",
"188 169 OFFCURVE",
"201 251 CURVE SMOOTH",
"228 416 LINE SMOOTH",
"240 489 OFFCURVE",
"266 518 OFFCURVE",
"318 518 CURVE SMOOTH",
"367 518 OFFCURVE",
"391 490 OFFCURVE",
"383 443 CURVE SMOOTH",
"381 434 OFFCURVE",
"386 428 OFFCURVE",
"395 428 CURVE SMOOTH",
"528 428 LINE SMOOTH",
"536 428 OFFCURVE",
"541 432 OFFCURVE",
"542 442 CURVE SMOOTH",
"569 576 OFFCURVE",
"486 663 OFFCURVE",
"331 663 CURVE SMOOTH",
"177 663 OFFCURVE",
"95 589 OFFCURVE",
"69 427 CURVE SMOOTH",
"41 252 LINE SMOOTH",
"16 92 OFFCURVE",
"80 -8 OFFCURVE",
"203 -8 CURVE SMOOTH"
);
}
);
width = 545;
}
);
leftKerningGroup = O;
leftMetricsKey = O;
rightKerningGroup = G;
unicode = 0047;
},
{
glyphname = H;
lastChange = "2022-10-27 03:39:12 +0000";
layers = (
{
layerId = "C7C49F0D-FB24-4177-B585-680F100D73B3";
paths = (
{
closed = 1;
nodes = (
"62 0 LINE SMOOTH",
"65 0 OFFCURVE",
"66 0 OFFCURVE",
"67 5 CURVE SMOOTH",
"119 331 LINE",
"420 331 LINE",
"368 5 LINE SMOOTH",
"367 0 OFFCURVE",
"369 0 OFFCURVE",
"372 0 CURVE SMOOTH",
"379 0 LINE SMOOTH",
"382 0 OFFCURVE",
"383 0 OFFCURVE",
"384 5 CURVE SMOOTH",
"487 651 LINE SMOOTH",
"488 655 OFFCURVE",
"486 655 OFFCURVE",
"483 655 CURVE SMOOTH",
"476 655 LINE SMOOTH",
"473 655 OFFCURVE",
"472 655 OFFCURVE",
"471 651 CURVE SMOOTH",
"423 347 LINE",
"122 347 LINE",
"170 651 LINE SMOOTH",
"171 655 OFFCURVE",
"169 655 OFFCURVE",
"166 655 CURVE SMOOTH",
"159 655 LINE SMOOTH",
"156 655 OFFCURVE",
"155 655 OFFCURVE",
"154 651 CURVE SMOOTH",
"51 5 LINE SMOOTH",
"50 0 OFFCURVE",
"52 0 OFFCURVE",
"55 0 CURVE SMOOTH"
);
}
);
width = 493;
},
{
layerId = "7BFDDD14-D104-4977-93DD-3DA2763EA456";
paths = (
{
closed = 1;
nodes = (
"95 0 LINE SMOOTH",
"100 0 OFFCURVE",
"104 3 OFFCURVE",
"105 9 CURVE SMOOTH",
"152 306 LINE",
"383 306 LINE",
"336 9 LINE SMOOTH",
"335 3 OFFCURVE",
"338 0 OFFCURVE",
"344 0 CURVE SMOOTH",
"396 0 LINE SMOOTH",
"401 0 OFFCURVE",
"404 3 OFFCURVE",
"405 9 CURVE SMOOTH",
"506 646 LINE SMOOTH",
"507 652 OFFCURVE",
"504 655 OFFCURVE",
"498 655 CURVE SMOOTH",
"447 655 LINE SMOOTH",
"441 655 OFFCURVE",
"438 652 OFFCURVE",
"437 646 CURVE SMOOTH",
"394 371 LINE",
"162 371 LINE",
"206 646 LINE SMOOTH",
"207 652 OFFCURVE",
"203 655 OFFCURVE",
"198 655 CURVE SMOOTH",
"146 655 LINE SMOOTH",
"141 655 OFFCURVE",
"138 652 OFFCURVE",
"137 646 CURVE SMOOTH",
"36 9 LINE SMOOTH",
"35 3 OFFCURVE",
"38 0 OFFCURVE",
"44 0 CURVE SMOOTH"
);
}
);
width = 498;
},
{
layerId = "84FABC8E-B1B3-42CE-8CB3-674F4218367A";
paths = (
{
closed = 1;
nodes = (
"158 0 LINE SMOOTH",
"166 0 OFFCURVE",
"172 6 OFFCURVE",
"173 15 CURVE SMOOTH",
"212 257 LINE",
"363 257 LINE",
"324 15 LINE SMOOTH",
"322 5 OFFCURVE",
"328 0 OFFCURVE",
"338 0 CURVE SMOOTH",
"469 0 LINE SMOOTH",
"477 0 OFFCURVE",
"483 6 OFFCURVE",
"484 15 CURVE SMOOTH",
"584 640 LINE SMOOTH",
"585 650 OFFCURVE",
"580 655 OFFCURVE",
"571 655 CURVE SMOOTH",
"438 655 LINE SMOOTH",
"430 655 OFFCURVE",
"425 650 OFFCURVE",
"424 640 CURVE SMOOTH",
"386 401 LINE",
"235 401 LINE",
"273 640 LINE SMOOTH",
"274 650 OFFCURVE",
"269 655 OFFCURVE",
"260 655 CURVE SMOOTH",
"127 655 LINE SMOOTH",
"119 655 OFFCURVE",
"114 650 OFFCURVE",
"113 640 CURVE SMOOTH",
"13 15 LINE SMOOTH",
"11 5 OFFCURVE",
"17 0 OFFCURVE",
"27 0 CURVE SMOOTH"
);
}
);
width = 552;
}
);
leftKerningGroup = H;
rightKerningGroup = H;
unicode = 0048;
},
{
glyphname = Hbar;
lastChange = "2022-10-27 03:39:12 +0000";
layers = (
{
components = (
{
alignment = -1;
name = H;
}
);
layerId = "C7C49F0D-FB24-4177-B585-680F100D73B3";
paths = (
{
closed = 1;
nodes = (
"140 545 LINE",
"468 545 LINE",
"539 545 LINE SMOOTH",
"541 545 OFFCURVE",
"542 545 OFFCURVE",
"543 548 CURVE SMOOTH",
"545 557 LINE SMOOTH",
"546 561 OFFCURVE",
"544 561 OFFCURVE",
"541 561 CURVE SMOOTH",
"71 561 LINE SMOOTH",
"68 561 OFFCURVE",
"67 561 OFFCURVE",
"66 558 CURVE SMOOTH",
"64 549 LINE SMOOTH",
"63 545 OFFCURVE",
"65 545 OFFCURVE",
"67 545 CURVE SMOOTH"
);
}
);
width = 493;
},
{
components = (
{
alignment = -1;
name = H;
}
);
layerId = "7BFDDD14-D104-4977-93DD-3DA2763EA456";
paths = (
{
closed = 1;
nodes = (
"119 520 LINE",
"484 520 LINE",
"527 520 LINE SMOOTH",
"532 520 OFFCURVE",
"536 524 OFFCURVE",
"537 529 CURVE SMOOTH",
"544 573 LINE SMOOTH",
"545 579 OFFCURVE",
"541 583 OFFCURVE",
"536 583 CURVE SMOOTH",
"86 583 LINE SMOOTH",
"81 583 OFFCURVE",
"77 579 OFFCURVE",
"76 573 CURVE SMOOTH",
"70 530 LINE SMOOTH",
"69 524 OFFCURVE",
"72 520 OFFCURVE",
"78 520 CURVE SMOOTH"
);
}
);
width = 498;
},
{
components = (
{
alignment = -1;
name = H;
}
);
layerId = "84FABC8E-B1B3-42CE-8CB3-674F4218367A";
paths = (
{
closed = 1;
nodes = (
"91 489 LINE",
"558 489 LINE",
"591 489 LINE SMOOTH",
"599 489 OFFCURVE",
"605 495 OFFCURVE",
"606 504 CURVE SMOOTH",
"618 578 LINE SMOOTH",
"620 588 OFFCURVE",
"614 593 OFFCURVE",
"605 593 CURVE SMOOTH",
"73 593 LINE SMOOTH",
"65 593 OFFCURVE",
"60 588 OFFCURVE",
"59 578 CURVE SMOOTH",
"46 504 LINE SMOOTH",
"44 495 OFFCURVE",
"50 489 OFFCURVE",
"59 489 CURVE SMOOTH"
);
}
);
width = 551;
}
);
leftKerningGroup = H;
rightKerningGroup = H;
unicode = 0126;
},
{
glyphname = I;
lastChange = "2022-10-27 03:39:12 +0000";
layers = (
{
anchors = (
{
name = bottom;
position = "{58, 0}";
},
{
name = ogonek;
position = "{71, 10}";
},
{
name = top;
position = "{162, 655}";
},
{
name = topleft;
position = "{109, 655}";
}
);
layerId = "C7C49F0D-FB24-4177-B585-680F100D73B3";
paths = (
{
closed = 1;
nodes = (
"62 0 LINE SMOOTH",
"65 0 OFFCURVE",
"66 0 OFFCURVE",
"67 5 CURVE SMOOTH",
"170 651 LINE SMOOTH",
"171 655 OFFCURVE",
"169 655 OFFCURVE",
"166 655 CURVE SMOOTH",
"159 655 LINE SMOOTH",
"156 655 OFFCURVE",
"155 655 OFFCURVE",
"154 651 CURVE SMOOTH",
"51 5 LINE SMOOTH",
"50 0 OFFCURVE",
"52 0 OFFCURVE",
"55 0 CURVE SMOOTH"
);
}
);
width = 176;
},
{
anchors = (
{
name = bottom;
position = "{67, 0}";
},
{
name = ogonek;
position = "{107, 10}";
},
{
name = top;
position = "{174, 655}";
},
{
name = topleft;
position = "{95, 655}";
}
);
layerId = "7BFDDD14-D104-4977-93DD-3DA2763EA456";
paths = (
{
closed = 1;
nodes = (
"95 0 LINE SMOOTH",
"100 0 OFFCURVE",
"104 3 OFFCURVE",
"105 9 CURVE SMOOTH",
"206 646 LINE SMOOTH",
"207 652 OFFCURVE",
"204 655 OFFCURVE",
"198 655 CURVE SMOOTH",
"146 655 LINE SMOOTH",
"140 655 OFFCURVE",
"138 652 OFFCURVE",
"137 646 CURVE SMOOTH",
"36 9 LINE SMOOTH",
"35 3 OFFCURVE",
"38 0 OFFCURVE",
"44 0 CURVE SMOOTH"
);
}
);
width = 198;
},
{
anchors = (
{
name = bottom;
position = "{91, 0}";
},
{
name = ogonek;
position = "{175, 10}";
},
{
name = top;
position = "{197, 655}";
},
{
name = topleft;
position = "{93, 655}";
}
);
layerId = "84FABC8E-B1B3-42CE-8CB3-674F4218367A";
paths = (
{
closed = 1;
nodes = (
"158 0 LINE SMOOTH",
"166 0 OFFCURVE",
"172 6 OFFCURVE",
"173 15 CURVE SMOOTH",
"273 640 LINE SMOOTH",
"274 650 OFFCURVE",
"269 655 OFFCURVE",
"260 655 CURVE SMOOTH",
"127 655 LINE SMOOTH",
"119 655 OFFCURVE",
"114 650 OFFCURVE",
"113 640 CURVE SMOOTH",
"13 15 LINE SMOOTH",
"11 5 OFFCURVE",
"17 0 OFFCURVE",
"27 0 CURVE SMOOTH"
);
}
);
width = 241;
}
);
leftKerningGroup = H;
leftMetricsKey = H;
rightKerningGroup = H;
rightMetricsKey = H;
unicode = 0049;
},
{
glyphname = J;
lastChange = "2022-10-27 03:39:12 +0000";
layers = (
{
anchors = (
{
name = bottom;
position = "{58, 0}";
},
{
name = top;
position = "{162, 655}";
}
);
layerId = "C7C49F0D-FB24-4177-B585-680F100D73B3";
paths = (
{
closed = 1;
nodes = (
"26 -118 OFFCURVE",
"54 -71 OFFCURVE",
"76 64 CURVE SMOOTH",
"170 651 LINE SMOOTH",
"171 655 OFFCURVE",
"169 655 OFFCURVE",
"166 655 CURVE SMOOTH",
"159 655 LINE SMOOTH",
"156 655 OFFCURVE",
"155 655 OFFCURVE",
"154 651 CURVE SMOOTH",
"60 64 LINE SMOOTH",
"39 -63 OFFCURVE",
"12 -105 OFFCURVE",
"-43 -124 CURVE SMOOTH",
"-47 -125 OFFCURVE",
"-47 -126 OFFCURVE",
"-46 -129 CURVE SMOOTH",
"-45 -136 LINE SMOOTH",
"-44 -139 OFFCURVE",
"-43 -140 OFFCURVE",
"-40 -139 CURVE SMOOTH"
);
}
);
width = 176;
},
{
anchors = (
{
name = bottom;
position = "{68, 0}";
},
{
name = top;
position = "{175, 655}";
}
);
layerId = "7BFDDD14-D104-4977-93DD-3DA2763EA456";
paths = (
{
closed = 1;
nodes = (
"51 -121 OFFCURVE",
"96 -69 OFFCURVE",
"118 70 CURVE SMOOTH",
"209 645 LINE SMOOTH",
"210 652 OFFCURVE",
"207 655 OFFCURVE",
"201 655 CURVE SMOOTH",
"150 655 LINE SMOOTH",
"145 655 OFFCURVE",
"141 652 OFFCURVE",
"140 646 CURVE SMOOTH",
"48 68 LINE SMOOTH",
"33 -23 OFFCURVE",
"6 -59 OFFCURVE",
"-40 -70 CURVE SMOOTH",
"-47 -72 OFFCURVE",
"-48 -76 OFFCURVE",
"-47 -83 CURVE SMOOTH",
"-41 -133 LINE SMOOTH",
"-40 -140 OFFCURVE",
"-37 -141 OFFCURVE",
"-29 -139 CURVE SMOOTH"
);
}
);
width = 201;
},
{
anchors = (
{
name = bottom;
position = "{97, 0}";
},
{
name = top;
position = "{201, 655}";
}
);
layerId = "84FABC8E-B1B3-42CE-8CB3-674F4218367A";
paths = (
{
closed = 1;
nodes = (
"100 -148 OFFCURVE",
"164 -73 OFFCURVE",
"191 99 CURVE SMOOTH",
"277 641 LINE SMOOTH",
"278 649 OFFCURVE",
"275 655 OFFCURVE",
"267 655 CURVE SMOOTH",
"131 655 LINE SMOOTH",
"123 655 OFFCURVE",
"118 649 OFFCURVE",
"117 641 CURVE SMOOTH",
"29 91 LINE SMOOTH",
"16 8 OFFCURVE",
"-5 -19 OFFCURVE",
"-46 -30 CURVE SMOOTH",
"-54 -32 OFFCURVE",
"-57 -39 OFFCURVE",
"-56 -48 CURVE SMOOTH",
"-40 -155 LINE SMOOTH",
"-39 -164 OFFCURVE",
"-34 -169 OFFCURVE",
"-24 -167 CURVE SMOOTH"
);
}
);
width = 245;
}
);
leftKerningGroup = J;
rightKerningGroup = J;
rightMetricsKey = H;
unicode = 004A;
},
{
glyphname = K;
lastChange = "2022-10-27 03:39:12 +0000";
layers = (
{
anchors = (
{
name = bottom;
position = "{191, 0}";
},
{
name = top;
position = "{289, 655}";
}
);
layerId = "C7C49F0D-FB24-4177-B585-680F100D73B3";
paths = (
{
closed = 1;
nodes = (
"62 0 LINE SMOOTH",
"65 0 OFFCURVE",
"66 0 OFFCURVE",
"67 5 CURVE SMOOTH",
"99 209 LINE",
"228 365 LINE",
"362 3 LINE SMOOTH",
"364 0 OFFCURVE",
"364 0 OFFCURVE",
"367 0 CURVE SMOOTH",
"377 0 LINE SMOOTH",
"379 0 OFFCURVE",
"380 1 OFFCURVE",
"379 4 CURVE SMOOTH",
"240 381 LINE",
"462 651 LINE SMOOTH",
"464 654 OFFCURVE",
"463 655 OFFCURVE",
"460 655 CURVE SMOOTH",
"448 655 LINE SMOOTH",
"446 655 OFFCURVE",
"445 655 OFFCURVE",
"443 652 CURVE SMOOTH",
"213 369 LINE SMOOTH",
"176 325 OFFCURVE",
"141 283 OFFCURVE",
"105 239 CURVE",
"104 239 LINE",
"112 287 OFFCURVE",
"120 334 OFFCURVE",
"127 381 CURVE SMOOTH",
"170 651 LINE SMOOTH",
"171 655 OFFCURVE",
"169 655 OFFCURVE",
"166 655 CURVE SMOOTH",
"159 655 LINE SMOOTH",
"156 655 OFFCURVE",
"155 655 OFFCURVE",
"154 651 CURVE SMOOTH",
"51 5 LINE SMOOTH",
"50 0 OFFCURVE",
"52 0 OFFCURVE",
"55 0 CURVE SMOOTH"
);
}
);
width = 420;
},
{
anchors = (
{
name = bottom;
position = "{204, 0}";
},
{
name = top;
position = "{302, 655}";
}
);
layerId = "7BFDDD14-D104-4977-93DD-3DA2763EA456";
paths = (
{
closed = 1;
nodes = (
"95 0 LINE SMOOTH",
"100 0 OFFCURVE",
"104 3 OFFCURVE",
"105 9 CURVE SMOOTH",
"137 211 LINE",
"229 323 LINE",
"332 9 LINE SMOOTH",
"334 3 OFFCURVE",
"338 0 OFFCURVE",
"343 0 CURVE SMOOTH",
"401 0 LINE SMOOTH",
"408 0 OFFCURVE",
"410 4 OFFCURVE",
"408 10 CURVE SMOOTH",
"284 386 LINE",
"494 645 LINE SMOOTH",
"499 650 OFFCURVE",
"497 655 OFFCURVE",
"491 655 CURVE SMOOTH",
"425 655 LINE SMOOTH",
"420 655 OFFCURVE",
"416 652 OFFCURVE",
"412 647 CURVE SMOOTH",
"247 440 LINE SMOOTH",
"215 399 OFFCURVE",
"185 361 OFFCURVE",
"154 319 CURVE",
"153 319 LINE",
"161 363 OFFCURVE",
"168 404 OFFCURVE",
"174 445 CURVE SMOOTH",
"206 646 LINE SMOOTH",
"207 652 OFFCURVE",
"204 655 OFFCURVE",
"198 655 CURVE SMOOTH",
"146 655 LINE SMOOTH",
"141 655 OFFCURVE",
"138 652 OFFCURVE",
"137 646 CURVE SMOOTH",
"36 9 LINE SMOOTH",
"35 3 OFFCURVE",
"38 0 OFFCURVE",
"44 0 CURVE SMOOTH"
);
}
);
width = 446;
},
{
anchors = (
{
name = bottom;
position = "{235, 0}";
},
{
name = top;
position = "{342, 655}";
}
);
layerId = "84FABC8E-B1B3-42CE-8CB3-674F4218367A";
paths = (
{
closed = 1;
nodes = (
"158 0 LINE SMOOTH",
"166 0 OFFCURVE",
"172 6 OFFCURVE",
"173 15 CURVE SMOOTH",
"200 185 LINE",
"257 251 LINE",
"323 15 LINE SMOOTH",
"326 5 OFFCURVE",
"331 0 OFFCURVE",
"339 0 CURVE SMOOTH",
"487 0 LINE SMOOTH",
"496 0 OFFCURVE",
"502 6 OFFCURVE",
"499 15 CURVE SMOOTH",
"388 369 LINE",
"580 639 LINE SMOOTH",
"587 648 OFFCURVE",
"582 655 OFFCURVE",
"573 655 CURVE SMOOTH",
"419 655 LINE SMOOTH",
"411 655 OFFCURVE",
"406 651 OFFCURVE",
"401 643 CURVE SMOOTH",
"318 529 LINE SMOOTH",
"289 484 OFFCURVE",
"257 432 OFFCURVE",
"229 384 CURVE",
"227 384 LINE",
"239 433 OFFCURVE",
"247 480 OFFCURVE",
"255 529 CURVE SMOOTH",
"273 640 LINE SMOOTH",
"274 650 OFFCURVE",
"269 655 OFFCURVE",
"260 655 CURVE SMOOTH",
"127 655 LINE SMOOTH",
"119 655 OFFCURVE",
"114 650 OFFCURVE",
"113 640 CURVE SMOOTH",
"13 15 LINE SMOOTH",
"11 5 OFFCURVE",
"17 0 OFFCURVE",
"27 0 CURVE SMOOTH"
);
}
);
width = 531;
}
);
leftKerningGroup = H;
leftMetricsKey = H;
rightKerningGroup = K;
unicode = 004B;
},
{
glyphname = L;
lastChange = "2022-10-27 03:39:12 +0000";
layers = (
{
anchors = (
{
name = bottom;
position = "{183, 0}";
},
{
name = center;
position = "{221, 328}";
},
{
name = top;
position = "{162, 655}";
},
{
name = topright;
position = "{437, 655}";
}
);
layerId = "C7C49F0D-FB24-4177-B585-680F100D73B3";
paths = (
{
closed = 1;
nodes = (
"304 0 LINE SMOOTH",
"307 0 OFFCURVE",
"308 0 OFFCURVE",
"309 3 CURVE SMOOTH",
"311 12 LINE SMOOTH",
"312 16 OFFCURVE",
"310 16 OFFCURVE",
"308 16 CURVE SMOOTH",
"69 16 LINE",
"170 651 LINE SMOOTH",
"171 655 OFFCURVE",
"169 655 OFFCURVE",
"166 655 CURVE SMOOTH",
"159 655 LINE SMOOTH",
"156 655 OFFCURVE",
"155 655 OFFCURVE",
"154 651 CURVE SMOOTH",
"51 4 LINE SMOOTH",
"50 0 OFFCURVE",
"52 0 OFFCURVE",
"55 0 CURVE SMOOTH"
);
}
);
width = 358;
},
{
anchors = (
{
name = bottom;
position = "{176, 0}";
},
{
name = center;
position = "{217, 343}";
},
{
name = top;
position = "{173, 655}";
},
{
name = topright;
position = "{417, 655}";
}
);
layerId = "7BFDDD14-D104-4977-93DD-3DA2763EA456";
paths = (
{
closed = 1;
nodes = (
"307 0 LINE SMOOTH",
"313 0 OFFCURVE",
"316 3 OFFCURVE",
"317 9 CURVE SMOOTH",
"325 57 LINE SMOOTH",
"326 63 OFFCURVE",
"322 66 OFFCURVE",
"316 66 CURVE SMOOTH",
"114 66 LINE",
"206 646 LINE SMOOTH",
"207 652 OFFCURVE",
"204 655 OFFCURVE",
"198 655 CURVE SMOOTH",
"146 655 LINE SMOOTH",
"141 655 OFFCURVE",
"138 652 OFFCURVE",
"137 646 CURVE SMOOTH",
"36 9 LINE SMOOTH",
"35 3 OFFCURVE",
"38 0 OFFCURVE",
"44 0 CURVE SMOOTH"
);
}
);
width = 362;
},
{
anchors = (
{
name = bottom;
position = "{191, 0}";
},
{
name = center;
position = "{238, 329}";
},
{
name = top;
position = "{196, 655}";
},
{
name = topright;
position = "{483, 655}";
}
);
layerId = "84FABC8E-B1B3-42CE-8CB3-674F4218367A";
paths = (
{
closed = 1;
nodes = (
"359 0 LINE SMOOTH",
"367 0 OFFCURVE",
"372 6 OFFCURVE",
"373 15 CURVE SMOOTH",
"391 130 LINE SMOOTH",
"393 139 OFFCURVE",
"387 144 OFFCURVE",
"378 144 CURVE SMOOTH",
"194 144 LINE",
"273 640 LINE SMOOTH",
"274 650 OFFCURVE",
"269 655 OFFCURVE",
"260 655 CURVE SMOOTH",
"128 655 LINE SMOOTH",
"119 655 OFFCURVE",
"114 650 OFFCURVE",
"113 640 CURVE SMOOTH",
"13 15 LINE SMOOTH",
"11 5 OFFCURVE",
"17 0 OFFCURVE",
"25 0 CURVE SMOOTH"
);
}
);
width = 412;
}
);
leftKerningGroup = H;
leftMetricsKey = H;
rightKerningGroup = L;
unicode = 004C;
},
{
glyphname = Lslash;
lastChange = "2022-10-27 03:42:55 +0000";
layers = (
{
components = (
{
alignment = -1;
name = L;
}
);
layerId = "C7C49F0D-FB24-4177-B585-680F100D73B3";
paths = (
{
closed = 1;
nodes = (
"257 405 LINE SMOOTH",
"260 406 OFFCURVE",
"260 406 OFFCURVE",
"261 411 CURVE SMOOTH",
"262 419 LINE SMOOTH",
"263 424 OFFCURVE",
"261 424 OFFCURVE",
"258 422 CURVE SMOOTH",
"21 297 LINE SMOOTH",
"18 295 OFFCURVE",
"17 295 OFFCURVE",
"16 290 CURVE SMOOTH",
"15 282 LINE SMOOTH",
"14 277 OFFCURVE",
"17 278 OFFCURVE",
"19 280 CURVE SMOOTH"
);
}
);
width = 358;
},
{
components = (
{
alignment = -1;
name = L;
}
);
layerId = "7BFDDD14-D104-4977-93DD-3DA2763EA456";
paths = (
{
closed = 1;
nodes = (
"266 396 LINE SMOOTH",
"272 398 OFFCURVE",
"274 402 OFFCURVE",
"275 407 CURVE SMOOTH",
"283 456 LINE SMOOTH",
"284 463 OFFCURVE",
"280 465 OFFCURVE",
"275 463 CURVE SMOOTH",
"24 335 LINE SMOOTH",
"19 333 OFFCURVE",
"16 330 OFFCURVE",
"15 324 CURVE SMOOTH",
"8 274 LINE SMOOTH",
"7 267 OFFCURVE",
"10 265 OFFCURVE",
"16 268 CURVE SMOOTH"
);
}
);
width = 362;
},
{
components = (
{
alignment = -1;
name = L;
transform = "{1, 0, 0, 1, 4, 0}";
}
);
layerId = "84FABC8E-B1B3-42CE-8CB3-674F4218367A";
paths = (
{
closed = 1;
nodes = (
"310 341 LINE SMOOTH",
"318 343 OFFCURVE",
"324 349 OFFCURVE",
"325 357 CURVE SMOOTH",
"341 452 LINE SMOOTH",
"342 462 OFFCURVE",
"336 466 OFFCURVE",
"327 463 CURVE SMOOTH",
"39 362 LINE SMOOTH",
"31 359 OFFCURVE",
"26 354 OFFCURVE",
"25 346 CURVE SMOOTH",
"10 252 LINE SMOOTH",
"8 242 OFFCURVE",
"15 238 OFFCURVE",
"24 241 CURVE SMOOTH"
);
}
);
width = 416;
}
);
leftKerningGroup = Lslash;
rightKerningGroup = L;
rightMetricsKey = "=L";
unicode = 0141;
},
{
glyphname = M;
lastChange = "2022-10-27 03:39:12 +0000";
layers = (
{
layerId = "C7C49F0D-FB24-4177-B585-680F100D73B3";
paths = (
{
closed = 1;
nodes = (
"51 0 LINE SMOOTH",
"54 0 OFFCURVE",
"55 0 OFFCURVE",
"56 5 CURVE SMOOTH",
"148 523 LINE SMOOTH",
"155 561 OFFCURVE",
"160 593 OFFCURVE",
"167 632 CURVE",
"168 632 LINE",
"175 596 OFFCURVE",
"181 564 OFFCURVE",
"188 530 CURVE SMOOTH",
"277 131 LINE SMOOTH",
"278 128 OFFCURVE",
"278 128 OFFCURVE",
"280 128 CURVE SMOOTH",
"281 128 LINE SMOOTH",
"282 128 OFFCURVE",
"283 128 OFFCURVE",
"284 131 CURVE SMOOTH",
"498 526 LINE SMOOTH",
"517 561 OFFCURVE",
"534 596 OFFCURVE",
"553 632 CURVE",
"554 632 LINE",
"548 592 OFFCURVE",
"542 556 OFFCURVE",
"537 518 CURVE SMOOTH",
"465 5 LINE SMOOTH",
"464 0 OFFCURVE",
"466 0 OFFCURVE",
"469 0 CURVE SMOOTH",
"476 0 LINE SMOOTH",
"479 0 OFFCURVE",
"480 0 OFFCURVE",
"481 5 CURVE SMOOTH",
"572 650 LINE SMOOTH",
"573 655 OFFCURVE",
"570 655 OFFCURVE",
"567 655 CURVE SMOOTH",
"552 655 LINE SMOOTH",
"548 655 OFFCURVE",
"548 655 OFFCURVE",
"546 651 CURVE SMOOTH",
"286 167 LINE",
"180 651 LINE SMOOTH",
"179 655 OFFCURVE",
"178 655 OFFCURVE",
"175 655 CURVE SMOOTH",
"160 655 LINE SMOOTH",
"157 655 OFFCURVE",
"156 655 OFFCURVE",
"155 651 CURVE SMOOTH",
"40 5 LINE SMOOTH",
"39 0 OFFCURVE",
"41 0 OFFCURVE",
"44 0 CURVE SMOOTH"
);
}
);
width = 574;
},
{
layerId = "7BFDDD14-D104-4977-93DD-3DA2763EA456";
paths = (
{
closed = 1;
nodes = (
"84 0 LINE SMOOTH",
"89 0 OFFCURVE",
"92 3 OFFCURVE",
"94 9 CURVE SMOOTH",
"167 428 LINE SMOOTH",
"174 470 OFFCURVE",
"181 517 OFFCURVE",
"186 561 CURVE",
"188 561 LINE",
"193 518 OFFCURVE",
"200 472 OFFCURVE",
"207 433 CURVE SMOOTH",
"266 97 LINE SMOOTH",
"267 92 OFFCURVE",
"269 90 OFFCURVE",
"274 90 CURVE SMOOTH",
"277 90 LINE SMOOTH",
"281 90 OFFCURVE",
"285 92 OFFCURVE",
"287 97 CURVE SMOOTH",
"453 431 LINE SMOOTH",
"475 475 OFFCURVE",
"495 518 OFFCURVE",
"514 561 CURVE",
"516 561 LINE",
"507 516 OFFCURVE",
"499 469 OFFCURVE",
"492 426 CURVE SMOOTH",
"433 9 LINE SMOOTH",
"432 3 OFFCURVE",
"435 0 OFFCURVE",
"440 0 CURVE SMOOTH",
"492 0 LINE SMOOTH",
"497 0 OFFCURVE",
"500 3 OFFCURVE",
"501 9 CURVE SMOOTH",
"591 646 LINE SMOOTH",
"592 652 OFFCURVE",
"589 655 OFFCURVE",
"583 655 CURVE SMOOTH",
"499 655 LINE SMOOTH",
"492 655 OFFCURVE",
"490 652 OFFCURVE",
"487 646 CURVE SMOOTH",
"302 256 LINE",
"238 646 LINE SMOOTH",
"238 652 OFFCURVE",
"235 655 OFFCURVE",
"229 655 CURVE SMOOTH",
"146 655 LINE SMOOTH",
"141 655 OFFCURVE",
"138 652 OFFCURVE",
"136 646 CURVE SMOOTH",
"25 9 LINE SMOOTH",
"24 3 OFFCURVE",
"28 0 OFFCURVE",
"33 0 CURVE SMOOTH"
);
}
);
width = 582;
},
{
layerId = "84FABC8E-B1B3-42CE-8CB3-674F4218367A";
paths = (
{
closed = 1;
nodes = (
"149 0 LINE SMOOTH",
"157 0 OFFCURVE",
"162 6 OFFCURVE",
"163 15 CURVE SMOOTH",
"196 209 LINE SMOOTH",
"208 277 OFFCURVE",
"215 340 OFFCURVE",
"219 397 CURVE",
"222 397 LINE",
"230 350 OFFCURVE",
"242 298 OFFCURVE",
"255 252 CURVE SMOOTH",
"300 75 LINE SMOOTH",
"301 68 OFFCURVE",
"306 66 OFFCURVE",
"312 66 CURVE SMOOTH",
"316 66 LINE SMOOTH",
"322 66 OFFCURVE",
"326 68 OFFCURVE",
"330 75 CURVE SMOOTH",
"431 252 LINE SMOOTH",
"459 298 OFFCURVE",
"487 350 OFFCURVE",
"511 397 CURVE",
"514 397 LINE",
"500 339 OFFCURVE",
"484 262 OFFCURVE",
"476 209 CURVE SMOOTH",
"448 15 LINE SMOOTH",
"446 5 OFFCURVE",
"452 0 OFFCURVE",
"461 0 CURVE SMOOTH",
"592 0 LINE SMOOTH",
"600 0 OFFCURVE",
"606 6 OFFCURVE",
"607 15 CURVE SMOOTH",
"696 640 LINE SMOOTH",
"697 650 OFFCURVE",
"692 655 OFFCURVE",
"683 655 CURVE SMOOTH",
"528 655 LINE SMOOTH",
"521 655 OFFCURVE",
"516 650 OFFCURVE",
"511 640 CURVE SMOOTH",
"353 340 LINE",
"295 640 LINE SMOOTH",
"294 650 OFFCURVE",
"289 655 OFFCURVE",
"280 655 CURVE SMOOTH",
"128 655 LINE SMOOTH",
"119 655 OFFCURVE",
"115 650 OFFCURVE",
"114 640 CURVE SMOOTH",
"4 15 LINE SMOOTH",
"2 5 OFFCURVE",
"8 0 OFFCURVE",
"17 0 CURVE SMOOTH"
);
}
);
width = 666;
}
);
leftKerningGroup = M;
rightKerningGroup = M;
unicode = 004D;
},
{
glyphname = N;
lastChange = "2022-10-27 03:39:12 +0000";
layers = (
{
anchors = (
{
name = bottom;
position = "{218, 0}";
},
{
name = top;
position = "{323, 655}";
}
);
layerId = "C7C49F0D-FB24-4177-B585-680F100D73B3";
paths = (
{
closed = 1;
nodes = (
"62 0 LINE SMOOTH",
"65 0 OFFCURVE",
"66 0 OFFCURVE",
"67 5 CURVE",
"127 387 LINE SMOOTH",
"140 469 OFFCURVE",
"153 551 OFFCURVE",
"166 634 CURVE",
"167 634 LINE",
"193 551 OFFCURVE",
"219 469 OFFCURVE",
"245 386 CURVE SMOOTH",
"366 3 LINE SMOOTH",
"367 0 OFFCURVE",
"368 0 OFFCURVE",
"370 0 CURVE SMOOTH",
"384 0 LINE SMOOTH",
"387 0 OFFCURVE",
"388 0 OFFCURVE",
"389 4 CURVE SMOOTH",
"492 651 LINE SMOOTH",
"493 655 OFFCURVE",
"491 655 OFFCURVE",
"488 655 CURVE SMOOTH",
"481 655 LINE SMOOTH",
"478 655 OFFCURVE",
"477 655 OFFCURVE",
"476 651 CURVE SMOOTH",
"412 245 LINE SMOOTH",
"400 170 OFFCURVE",
"388 96 OFFCURVE",
"376 21 CURVE",
"375 21 LINE",
"352 97 OFFCURVE",
"328 173 OFFCURVE",
"305 248 CURVE SMOOTH",
"177 651 LINE SMOOTH",
"176 654 OFFCURVE",
"175 655 OFFCURVE",
"172 655 CURVE SMOOTH",
"159 655 LINE SMOOTH",
"156 655 OFFCURVE",
"155 655 OFFCURVE",
"154 651 CURVE SMOOTH",
"51 5 LINE SMOOTH",
"50 0 OFFCURVE",
"52 0 OFFCURVE",
"55 0 CURVE SMOOTH"
);
}
);
width = 498;
},
{
anchors = (
{
name = bottom;
position = "{218, 0}";
},
{
name = top;
position = "{320, 655}";
}
);
layerId = "7BFDDD14-D104-4977-93DD-3DA2763EA456";
paths = (
{
closed = 1;
nodes = (
"95 0 LINE SMOOTH",
"100 0 OFFCURVE",
"103 3 OFFCURVE",
"104 9 CURVE",
"162 378 LINE SMOOTH",
"172 441 OFFCURVE",
"182 509 OFFCURVE",
"190 570 CURVE",
"192 570 LINE",
"202 513 OFFCURVE",
"213 445 OFFCURVE",
"225 385 CURVE SMOOTH",
"303 9 LINE SMOOTH",
"304 3 OFFCURVE",
"308 0 OFFCURVE",
"313 0 CURVE SMOOTH",
"398 0 LINE SMOOTH",
"403 0 OFFCURVE",
"406 3 OFFCURVE",
"407 9 CURVE SMOOTH",
"508 646 LINE SMOOTH",
"509 652 OFFCURVE",
"506 655 OFFCURVE",
"500 655 CURVE SMOOTH",
"450 655 LINE SMOOTH",
"444 655 OFFCURVE",
"441 652 OFFCURVE",
"440 646 CURVE SMOOTH",
"378 258 LINE SMOOTH",
"370 205 OFFCURVE",
"361 137 OFFCURVE",
"354 85 CURVE",
"353 85 LINE",
"344 140 OFFCURVE",
"334 203 OFFCURVE",
"323 256 CURVE SMOOTH",
"242 646 LINE SMOOTH",
"241 652 OFFCURVE",
"238 655 OFFCURVE",
"233 655 CURVE SMOOTH",
"146 655 LINE SMOOTH",
"141 655 OFFCURVE",
"138 652 OFFCURVE",
"137 646 CURVE SMOOTH",
"36 9 LINE SMOOTH",
"35 3 OFFCURVE",
"38 0 OFFCURVE",
"44 0 CURVE SMOOTH"
);
}
);
width = 500;
},
{
anchors = (
{
name = bottom;
position = "{247, 0}";
},
{
name = top;
position = "{350, 655}";
}
);
layerId = "84FABC8E-B1B3-42CE-8CB3-674F4218367A";
paths = (
{
closed = 1;
nodes = (
"152 0 LINE SMOOTH",
"160 0 OFFCURVE",
"166 6 OFFCURVE",
"167 15 CURVE SMOOTH",
"197 206 LINE SMOOTH",
"208 273 OFFCURVE",
"217 358 OFFCURVE",
"220 421 CURVE",
"223 421 LINE",
"231 369 OFFCURVE",
"243 284 OFFCURVE",
"261 195 CURVE SMOOTH",
"300 15 LINE SMOOTH",
"302 4 OFFCURVE",
"307 0 OFFCURVE",
"316 0 CURVE SMOOTH",
"470 0 LINE SMOOTH",
"479 0 OFFCURVE",
"484 6 OFFCURVE",
"485 15 CURVE SMOOTH",
"585 640 LINE SMOOTH",
"587 650 OFFCURVE",
"581 655 OFFCURVE",
"572 655 CURVE SMOOTH",
"446 655 LINE SMOOTH",
"437 655 OFFCURVE",
"433 650 OFFCURVE",
"431 640 CURVE SMOOTH",
"399 437 LINE SMOOTH",
"389 377 OFFCURVE",
"381 292 OFFCURVE",
"379 227 CURVE",
"376 227 LINE",
"368 280 OFFCURVE",
"357 333 OFFCURVE",
"345 386 CURVE SMOOTH",
"298 640 LINE SMOOTH",
"296 650 OFFCURVE",
"292 655 OFFCURVE",
"282 655 CURVE SMOOTH",
"127 655 LINE SMOOTH",
"119 655 OFFCURVE",
"114 650 OFFCURVE",
"113 640 CURVE SMOOTH",
"13 15 LINE SMOOTH",
"11 5 OFFCURVE",
"16 0 OFFCURVE",
"26 0 CURVE SMOOTH"
);
}
);
width = 553;
}
);
leftKerningGroup = H;
leftMetricsKey = H;
rightKerningGroup = H;
rightMetricsKey = H;
unicode = 004E;
},
{
glyphname = Eng;
lastChange = "2022-10-27 03:39:12 +0000";
layers = (
{
layerId = "C7C49F0D-FB24-4177-B585-680F100D73B3";
paths = (
{
closed = 1;
nodes = (
"349 -113 OFFCURVE",
"378 -66 OFFCURVE",
"394 32 CURVE SMOOTH",
"492 651 LINE SMOOTH",
"493 655 OFFCURVE",
"491 655 OFFCURVE",
"488 655 CURVE SMOOTH",
"481 655 LINE SMOOTH",
"478 655 OFFCURVE",
"477 655 OFFCURVE",
"476 651 CURVE SMOOTH",
"401 178 LINE SMOOTH",
"393 126 OFFCURVE",
"385 74 OFFCURVE",
"376 21 CURVE",
"375 21 LINE",
"357 74 OFFCURVE",
"339 126 OFFCURVE",
"319 177 CURVE SMOOTH",
"177 651 LINE SMOOTH",
"176 654 OFFCURVE",
"175 655 OFFCURVE",
"172 655 CURVE SMOOTH",
"159 655 LINE SMOOTH",
"156 655 OFFCURVE",
"155 655 OFFCURVE",
"154 651 CURVE SMOOTH",
"51 5 LINE SMOOTH",
"50 0 OFFCURVE",
"52 0 OFFCURVE",
"55 0 CURVE SMOOTH",
"62 0 LINE SMOOTH",
"65 0 OFFCURVE",
"66 0 OFFCURVE",
"67 5 CURVE SMOOTH",
"139 463 LINE SMOOTH",
"148 520 OFFCURVE",
"157 577 OFFCURVE",
"166 634 CURVE",
"167 634 LINE",
"187 577 OFFCURVE",
"208 521 OFFCURVE",
"228 465 CURVE SMOOTH",
"366 3 LINE SMOOTH",
"367 0 OFFCURVE",
"368 0 OFFCURVE",
"370 0 CURVE SMOOTH",
"372 0 LINE",
"355 -69 OFFCURVE",
"325 -110 OFFCURVE",
"263 -155 CURVE SMOOTH",
"261 -156 OFFCURVE",
"261 -157 OFFCURVE",
"262 -159 CURVE SMOOTH",
"267 -168 LINE SMOOTH",
"268 -170 OFFCURVE",
"270 -170 OFFCURVE",
"272 -168 CURVE SMOOTH"
);
}
);
width = 498;
},
{
layerId = "7BFDDD14-D104-4977-93DD-3DA2763EA456";
paths = (
{
closed = 1;
nodes = (
"365 -153 OFFCURVE",
"395 -63 OFFCURVE",
"413 47 CURVE SMOOTH",
"508 646 LINE SMOOTH",
"509 652 OFFCURVE",
"506 655 OFFCURVE",
"500 655 CURVE SMOOTH",
"450 655 LINE SMOOTH",
"444 655 OFFCURVE",
"441 652 OFFCURVE",
"440 646 CURVE SMOOTH",
"377 248 LINE SMOOTH",
"369 198 OFFCURVE",
"361 134 OFFCURVE",
"354 85 CURVE",
"353 85 LINE",
"344 137 OFFCURVE",
"336 196 OFFCURVE",
"325 247 CURVE SMOOTH",
"242 646 LINE SMOOTH",
"241 652 OFFCURVE",
"238 655 OFFCURVE",
"233 655 CURVE SMOOTH",
"146 655 LINE SMOOTH",
"141 655 OFFCURVE",
"138 652 OFFCURVE",
"137 646 CURVE SMOOTH",
"36 9 LINE SMOOTH",
"35 3 OFFCURVE",
"38 0 OFFCURVE",
"44 0 CURVE SMOOTH",
"95 0 LINE SMOOTH",
"100 0 OFFCURVE",
"103 3 OFFCURVE",
"104 9 CURVE SMOOTH",
"164 389 LINE SMOOTH",
"173 449 OFFCURVE",
"182 514 OFFCURVE",
"190 570 CURVE",
"192 570 LINE",
"201 516 OFFCURVE",
"211 453 OFFCURVE",
"223 397 CURVE SMOOTH",
"303 9 LINE SMOOTH",
"304 3 OFFCURVE",
"308 0 OFFCURVE",
"313 0 CURVE SMOOTH",
"334 0 LINE",
"319 -65 OFFCURVE",
"296 -108 OFFCURVE",
"260 -138 CURVE SMOOTH",
"255 -142 OFFCURVE",
"255 -146 OFFCURVE",
"259 -151 CURVE SMOOTH",
"288 -190 LINE SMOOTH",
"291 -193 OFFCURVE",
"295 -195 OFFCURVE",
"299 -192 CURVE SMOOTH"
);
}
);
width = 500;
},
{
layerId = "84FABC8E-B1B3-42CE-8CB3-674F4218367A";
paths = (
{
closed = 1;
nodes = (
"442 -128 OFFCURVE",
"474 -61 OFFCURVE",
"497 86 CURVE SMOOTH",
"586 640 LINE SMOOTH",
"587 650 OFFCURVE",
"582 655 OFFCURVE",
"573 655 CURVE SMOOTH",
"446 655 LINE SMOOTH",
"438 655 OFFCURVE",
"433 650 OFFCURVE",
"432 640 CURVE SMOOTH",
"399 437 LINE SMOOTH",
"389 371 OFFCURVE",
"381 292 OFFCURVE",
"379 227 CURVE",
"376 227 LINE",
"368 280 OFFCURVE",
"358 332 OFFCURVE",
"345 386 CURVE SMOOTH",
"298 640 LINE SMOOTH",
"296 650 OFFCURVE",
"292 655 OFFCURVE",
"282 655 CURVE SMOOTH",
"127 655 LINE SMOOTH",
"119 655 OFFCURVE",
"114 650 OFFCURVE",
"113 640 CURVE SMOOTH",
"13 15 LINE SMOOTH",
"11 5 OFFCURVE",
"16 0 OFFCURVE",
"26 0 CURVE SMOOTH",
"152 0 LINE SMOOTH",
"160 0 OFFCURVE",
"166 6 OFFCURVE",
"167 15 CURVE SMOOTH",
"197 207 LINE SMOOTH",
"208 273 OFFCURVE",
"217 358 OFFCURVE",
"220 421 CURVE",
"223 421 LINE",
"231 369 OFFCURVE",
"243 284 OFFCURVE",
"261 196 CURVE SMOOTH",
"300 15 LINE SMOOTH",
"302 4 OFFCURVE",
"307 0 OFFCURVE",
"316 0 CURVE SMOOTH",
"324 0 LINE",
"314 -35 OFFCURVE",
"293 -60 OFFCURVE",
"266 -79 CURVE SMOOTH",
"258 -84 OFFCURVE",
"259 -92 OFFCURVE",
"263 -98 CURVE SMOOTH",
"325 -186 LINE SMOOTH",
"329 -191 OFFCURVE",
"335 -193 OFFCURVE",
"341 -189 CURVE SMOOTH"
);
}
);
width = 554;
}
);
leftKerningGroup = H;
leftMetricsKey = H;
rightKerningGroup = H;
rightMetricsKey = H;
unicode = 014A;
},
{
glyphname = O;
lastChange = "2022-10-27 03:39:12 +0000";
layers = (
{
anchors = (
{
name = bottom;
position = "{210, 0}";
},
{
name = center;
position = "{262, 328}";
},
{
name = ogonek;
position = "{404, 10}";
},
{
name = top;
position = "{313, 655}";
},
{
name = topleft;
position = "{94, 655}";
},
{
name = topright;
position = "{534, 655}";
}
);
layerId = "C7C49F0D-FB24-4177-B585-680F100D73B3";
paths = (
{
closed = 1;
nodes = (
"329 -8 OFFCURVE",
"390 47 OFFCURVE",
"409 172 CURVE SMOOTH",
"455 460 LINE SMOOTH",
"477 597 OFFCURVE",
"419 663 OFFCURVE",
"306 663 CURVE SMOOTH",
"195 663 OFFCURVE",
"134 608 OFFCURVE",
"114 483 CURVE SMOOTH",
"68 195 LINE SMOOTH",
"47 59 OFFCURVE",
"106 -8 OFFCURVE",
"218 -8 CURVE SMOOTH"
);
},
{
closed = 1;
nodes = (
"116 8 OFFCURVE",
"64 68 OFFCURVE",
"84 196 CURVE SMOOTH",
"130 482 LINE SMOOTH",
"148 597 OFFCURVE",
"203 647 OFFCURVE",
"305 647 CURVE SMOOTH",
"409 647 OFFCURVE",
"460 587 OFFCURVE",
"439 460 CURVE SMOOTH",
"393 173 LINE SMOOTH",
"375 58 OFFCURVE",
"320 8 OFFCURVE",
"219 8 CURVE SMOOTH"
);
}
);
width = 479;
},
{
anchors = (
{
name = bottom;
position = "{204, 0}";
},
{
name = center;
position = "{256, 328}";
},
{
name = ogonek;
position = "{397, 10}";
},
{
name = top;
position = "{313, 655}";
},
{
name = topleft;
position = "{106, 655}";
},
{
name = topright;
position = "{529, 655}";
}
);
layerId = "7BFDDD14-D104-4977-93DD-3DA2763EA456";
paths = (
{
closed = 1;
nodes = (
"342 -8 OFFCURVE",
"408 56 OFFCURVE",
"429 189 CURVE SMOOTH",
"471 449 LINE SMOOTH",
"492 585 OFFCURVE",
"434 663 OFFCURVE",
"310 663 CURVE SMOOTH",
"185 663 OFFCURVE",
"120 599 OFFCURVE",
"98 466 CURVE SMOOTH",
"57 205 LINE SMOOTH",
"36 70 OFFCURVE",
"94 -8 OFFCURVE",
"217 -8 CURVE SMOOTH"
);
},
{
closed = 1;
nodes = (
"145 57 OFFCURVE",
"110 105 OFFCURVE",
"126 206 CURVE SMOOTH",
"167 464 LINE SMOOTH",
"182 557 OFFCURVE",
"224 598 OFFCURVE",
"303 598 CURVE SMOOTH",
"382 598 OFFCURVE",
"418 550 OFFCURVE",
"402 449 CURVE SMOOTH",
"360 190 LINE SMOOTH",
"346 97 OFFCURVE",
"304 57 OFFCURVE",
"225 57 CURVE SMOOTH"
);
}
);
width = 483;
},
{
anchors = (
{
name = bottom;
position = "{235, 0}";
},
{
name = center;
position = "{287, 328}";
},
{
name = ogonek;
position = "{452, 10}";
},
{
name = top;
position = "{347, 655}";
},
{
name = topleft;
position = "{92, 655}";
},
{
name = topright;
position = "{589.997, 655}";
}
);
layerId = "84FABC8E-B1B3-42CE-8CB3-674F4218367A";
paths = (
{
closed = 1;
nodes = (
"409 -8 OFFCURVE",
"493 67 OFFCURVE",
"519 230 CURVE SMOOTH",
"547 405 LINE SMOOTH",
"573 572 OFFCURVE",
"496 663 OFFCURVE",
"334 663 CURVE SMOOTH",
"179 663 OFFCURVE",
"95 588 OFFCURVE",
"69 425 CURVE SMOOTH",
"41 250 LINE SMOOTH",
"14 83 OFFCURVE",
"91 -8 OFFCURVE",
"253 -8 CURVE SMOOTH"
);
},
{
closed = 1;
nodes = (
"210 138 OFFCURVE",
"188 173 OFFCURVE",
"201 251 CURVE SMOOTH",
"227 416 LINE SMOOTH",
"239 489 OFFCURVE",
"266 518 OFFCURVE",
"319 518 CURVE SMOOTH",
"378 517 OFFCURVE",
"399 483 OFFCURVE",
"387 404 CURVE SMOOTH",
"360 239 LINE SMOOTH",
"349 166 OFFCURVE",
"322 137 OFFCURVE",
"269 137 CURVE SMOOTH"
);
}
);
width = 542;
}
);
leftKerningGroup = O;
rightKerningGroup = O;
unicode = 004F;
},
{
glyphname = Oslash;
lastChange = "2022-10-27 03:39:12 +0000";
layers = (
{
anchors = (
{
name = top;
position = "{294, 655}";
}
);
components = (
{
alignment = -1;
name = O;
}
);
layerId = "C7C49F0D-FB24-4177-B585-680F100D73B3";
paths = (
{
closed = 1;
nodes = (
"28 -48 LINE SMOOTH",
"31 -48 OFFCURVE",
"32 -48 OFFCURVE",
"34 -44 CURVE SMOOTH",
"94 49 LINE",
"99 56 LINE",
"434 588 LINE",
"438 594 LINE",
"506 699 LINE SMOOTH",
"508 702 OFFCURVE",
"507 703 OFFCURVE",
"504 703 CURVE SMOOTH",
"494 703 LINE SMOOTH",
"492 703 OFFCURVE",
"491 703 OFFCURVE",
"489 699 CURVE SMOOTH",
"429 605 LINE",
"424 599 LINE",
"91 70 LINE",
"87 64 LINE",
"18 -44 LINE SMOOTH",
"16 -46 OFFCURVE",
"16 -48 OFFCURVE",
"19 -48 CURVE SMOOTH"
);
}
);
width = 479;
},
{
anchors = (
{
name = top;
position = "{310, 655}";
}
);
components = (
{
alignment = -1;
name = O;
}
);
layerId = "7BFDDD14-D104-4977-93DD-3DA2763EA456";
paths = (
{
closed = 1;
nodes = (
"56 -50 LINE SMOOTH",
"62 -50 OFFCURVE",
"65 -47 OFFCURVE",
"68 -42 CURVE SMOOTH",
"120 42 LINE",
"136 69 LINE",
"427 541 LINE",
"444 570 LINE",
"523 696 LINE SMOOTH",
"526 701 OFFCURVE",
"523 705 OFFCURVE",
"517 705 CURVE SMOOTH",
"469 705 LINE SMOOTH",
"464 705 OFFCURVE",
"460 702 OFFCURVE",
"457 696 CURVE SMOOTH",
"407 615 LINE",
"391 590 LINE",
"103 121 LINE",
"85 90 LINE",
"4 -40 LINE SMOOTH",
"1 -45 OFFCURVE",
"2 -50 OFFCURVE",
"8 -50 CURVE SMOOTH"
);
}
);
width = 483;
},
{
anchors = (
{
name = top;
position = "{338, 655}";
}
);
components = (
{
alignment = -1;
name = O;
}
);
layerId = "84FABC8E-B1B3-42CE-8CB3-674F4218367A";
paths = (
{
closed = 1;
nodes = (
"127 -50 LINE SMOOTH",
"135 -50 OFFCURVE",
"140 -46 OFFCURVE",
"145 -36 CURVE SMOOTH",
"184 33 LINE",
"222 121 LINE",
"420 465 LINE",
"501 571 LINE",
"570 690 LINE SMOOTH",
"575 699 OFFCURVE",
"572 705 OFFCURVE",
"561 705 CURVE SMOOTH",
"462 705 LINE SMOOTH",
"454 705 OFFCURVE",
"449 701 OFFCURVE",
"444 690 CURVE SMOOTH",
"406 625 LINE",
"370 537 LINE",
"173 201 LINE",
"92 89 LINE",
"19 -35 LINE SMOOTH",
"15 -43 OFFCURVE",
"19 -50 OFFCURVE",
"27 -50 CURVE SMOOTH"
);
}
);
width = 542;
}
);
leftKerningGroup = O;
rightKerningGroup = O;
unicode = 00D8;
},
{
glyphname = OE;
lastChange = "2022-10-27 03:39:12 +0000";
layers = (
{
layerId = "C7C49F0D-FB24-4177-B585-680F100D73B3";
paths = (
{
closed = 1;
nodes = (
"251 -8 OFFCURVE",
"274 -4 OFFCURVE",
"295 0 CURVE",
"550 0 LINE SMOOTH",
"553 0 OFFCURVE",
"554 0 OFFCURVE",
"555 3 CURVE SMOOTH",
"557 12 LINE SMOOTH",
"558 16 OFFCURVE",
"556 16 OFFCURVE",
"554 16 CURVE SMOOTH",
"311 16 LINE",
"361 328 LINE",
"586 328 LINE SMOOTH",
"589 328 OFFCURVE",
"590 328 OFFCURVE",
"591 331 CURVE SMOOTH",
"593 340 LINE SMOOTH",
"594 344 OFFCURVE",
"592 344 OFFCURVE",
"590 344 CURVE SMOOTH",
"364 344 LINE",
"410 639 LINE",
"651 639 LINE SMOOTH",
"654 639 OFFCURVE",
"655 639 OFFCURVE",
"656 642 CURVE SMOOTH",
"658 651 LINE SMOOTH",
"659 655 OFFCURVE",
"657 655 OFFCURVE",
"655 655 CURVE SMOOTH",
"397 655 LINE",
"373 659 OFFCURVE",
"341 663 OFFCURVE",
"302 663 CURVE SMOOTH",
"192 663 OFFCURVE",
"134 608 OFFCURVE",
"114 483 CURVE SMOOTH",
"68 195 LINE SMOOTH",
"47 59 OFFCURVE",
"109 -8 OFFCURVE",
"221 -8 CURVE SMOOTH"
);
},
{
closed = 1;
nodes = (
"119 8 OFFCURVE",
"64 68 OFFCURVE",
"84 196 CURVE SMOOTH",
"130 482 LINE SMOOTH",
"148 596 OFFCURVE",
"200 647 OFFCURVE",
"301 647 CURVE SMOOTH",
"340 647 OFFCURVE",
"372 644 OFFCURVE",
"394 639 CURVE",
"295 16 LINE",
"273 11 OFFCURVE",
"250 8 OFFCURVE",
"222 8 CURVE SMOOTH"
);
}
);
width = 646;
},
{
layerId = "7BFDDD14-D104-4977-93DD-3DA2763EA456";
paths = (
{
closed = 1;
nodes = (
"239 -8 OFFCURVE",
"267 -5 OFFCURVE",
"287 0 CURVE",
"563 0 LINE SMOOTH",
"569 0 OFFCURVE",
"572 3 OFFCURVE",
"573 9 CURVE SMOOTH",
"581 57 LINE SMOOTH",
"582 63 OFFCURVE",
"579 66 OFFCURVE",
"573 66 CURVE SMOOTH",
"365 66 LINE",
"402 302 LINE",
"594 302 LINE SMOOTH",
"599 302 OFFCURVE",
"603 305 OFFCURVE",
"604 311 CURVE SMOOTH",
"611 356 LINE SMOOTH",
"612 362 OFFCURVE",
"609 366 OFFCURVE",
"603 366 CURVE SMOOTH",
"412 366 LINE",
"448 589 LINE",
"657 589 LINE SMOOTH",
"662 589 OFFCURVE",
"665 592 OFFCURVE",
"666 598 CURVE SMOOTH",
"675 646 LINE SMOOTH",
"676 652 OFFCURVE",
"673 655 OFFCURVE",
"667 655 CURVE SMOOTH",
"391 655 LINE",
"372 659 OFFCURVE",
"336 663 OFFCURVE",
"309 663 CURVE SMOOTH",
"185 663 OFFCURVE",
"119 596 OFFCURVE",
"98 466 CURVE SMOOTH",
"57 203 LINE SMOOTH",
"36 65 OFFCURVE",
"92 -8 OFFCURVE",
"213 -8 CURVE SMOOTH"
);
},
{
closed = 1;
nodes = (
"146 57 OFFCURVE",
"110 105 OFFCURVE",
"126 205 CURVE SMOOTH",
"167 463 LINE SMOOTH",
"182 554 OFFCURVE",
"221 598 OFFCURVE",
"300 598 CURVE SMOOTH",
"329 598 OFFCURVE",
"359 595 OFFCURVE",
"379 591 CURVE",
"296 66 LINE",
"276 60 OFFCURVE",
"251 57 OFFCURVE",
"223 57 CURVE SMOOTH"
);
}
);
width = 654;
},
{
layerId = "84FABC8E-B1B3-42CE-8CB3-674F4218367A";
paths = (
{
closed = 1;
nodes = (
"275 -8 OFFCURVE",
"301 -4 OFFCURVE",
"319 0 CURVE",
"658 0 LINE SMOOTH",
"667 0 OFFCURVE",
"672 6 OFFCURVE",
"673 15 CURVE SMOOTH",
"691 130 LINE SMOOTH",
"692 138 OFFCURVE",
"687 144 OFFCURVE",
"678 144 CURVE SMOOTH",
"476 144 LINE",
"495 261 LINE",
"680 261 LINE SMOOTH",
"689 261 OFFCURVE",
"694 267 OFFCURVE",
"695 276 CURVE SMOOTH",
"712 383 LINE SMOOTH",
"714 393 OFFCURVE",
"709 398 OFFCURVE",
"699 398 CURVE SMOOTH",
"516 398 LINE",
"534 511 LINE",
"739 511 LINE SMOOTH",
"748 511 OFFCURVE",
"753 518 OFFCURVE",
"754 526 CURVE SMOOTH",
"772 640 LINE SMOOTH",
"774 650 OFFCURVE",
"768 655 OFFCURVE",
"759 655 CURVE SMOOTH",
"421 655 LINE",
"399 659 OFFCURVE",
"363 663 OFFCURVE",
"332 663 CURVE SMOOTH",
"179 663 OFFCURVE",
"95 587 OFFCURVE",
"69 424 CURVE SMOOTH",
"41 249 LINE SMOOTH",
"15 83 OFFCURVE",
"96 -8 OFFCURVE",
"242 -8 CURVE SMOOTH"
);
},
{
closed = 1;
nodes = (
"210 137 OFFCURVE",
"189 173 OFFCURVE",
"201 250 CURVE SMOOTH",
"228 416 LINE SMOOTH",
"239 488 OFFCURVE",
"266 518 OFFCURVE",
"319 518 CURVE SMOOTH",
"340 518 OFFCURVE",
"361 514 OFFCURVE",
"373 510 CURVE",
"314 144 LINE",
"303 139 OFFCURVE",
"289 137 OFFCURVE",
"270 137 CURVE SMOOTH"
);
}
);
width = 733;
}
);
leftKerningGroup = O;
leftMetricsKey = O;
rightKerningGroup = E;
rightMetricsKey = E;
unicode = 0152;
},
{
glyphname = P;
lastChange = "2022-10-27 03:39:12 +0000";
layers = (
{
layerId = "C7C49F0D-FB24-4177-B585-680F100D73B3";
paths = (
{
closed = 1;
nodes = (
"62 0 LINE SMOOTH",
"65 0 OFFCURVE",
"66 0 OFFCURVE",
"67 5 CURVE SMOOTH",
"110 277 LINE",
"200 277 LINE SMOOTH",
"347 277 OFFCURVE",
"413 373 OFFCURVE",
"413 512 CURVE SMOOTH",
"413 616 OFFCURVE",
"349 655 OFFCURVE",
"244 655 CURVE SMOOTH",
"159 655 LINE SMOOTH",
"156 655 OFFCURVE",
"155 655 OFFCURVE",
"154 651 CURVE SMOOTH",
"51 5 LINE SMOOTH",
"50 0 OFFCURVE",
"52 0 OFFCURVE",
"55 0 CURVE SMOOTH"
);
},
{
closed = 1;
nodes = (
"168 639 LINE",
"244 639 LINE SMOOTH",
"338 639 OFFCURVE",
"397 607 OFFCURVE",
"397 511 CURVE SMOOTH",
"397 385 OFFCURVE",
"340 293 OFFCURVE",
"200 293 CURVE SMOOTH",
"113 293 LINE"
);
}
);
width = 406;
},
{
layerId = "7BFDDD14-D104-4977-93DD-3DA2763EA456";
paths = (
{
closed = 1;
nodes = (
"95 0 LINE SMOOTH",
"100 0 OFFCURVE",
"104 3 OFFCURVE",
"105 9 CURVE SMOOTH",
"143 252 LINE",
"205 252 LINE SMOOTH",
"346 252 OFFCURVE",
"430 345 OFFCURVE",
"430 501 CURVE SMOOTH",
"430 603 OFFCURVE",
"377 655 OFFCURVE",
"259 655 CURVE SMOOTH",
"147 655 LINE SMOOTH",
"141 655 OFFCURVE",
"138 652 OFFCURVE",
"137 646 CURVE SMOOTH",
"36 9 LINE SMOOTH",
"35 4 OFFCURVE",
"38 0 OFFCURVE",
"44 0 CURVE SMOOTH"
);
},
{
closed = 1;
nodes = (
"197 591 LINE",
"253 591 LINE SMOOTH",
"324 591 OFFCURVE",
"359 563 OFFCURVE",
"359 494 CURVE SMOOTH",
"359 380 OFFCURVE",
"308 317 OFFCURVE",
"210 317 CURVE SMOOTH",
"153 317 LINE"
);
}
);
width = 413;
},
{
layerId = "84FABC8E-B1B3-42CE-8CB3-674F4218367A";
paths = (
{
closed = 1;
nodes = (
"158 0 LINE SMOOTH",
"166 0 OFFCURVE",
"172 6 OFFCURVE",
"173 15 CURVE SMOOTH",
"204 206 LINE",
"247 206 LINE SMOOTH",
"406 206 OFFCURVE",
"500 308 OFFCURVE",
"500 472 CURVE SMOOTH",
"500 596 OFFCURVE",
"431 655 OFFCURVE",
"285 655 CURVE SMOOTH",
"127 655 LINE SMOOTH",
"119 655 OFFCURVE",
"114 650 OFFCURVE",
"113 640 CURVE SMOOTH",
"13 15 LINE SMOOTH",
"12 5 OFFCURVE",
"16 0 OFFCURVE",
"27 0 CURVE SMOOTH"
);
},
{
closed = 1;
nodes = (
"252 511 LINE",
"281 511 LINE SMOOTH",
"318 511 OFFCURVE",
"337 495 OFFCURVE",
"337 456 CURVE SMOOTH",
"337 390 OFFCURVE",
"307 349 OFFCURVE",
"256 349 CURVE SMOOTH",
"226 349 LINE"
);
}
);
width = 478;
}
);
leftKerningGroup = H;
leftMetricsKey = H;
rightKerningGroup = P;
unicode = 0050;
},
{
glyphname = Thorn;
lastChange = "2022-10-27 03:39:12 +0000";
layers = (
{
layerId = "C7C49F0D-FB24-4177-B585-680F100D73B3";
paths = (
{
closed = 1;
nodes = (
"62 0 LINE SMOOTH",
"65 0 OFFCURVE",
"66 0 OFFCURVE",
"67 5 CURVE SMOOTH",
"90 150 LINE",
"180 150 LINE SMOOTH",
"327 150 OFFCURVE",
"393 246 OFFCURVE",
"393 385 CURVE SMOOTH",
"393 489 OFFCURVE",
"329 528 OFFCURVE",
"224 528 CURVE SMOOTH",
"150 528 LINE",
"170 651 LINE SMOOTH",
"171 655 OFFCURVE",
"169 655 OFFCURVE",
"166 655 CURVE SMOOTH",
"159 655 LINE SMOOTH",
"156 655 OFFCURVE",
"155 655 OFFCURVE",
"154 651 CURVE SMOOTH",
"51 5 LINE SMOOTH",
"50 0 OFFCURVE",
"52 0 OFFCURVE",
"55 0 CURVE SMOOTH"
);
},
{
closed = 1;
nodes = (
"148 512 LINE",
"224 512 LINE SMOOTH",
"318 512 OFFCURVE",
"377 480 OFFCURVE",
"377 384 CURVE SMOOTH",
"377 258 OFFCURVE",
"320 166 OFFCURVE",
"180 166 CURVE SMOOTH",
"93 166 LINE"
);
}
);
width = 406;
},
{
layerId = "7BFDDD14-D104-4977-93DD-3DA2763EA456";
paths = (
{
closed = 1;
nodes = (
"95 0 LINE SMOOTH",
"100 0 OFFCURVE",
"104 3 OFFCURVE",
"105 9 CURVE SMOOTH",
"125 138 LINE",
"187 138 LINE SMOOTH",
"328 138 OFFCURVE",
"412 232 OFFCURVE",
"412 387 CURVE SMOOTH",
"412 490 OFFCURVE",
"359 541 OFFCURVE",
"241 541 CURVE SMOOTH",
"189 541 LINE",
"206 646 LINE SMOOTH",
"207 652 OFFCURVE",
"204 655 OFFCURVE",
"199 655 CURVE SMOOTH",
"146 655 LINE SMOOTH",
"141 655 OFFCURVE",
"138 652 OFFCURVE",
"137 646 CURVE SMOOTH",
"36 9 LINE SMOOTH",
"35 3 OFFCURVE",
"38 0 OFFCURVE",
"44 0 CURVE SMOOTH"
);
},
{
closed = 1;
nodes = (
"179 477 LINE",
"236 477 LINE SMOOTH",
"306 477 OFFCURVE",
"342 449 OFFCURVE",
"342 381 CURVE SMOOTH",
"342 266 OFFCURVE",
"290 203 OFFCURVE",
"193 203 CURVE SMOOTH",
"136 203 LINE"
);
}
);
width = 413;
},
{
layerId = "84FABC8E-B1B3-42CE-8CB3-674F4218367A";
paths = (
{
closed = 1;
nodes = (
"158 0 LINE SMOOTH",
"166 0 OFFCURVE",
"172 6 OFFCURVE",
"173 15 CURVE SMOOTH",
"189 114 LINE",
"232 114 LINE SMOOTH",
"391 114 OFFCURVE",
"485 215 OFFCURVE",
"485 380 CURVE SMOOTH",
"485 501 OFFCURVE",
"420 560 OFFCURVE",
"280 562 CURVE SMOOTH",
"261 562 LINE",
"273 640 LINE SMOOTH",
"274 650 OFFCURVE",
"269 655 OFFCURVE",
"260 655 CURVE SMOOTH",
"127 655 LINE SMOOTH",
"119 655 OFFCURVE",
"114 650 OFFCURVE",
"113 640 CURVE SMOOTH",
"13 15 LINE SMOOTH",
"11 5 OFFCURVE",
"17 0 OFFCURVE",
"27 0 CURVE SMOOTH"
);
},
{
closed = 1;
nodes = (
"237 419 LINE",
"266 419 LINE SMOOTH",
"303 419 OFFCURVE",
"322 403 OFFCURVE",
"322 363 CURVE SMOOTH",
"322 298 OFFCURVE",
"292 257 OFFCURVE",
"241 257 CURVE SMOOTH",
"212 257 LINE"
);
}
);
width = 477;
}
);
leftKerningGroup = H;
leftMetricsKey = H;
rightKerningGroup = Thorn;
rightMetricsKey = P;
unicode = 00DE;
},
{
glyphname = Q;
lastChange = "2022-10-27 03:39:12 +0000";
layers = (
{
components = (
{
alignment = -1;
name = O;
}
);
layerId = "C7C49F0D-FB24-4177-B585-680F100D73B3";
paths = (
{
closed = 1;
nodes = (
"285 -172 OFFCURVE",
"296 -170 OFFCURVE",
"304 -166 CURVE SMOOTH",
"306 -165 OFFCURVE",
"307 -165 OFFCURVE",
"308 -160 CURVE SMOOTH",
"309 -153 LINE SMOOTH",
"310 -148 OFFCURVE",
"307 -149 OFFCURVE",
"304 -150 CURVE SMOOTH",
"298 -154 OFFCURVE",
"287 -156 OFFCURVE",
"275 -156 CURVE SMOOTH",
"229 -156 OFFCURVE",
"224 -100 OFFCURVE",
"238 -3 CURVE SMOOTH",
"238 -1 OFFCURVE",
"238 0 OFFCURVE",
"236 0 CURVE SMOOTH",
"226 0 LINE SMOOTH",
"224 0 OFFCURVE",
"223 -1 OFFCURVE",
"223 -3 CURVE SMOOTH",
"207 -103 OFFCURVE",
"212 -172 OFFCURVE",
"273 -172 CURVE SMOOTH"
);
}
);
width = 479;
},
{
components = (
{
alignment = -1;
name = O;
}
);
layerId = "7BFDDD14-D104-4977-93DD-3DA2763EA456";
paths = (
{
closed = 1;
nodes = (
"287 -181 OFFCURVE",
"300 -178 OFFCURVE",
"310 -174 CURVE SMOOTH",
"316 -172 OFFCURVE",
"319 -169 OFFCURVE",
"320 -164 CURVE SMOOTH",
"328 -118 LINE SMOOTH",
"329 -111 OFFCURVE",
"325 -109 OFFCURVE",
"320 -110 CURVE SMOOTH",
"311 -112 OFFCURVE",
"303 -114 OFFCURVE",
"294 -114 CURVE SMOOTH",
"259 -114 OFFCURVE",
"254 -80 OFFCURVE",
"271 18 CURVE SMOOTH",
"272 24 OFFCURVE",
"270 28 OFFCURVE",
"266 28 CURVE SMOOTH",
"216 28 LINE SMOOTH",
"212 27 OFFCURVE",
"204 25 OFFCURVE",
"203 19 CURVE SMOOTH",
"178 -120 OFFCURVE",
"207 -181 OFFCURVE",
"272 -181 CURVE SMOOTH"
);
}
);
width = 483;
},
{
components = (
{
alignment = -1;
name = O;
}
);
layerId = "84FABC8E-B1B3-42CE-8CB3-674F4218367A";
paths = (
{
closed = 1;
nodes = (
"357 -184 OFFCURVE",
"381 -178 OFFCURVE",
"396 -171 CURVE SMOOTH",
"403 -168 OFFCURVE",
"408 -162 OFFCURVE",
"409 -155 CURVE SMOOTH",
"422 -69 LINE SMOOTH",
"423 -60 OFFCURVE",
"417 -56 OFFCURVE",
"409 -59 CURVE SMOOTH",
"399 -62 OFFCURVE",
"389 -64 OFFCURVE",
"376 -64 CURVE SMOOTH",
"340 -64 OFFCURVE",
"342 -24 OFFCURVE",
"354 41 CURVE SMOOTH",
"356 51 OFFCURVE",
"351 55 OFFCURVE",
"344 55 CURVE SMOOTH",
"239 54 LINE SMOOTH",
"231 54 OFFCURVE",
"226 49 OFFCURVE",
"224 40 CURVE SMOOTH",
"193 -113 OFFCURVE",
"230 -184 OFFCURVE",
"324 -184 CURVE SMOOTH"
);
}
);
width = 542;
}
);
leftKerningGroup = O;
leftMetricsKey = O;
rightKerningGroup = O;
rightMetricsKey = O;
unicode = 0051;
},
{
glyphname = R;
lastChange = "2022-10-27 03:39:12 +0000";
layers = (
{
anchors = (
{
name = bottom;
position = "{194, 0}";
},
{
name = top;
position = "{277, 655}";
}
);
layerId = "C7C49F0D-FB24-4177-B585-680F100D73B3";
paths = (
{
closed = 1;
nodes = (
"62 0 LINE SMOOTH",
"65 0 OFFCURVE",
"66 0 OFFCURVE",
"67 5 CURVE SMOOTH",
"114 303 LINE",
"260 303 LINE",
"350 3 LINE SMOOTH",
"351 0 OFFCURVE",
"352 0 OFFCURVE",
"355 0 CURVE SMOOTH",
"364 0 LINE SMOOTH",
"366 0 OFFCURVE",
"368 1 OFFCURVE",
"367 5 CURVE SMOOTH",
"275 307 LINE",
"275 308 LINE",
"374 329 OFFCURVE",
"425 407 OFFCURVE",
"425 521 CURVE SMOOTH",
"425 613 OFFCURVE",
"367 655 OFFCURVE",
"269 655 CURVE SMOOTH",
"159 655 LINE SMOOTH",
"156 655 OFFCURVE",
"155 655 OFFCURVE",
"154 651 CURVE SMOOTH",
"51 5 LINE SMOOTH",
"50 0 OFFCURVE",
"52 0 OFFCURVE",
"55 0 CURVE SMOOTH"
);
},
{
closed = 1;
nodes = (
"168 639 LINE",
"268 639 LINE SMOOTH",
"354 639 OFFCURVE",
"409 604 OFFCURVE",
"409 521 CURVE SMOOTH",
"409 402 OFFCURVE",
"348 319 OFFCURVE",
"230 319 CURVE SMOOTH",
"117 319 LINE"
);
}
);
width = 439;
},
{
anchors = (
{
name = bottom;
position = "{200, 0}";
},
{
name = top;
position = "{278, 655}";
}
);
layerId = "7BFDDD14-D104-4977-93DD-3DA2763EA456";
paths = (
{
closed = 1;
nodes = (
"95 0 LINE SMOOTH",
"100 0 OFFCURVE",
"104 3 OFFCURVE",
"105 9 CURVE SMOOTH",
"148 283 LINE",
"242 283 LINE",
"318 8 LINE SMOOTH",
"319 2 OFFCURVE",
"322 0 OFFCURVE",
"328 0 CURVE SMOOTH",
"385 0 LINE SMOOTH",
"391 0 OFFCURVE",
"395 4 OFFCURVE",
"393 10 CURVE SMOOTH",
"313 296 LINE",
"313 297 LINE",
"398 328 OFFCURVE",
"445 411 OFFCURVE",
"445 508 CURVE SMOOTH",
"445 605 OFFCURVE",
"390 655 OFFCURVE",
"272 655 CURVE SMOOTH",
"147 655 LINE SMOOTH",
"141 655 OFFCURVE",
"138 652 OFFCURVE",
"137 646 CURVE SMOOTH",
"36 9 LINE SMOOTH",
"35 3 OFFCURVE",
"38 0 OFFCURVE",
"43 0 CURVE SMOOTH"
);
},
{
closed = 1;
nodes = (
"197 590 LINE",
"269 590 LINE SMOOTH",
"340 590 OFFCURVE",
"374 565 OFFCURVE",
"374 503 CURVE SMOOTH",
"374 407 OFFCURVE",
"327 345 OFFCURVE",
"228 345 CURVE SMOOTH",
"158 345 LINE"
);
}
);
width = 452;
},
{
anchors = (
{
name = bottom;
position = "{237, 0}";
},
{
name = top;
position = "{303, 655}";
}
);
layerId = "84FABC8E-B1B3-42CE-8CB3-674F4218367A";
paths = (
{
closed = 1;
nodes = (
"158 0 LINE SMOOTH",
"166 0 OFFCURVE",
"172 6 OFFCURVE",
"173 15 CURVE SMOOTH",
"209 239 LINE",
"244 239 LINE",
"308 14 LINE SMOOTH",
"310 5 OFFCURVE",
"315 0 OFFCURVE",
"324 0 CURVE SMOOTH",
"466 0 LINE SMOOTH",
"475 0 OFFCURVE",
"481 8 OFFCURVE",
"478 15 CURVE SMOOTH",
"396 268 LINE",
"396 269 LINE",
"473 297 OFFCURVE",
"521 378 OFFCURVE",
"521 476 CURVE SMOOTH",
"521 598 OFFCURVE",
"455 655 OFFCURVE",
"301 655 CURVE SMOOTH",
"127 655 LINE SMOOTH",
"119 655 OFFCURVE",
"114 650 OFFCURVE",
"113 640 CURVE SMOOTH",
"13 15 LINE SMOOTH",
"12 5 OFFCURVE",
"16 0 OFFCURVE",
"26 0 CURVE SMOOTH"
);
},
{
closed = 1;
nodes = (
"252 512 LINE",
"293 512 LINE SMOOTH",
"337 512 OFFCURVE",
"356 498 OFFCURVE",
"356 461 CURVE SMOOTH",
"356 402 OFFCURVE",
"325 372 OFFCURVE",
"272 372 CURVE SMOOTH",
"230 372 LINE"
);
}
);
width = 516;
}
);
leftKerningGroup = H;
leftMetricsKey = H;
rightKerningGroup = R;
unicode = 0052;
},
{
glyphname = S;
lastChange = "2022-10-27 03:39:12 +0000";
layers = (
{
anchors = (
{
name = bottom;
position = "{176, 0}";
},
{
name = top;
position = "{277, 655}";
}
);
layerId = "C7C49F0D-FB24-4177-B585-680F100D73B3";
paths = (
{
closed = 1;
nodes = (
"299 -8 OFFCURVE",
"357 47 OFFCURVE",
"357 158 CURVE SMOOTH",
"357 228 OFFCURVE",
"337 266 OFFCURVE",
"266 324 CURVE SMOOTH",
"195 381 LINE SMOOTH",
"138 427 OFFCURVE",
"122 458 OFFCURVE",
"122 512 CURVE SMOOTH",
"122 597 OFFCURVE",
"174 647 OFFCURVE",
"263 647 CURVE SMOOTH",
"361 647 OFFCURVE",
"401 597 OFFCURVE",
"384 493 CURVE SMOOTH",
"384 490 OFFCURVE",
"384 489 OFFCURVE",
"387 489 CURVE SMOOTH",
"396 489 LINE SMOOTH",
"399 489 OFFCURVE",
"400 489 OFFCURVE",
"400 493 CURVE SMOOTH",
"419 605 OFFCURVE",
"372 663 OFFCURVE",
"263 663 CURVE SMOOTH",
"164 663 OFFCURVE",
"106 607 OFFCURVE",
"106 511 CURVE SMOOTH",
"106 451 OFFCURVE",
"124 417 OFFCURVE",
"184 368 CURVE SMOOTH",
"255 311 LINE SMOOTH",
"323 255 OFFCURVE",
"341 220 OFFCURVE",
"341 155 CURVE SMOOTH",
"341 57 OFFCURVE",
"286 8 OFFCURVE",
"178 8 CURVE SMOOTH",
"77 8 OFFCURVE",
"39 57 OFFCURVE",
"59 166 CURVE SMOOTH",
"60 170 OFFCURVE",
"58 170 OFFCURVE",
"56 170 CURVE SMOOTH",
"48 170 LINE SMOOTH",
"45 170 OFFCURVE",
"44 170 OFFCURVE",
"43 167 CURVE SMOOTH",
"22 48 OFFCURVE",
"65 -8 OFFCURVE",
"178 -8 CURVE SMOOTH"
);
}
);
width = 410;
},
{
anchors = (
{
name = bottom;
position = "{182, 0}";
},
{
name = top;
position = "{280, 655}";
}
);
layerId = "7BFDDD14-D104-4977-93DD-3DA2763EA456";
paths = (
{
closed = 1;
nodes = (
"310 -8 OFFCURVE",
"382 59 OFFCURVE",
"382 178 CURVE SMOOTH",
"382 245 OFFCURVE",
"358 289 OFFCURVE",
"297 337 CURVE SMOOTH",
"221 397 LINE SMOOTH",
"180 430 OFFCURVE",
"162 459 OFFCURVE",
"162 502 CURVE SMOOTH",
"162 558 OFFCURVE",
"199 598 OFFCURVE",
"263 598 CURVE SMOOTH",
"329 598 OFFCURVE",
"365 559 OFFCURVE",
"350 481 CURVE SMOOTH",
"349 473 OFFCURVE",
"351 470 OFFCURVE",
"357 470 CURVE SMOOTH",
"408 470 LINE SMOOTH",
"414 470 OFFCURVE",
"416 472 OFFCURVE",
"418 481 CURVE SMOOTH",
"445 598 OFFCURVE",
"383 663 OFFCURVE",
"269 663 CURVE SMOOTH",
"157 663 OFFCURVE",
"91 599 OFFCURVE",
"91 496 CURVE SMOOTH",
"91 434 OFFCURVE",
"114 389 OFFCURVE",
"162 352 CURVE SMOOTH",
"245 286 LINE SMOOTH",
"292 250 OFFCURVE",
"311 219 OFFCURVE",
"311 168 CURVE SMOOTH",
"311 96 OFFCURVE",
"270 57 OFFCURVE",
"194 57 CURVE SMOOTH",
"122 57 OFFCURVE",
"87 94 OFFCURVE",
"105 179 CURVE SMOOTH",
"107 185 OFFCURVE",
"103 189 OFFCURVE",
"97 189 CURVE SMOOTH",
"48 189 LINE SMOOTH",
"42 189 OFFCURVE",
"39 187 OFFCURVE",
"37 180 CURVE SMOOTH",
"9 60 OFFCURVE",
"69 -8 OFFCURVE",
"188 -8 CURVE SMOOTH"
);
}
);
width = 419;
},
{
anchors = (
{
name = bottom;
position = "{210, 0}";
},
{
name = top;
position = "{304, 655}";
}
);
layerId = "84FABC8E-B1B3-42CE-8CB3-674F4218367A";
paths = (
{
closed = 1;
nodes = (
"366 -8 OFFCURVE",
"448 67 OFFCURVE",
"448 198 CURVE SMOOTH",
"448 271 OFFCURVE",
"423 313 OFFCURVE",
"368 353 CURVE SMOOTH",
"271 424 LINE SMOOTH",
"242 445 OFFCURVE",
"233 459 OFFCURVE",
"233 484 CURVE SMOOTH",
"233 511 OFFCURVE",
"248 525 OFFCURVE",
"277 525 CURVE SMOOTH",
"311 525 OFFCURVE",
"326 504 OFFCURVE",
"320 463 CURVE SMOOTH",
"319 453 OFFCURVE",
"323 448 OFFCURVE",
"333 448 CURVE SMOOTH",
"465 448 LINE SMOOTH",
"473 448 OFFCURVE",
"478 452 OFFCURVE",
"480 463 CURVE SMOOTH",
"503 593 OFFCURVE",
"434 663 OFFCURVE",
"284 663 CURVE SMOOTH",
"149 663 OFFCURVE",
"69 591 OFFCURVE",
"69 470 CURVE SMOOTH",
"69 396 OFFCURVE",
"94 351 OFFCURVE",
"154 307 CURVE SMOOTH",
"242 243 LINE SMOOTH",
"272 221 OFFCURVE",
"283 203 OFFCURVE",
"283 180 CURVE SMOOTH",
"283 147 OFFCURVE",
"266 131 OFFCURVE",
"229 131 CURVE SMOOTH",
"192 131 OFFCURVE",
"176 154 OFFCURVE",
"183 197 CURVE SMOOTH",
"184 206 OFFCURVE",
"179 212 OFFCURVE",
"170 212 CURVE SMOOTH",
"40 212 LINE SMOOTH",
"33 212 OFFCURVE",
"28 207 OFFCURVE",
"26 197 CURVE SMOOTH",
"-2 62 OFFCURVE",
"64 -8 OFFCURVE",
"218 -8 CURVE SMOOTH"
);
}
);
width = 471;
}
);
leftKerningGroup = S;
rightKerningGroup = S;
unicode = 0053;
},
{
glyphname = Germandbls;
lastChange = "2022-10-27 03:39:12 +0000";
layers = (
{
layerId = "C7C49F0D-FB24-4177-B585-680F100D73B3";
paths = (
{
closed = 1;
nodes = (
"381 -8 OFFCURVE",
"442 78 OFFCURVE",
"442 225 CURVE SMOOTH",
"442 327 OFFCURVE",
"393 375 OFFCURVE",
"288 375 CURVE",
"459 648 LINE SMOOTH",
"461 652 OFFCURVE",
"460 655 OFFCURVE",
"457 655 CURVE SMOOTH",
"159 655 LINE SMOOTH",
"156 655 OFFCURVE",
"155 655 OFFCURVE",
"154 651 CURVE SMOOTH",
"51 5 LINE SMOOTH",
"50 0 OFFCURVE",
"52 0 OFFCURVE",
"55 0 CURVE SMOOTH",
"62 0 LINE SMOOTH",
"65 0 OFFCURVE",
"66 0 OFFCURVE",
"67 5 CURVE SMOOTH",
"168 639 LINE",
"433 639 LINE",
"266 369 LINE SMOOTH",
"265 367 OFFCURVE",
"264 366 OFFCURVE",
"264 364 CURVE SMOOTH",
"264 362 LINE SMOOTH",
"264 360 OFFCURVE",
"265 359 OFFCURVE",
"267 359 CURVE SMOOTH",
"290 359 LINE SMOOTH",
"383 359 OFFCURVE",
"426 315 OFFCURVE",
"426 223 CURVE SMOOTH",
"426 89 OFFCURVE",
"370 8 OFFCURVE",
"277 8 CURVE SMOOTH",
"206 8 OFFCURVE",
"176 45 OFFCURVE",
"186 120 CURVE SMOOTH",
"187 124 OFFCURVE",
"186 125 OFFCURVE",
"183 125 CURVE SMOOTH",
"176 125 LINE SMOOTH",
"172 125 OFFCURVE",
"171 125 OFFCURVE",
"170 120 CURVE SMOOTH",
"158 37 OFFCURVE",
"195 -8 OFFCURVE",
"276 -8 CURVE SMOOTH"
);
}
);
width = 484;
},
{
layerId = "7BFDDD14-D104-4977-93DD-3DA2763EA456";
paths = (
{
closed = 1;
nodes = (
"402 -8 OFFCURVE",
"465 83 OFFCURVE",
"465 240 CURVE SMOOTH",
"465 330 OFFCURVE",
"425 380 OFFCURVE",
"343 387 CURVE",
"492 633 LINE SMOOTH",
"498 643 OFFCURVE",
"500 655 OFFCURVE",
"490 655 CURVE SMOOTH",
"147 655 LINE SMOOTH",
"141 655 OFFCURVE",
"138 652 OFFCURVE",
"137 646 CURVE SMOOTH",
"36 9 LINE SMOOTH",
"35 4 OFFCURVE",
"38 0 OFFCURVE",
"44 0 CURVE SMOOTH",
"95 0 LINE SMOOTH",
"100 0 OFFCURVE",
"104 3 OFFCURVE",
"105 9 CURVE SMOOTH",
"197 589 LINE",
"388 589 LINE",
"268 384 LINE SMOOTH",
"266 380 OFFCURVE",
"264 376 OFFCURVE",
"263 370 CURVE SMOOTH",
"259 341 LINE SMOOTH",
"258 335 OFFCURVE",
"261 332 OFFCURVE",
"266 332 CURVE SMOOTH",
"292 332 LINE SMOOTH",
"362 332 OFFCURVE",
"394 301 OFFCURVE",
"394 232 CURVE SMOOTH",
"394 125 OFFCURVE",
"360 57 OFFCURVE",
"292 57 CURVE SMOOTH",
"250 57 OFFCURVE",
"227 80 OFFCURVE",
"234 128 CURVE SMOOTH",
"235 135 OFFCURVE",
"233 139 OFFCURVE",
"226 139 CURVE SMOOTH",
"178 139 LINE SMOOTH",
"172 139 OFFCURVE",
"169 136 OFFCURVE",
"168 129 CURVE SMOOTH",
"151 41 OFFCURVE",
"201 -8 OFFCURVE",
"286 -8 CURVE SMOOTH"
);
}
);
width = 491;
},
{
layerId = "84FABC8E-B1B3-42CE-8CB3-674F4218367A";
paths = (
{
closed = 1;
nodes = (
"505 -8 OFFCURVE",
"576 75 OFFCURVE",
"576 229 CURVE SMOOTH",
"576 316 OFFCURVE",
"541 365 OFFCURVE",
"469 380 CURVE",
"598 631 LINE SMOOTH",
"605 643 OFFCURVE",
"601 655 OFFCURVE",
"590 655 CURVE SMOOTH",
"128 655 LINE SMOOTH",
"120 655 OFFCURVE",
"114 650 OFFCURVE",
"113 640 CURVE SMOOTH",
"13 15 LINE SMOOTH",
"12 5 OFFCURVE",
"16 0 OFFCURVE",
"27 0 CURVE SMOOTH",
"158 0 LINE SMOOTH",
"166 0 OFFCURVE",
"172 6 OFFCURVE",
"173 15 CURVE SMOOTH",
"252 510 LINE",
"379 510 LINE",
"304 359 LINE SMOOTH",
"300 351 OFFCURVE",
"298 344 OFFCURVE",
"297 337 CURVE SMOOTH",
"289 292 LINE SMOOTH",
"288 282 OFFCURVE",
"292 277 OFFCURVE",
"303 277 CURVE SMOOTH",
"347 277 LINE SMOOTH",
"393 277 OFFCURVE",
"416 258 OFFCURVE",
"416 217 CURVE SMOOTH",
"416 160 OFFCURVE",
"401 132 OFFCURVE",
"376 132 CURVE SMOOTH",
"360 132 OFFCURVE",
"353 142 OFFCURVE",
"357 165 CURVE SMOOTH",
"359 174 OFFCURVE",
"354 180 OFFCURVE",
"344 180 CURVE SMOOTH",
"240 182 LINE SMOOTH",
"232 182 OFFCURVE",
"227 177 OFFCURVE",
"226 167 CURVE SMOOTH",
"204 48 OFFCURVE",
"252 -8 OFFCURVE",
"371 -8 CURVE SMOOTH"
);
}
);
width = 586;
}
);
leftKerningGroup = H;
leftMetricsKey = H;
rightKerningGroup = S;
unicode = 1E9E;
},
{
glyphname = T;
lastChange = "2022-10-27 03:39:12 +0000";
layers = (
{
anchors = (
{
name = bottom;
position = "{171, 0}";
},
{
name = center;
position = "{222, 328}";
},
{
name = top;
position = "{275, 655}";
}
);
layerId = "C7C49F0D-FB24-4177-B585-680F100D73B3";
paths = (
{
closed = 1;
nodes = (
"173 0 LINE SMOOTH",
"176 0 OFFCURVE",
"177 0 OFFCURVE",
"178 5 CURVE SMOOTH",
"279 639 LINE",
"434 639 LINE SMOOTH",
"437 639 OFFCURVE",
"438 639 OFFCURVE",
"439 642 CURVE SMOOTH",
"441 651 LINE SMOOTH",
"442 655 OFFCURVE",
"440 655 OFFCURVE",
"438 655 CURVE SMOOTH",
"111 655 LINE SMOOTH",
"108 655 OFFCURVE",
"107 655 OFFCURVE",
"106 652 CURVE SMOOTH",
"104 643 LINE SMOOTH",
"103 639 OFFCURVE",
"105 639 OFFCURVE",
"107 639 CURVE SMOOTH",
"263 639 LINE",
"162 5 LINE SMOOTH",
"161 0 OFFCURVE",
"163 0 OFFCURVE",
"166 0 CURVE SMOOTH"
);
}
);
width = 399;
},
{
anchors = (
{
name = bottom;
position = "{171, 0}";
},
{
name = center;
position = "{223, 328}";
},
{
name = top;
position = "{275, 655}";
}
);
layerId = "7BFDDD14-D104-4977-93DD-3DA2763EA456";
paths = (
{
closed = 1;
nodes = (
"195 0 LINE SMOOTH",
"201 0 OFFCURVE",
"204 3 OFFCURVE",
"205 9 CURVE SMOOTH",
"297 589 LINE",
"429 589 LINE SMOOTH",
"435 589 OFFCURVE",
"438 592 OFFCURVE",
"439 598 CURVE SMOOTH",
"447 646 LINE SMOOTH",
"448 652 OFFCURVE",
"445 655 OFFCURVE",
"439 655 CURVE SMOOTH",
"106 655 LINE SMOOTH",
"101 655 OFFCURVE",
"97 652 OFFCURVE",
"96 646 CURVE SMOOTH",
"89 598 LINE SMOOTH",
"88 592 OFFCURVE",
"91 589 OFFCURVE",
"96 589 CURVE SMOOTH",
"228 589 LINE",
"136 10 LINE SMOOTH",
"135 3 OFFCURVE",
"139 0 OFFCURVE",
"144 0 CURVE SMOOTH"
);
}
);
width = 398;
},
{
anchors = (
{
name = bottom;
position = "{202, 0}";
},
{
name = center;
position = "{257, 328}";
},
{
name = top;
position = "{309, 655}";
}
);
layerId = "84FABC8E-B1B3-42CE-8CB3-674F4218367A";
paths = (
{
closed = 1;
nodes = (
"269 0 LINE SMOOTH",
"277 0 OFFCURVE",
"283 6 OFFCURVE",
"284 15 CURVE SMOOTH",
"364 511 LINE",
"486 511 LINE SMOOTH",
"495 511 OFFCURVE",
"500 518 OFFCURVE",
"501 526 CURVE SMOOTH",
"519 640 LINE SMOOTH",
"521 650 OFFCURVE",
"516 655 OFFCURVE",
"506 655 CURVE SMOOTH",
"101 655 LINE SMOOTH",
"94 655 OFFCURVE",
"88 649 OFFCURVE",
"86 640 CURVE SMOOTH",
"68 526 LINE SMOOTH",
"66 516 OFFCURVE",
"72 511 OFFCURVE",
"81 511 CURVE SMOOTH",
"203 511 LINE",
"124 15 LINE SMOOTH",
"122 5 OFFCURVE",
"128 0 OFFCURVE",
"137 0 CURVE SMOOTH"
);
}
);
width = 462;
}
);
leftKerningGroup = T;
rightKerningGroup = T;
unicode = 0054;
},
{
glyphname = Tbar;
lastChange = "2022-10-27 03:39:12 +0000";
layers = (
{
components = (
{
alignment = -1;
name = T;
}
);
layerId = "C7C49F0D-FB24-4177-B585-680F100D73B3";
paths = (
{
closed = 1;
nodes = (
"214 328 LINE",
"229 328 LINE",
"329 328 LINE SMOOTH",
"332 328 OFFCURVE",
"333 328 OFFCURVE",
"334 331 CURVE SMOOTH",
"336 340 LINE SMOOTH",
"337 344 OFFCURVE",
"335 344 OFFCURVE",
"333 344 CURVE SMOOTH",
"118 344 LINE SMOOTH",
"115 344 OFFCURVE",
"114 344 OFFCURVE",
"113 341 CURVE SMOOTH",
"111 332 LINE SMOOTH",
"110 328 OFFCURVE",
"112 328 OFFCURVE",
"114 328 CURVE SMOOTH"
);
}
);
width = 399;
},
{
components = (
{
alignment = -1;
name = T;
}
);
layerId = "7BFDDD14-D104-4977-93DD-3DA2763EA456";
paths = (
{
closed = 1;
nodes = (
"183 305 LINE",
"252 305 LINE",
"326 305 LINE SMOOTH",
"332 305 OFFCURVE",
"335 309 OFFCURVE",
"336 314 CURVE SMOOTH",
"343 353 LINE SMOOTH",
"344 359 OFFCURVE",
"340 362 OFFCURVE",
"334 362 CURVE SMOOTH",
"119 362 LINE SMOOTH",
"114 362 OFFCURVE",
"111 359 OFFCURVE",
"110 353 CURVE SMOOTH",
"103 314 LINE SMOOTH",
"102 309 OFFCURVE",
"106 305 OFFCURVE",
"111 305 CURVE SMOOTH"
);
}
);
width = 398;
},
{
components = (
{
alignment = -1;
name = T;
}
);
layerId = "84FABC8E-B1B3-42CE-8CB3-674F4218367A";
paths = (
{
closed = 1;
nodes = (
"163 258 LINE",
"323 258 LINE",
"381 258 LINE SMOOTH",
"389 258 OFFCURVE",
"395 264 OFFCURVE",
"396 272 CURVE SMOOTH",
"410 362 LINE SMOOTH",
"412 371 OFFCURVE",
"405 376 OFFCURVE",
"397 376 CURVE SMOOTH",
"124 376 LINE SMOOTH",
"116 376 OFFCURVE",
"111 371 OFFCURVE",
"109 362 CURVE SMOOTH",
"95 272 LINE SMOOTH",
"93 263 OFFCURVE",
"99 258 OFFCURVE",
"108 258 CURVE SMOOTH"
);
}
);
width = 462;
}
);
leftKerningGroup = T;
leftMetricsKey = "=T";
rightKerningGroup = T;
rightMetricsKey = "=T";
unicode = 0166;
},
{
glyphname = U;
lastChange = "2022-10-27 03:39:12 +0000";
layers = (
{
anchors = (
{
name = bottom;
position = "{212, 0}";
},
{
name = ogonek;
position = "{283, 10}";
},
{
name = top;
position = "{315, 655}";
},
{
name = topleft;
position = "{130, 655}";
},
{
name = topright;
position = "{540, 655}";
}
);
layerId = "C7C49F0D-FB24-4177-B585-680F100D73B3";
paths = (
{
closed = 1;
nodes = (
"332 -8 OFFCURVE",
"386 53 OFFCURVE",
"411 208 CURVE SMOOTH",
"481 651 LINE SMOOTH",
"482 655 OFFCURVE",
"480 655 OFFCURVE",
"477 655 CURVE SMOOTH",
"470 655 LINE SMOOTH",
"467 655 OFFCURVE",
"466 655 OFFCURVE",
"465 651 CURVE SMOOTH",
"395 209 LINE SMOOTH",
"372 65 OFFCURVE",
"322 8 OFFCURVE",
"218 8 CURVE SMOOTH",
"115 8 OFFCURVE",
"72 69 OFFCURVE",
"95 209 CURVE SMOOTH",
"165 651 LINE SMOOTH",
"166 655 OFFCURVE",
"164 655 OFFCURVE",
"161 655 CURVE SMOOTH",
"154 655 LINE SMOOTH",
"151 655 OFFCURVE",
"150 655 OFFCURVE",
"149 651 CURVE SMOOTH",
"79 209 LINE SMOOTH",
"55 60 OFFCURVE",
"104 -8 OFFCURVE",
"216 -8 CURVE SMOOTH"
);
}
);
width = 482;
},
{
anchors = (
{
name = bottom;
position = "{210, 0}";
},
{
name = ogonek;
position = "{298, 10}";
},
{
name = top;
position = "{316, 655}";
},
{
name = topleft;
position = "{130, 655}";
},
{
name = topright;
position = "{538, 655}";
}
);
layerId = "7BFDDD14-D104-4977-93DD-3DA2763EA456";
paths = (
{
closed = 1;
nodes = (
"338 -8 OFFCURVE",
"405 62 OFFCURVE",
"428 209 CURVE SMOOTH",
"498 645 LINE SMOOTH",
"499 652 OFFCURVE",
"496 655 OFFCURVE",
"490 655 CURVE SMOOTH",
"438 655 LINE SMOOTH",
"433 655 OFFCURVE",
"430 652 OFFCURVE",
"429 646 CURVE SMOOTH",
"360 212 LINE SMOOTH",
"343 105 OFFCURVE",
"301 57 OFFCURVE",
"225 57 CURVE SMOOTH",
"143 57 OFFCURVE",
"116 109 OFFCURVE",
"132 211 CURVE SMOOTH",
"202 645 LINE SMOOTH",
"203 652 OFFCURVE",
"200 655 OFFCURVE",
"194 655 CURVE SMOOTH",
"142 655 LINE SMOOTH",
"137 655 OFFCURVE",
"134 652 OFFCURVE",
"133 646 CURVE SMOOTH",
"63 214 LINE SMOOTH",
"40 68 OFFCURVE",
"97 -8 OFFCURVE",
"220 -8 CURVE SMOOTH"
);
}
);
width = 485;
},
{
anchors = (
{
name = bottom;
position = "{241, 0}";
},
{
name = ogonek;
position = "{356, 10}";
},
{
name = top;
position = "{345, 655}";
},
{
name = topleft;
position = "{135, 655}";
},
{
name = topright;
position = "{593, 655}";
}
);
layerId = "84FABC8E-B1B3-42CE-8CB3-674F4218367A";
paths = (
{
closed = 1;
nodes = (
"408 -8 OFFCURVE",
"484 66 OFFCURVE",
"511 239 CURVE SMOOTH",
"575 640 LINE SMOOTH",
"577 649 OFFCURVE",
"572 655 OFFCURVE",
"563 655 CURVE SMOOTH",
"430 655 LINE SMOOTH",
"422 655 OFFCURVE",
"417 650 OFFCURVE",
"416 640 CURVE SMOOTH",
"353 246 LINE SMOOTH",
"340 168 OFFCURVE",
"318 137 OFFCURVE",
"265 137 CURVE SMOOTH",
"214 137 OFFCURVE",
"194 171 OFFCURVE",
"206 246 CURVE SMOOTH",
"269 640 LINE SMOOTH",
"271 649 OFFCURVE",
"266 655 OFFCURVE",
"257 655 CURVE SMOOTH",
"124 655 LINE SMOOTH",
"116 655 OFFCURVE",
"111 650 OFFCURVE",
"110 640 CURVE SMOOTH",
"46 244 LINE SMOOTH",
"20 75 OFFCURVE",
"92 -8 OFFCURVE",
"250 -8 CURVE SMOOTH"
);
}
);
width = 542;
}
);
leftKerningGroup = U;
rightKerningGroup = U;
unicode = 0055;
},
{
glyphname = V;
lastChange = "2022-10-27 03:39:12 +0000";
layers = (
{
layerId = "C7C49F0D-FB24-4177-B585-680F100D73B3";
paths = (
{
closed = 1;
nodes = (
"187 0 LINE SMOOTH",
"189 0 OFFCURVE",
"190 0 OFFCURVE",
"192 3 CURVE SMOOTH",
"473 651 LINE SMOOTH",
"474 654 OFFCURVE",
"473 655 OFFCURVE",
"471 655 CURVE SMOOTH",
"461 655 LINE SMOOTH",
"459 655 OFFCURVE",
"458 655 OFFCURVE",
"457 652 CURVE SMOOTH",
"232 138 LINE SMOOTH",
"215 98 OFFCURVE",
"198 56 OFFCURVE",
"183 17 CURVE",
"182 17 LINE",
"179 57 OFFCURVE",
"175 96 OFFCURVE",
"171 136 CURVE SMOOTH",
"108 652 LINE SMOOTH",
"108 655 OFFCURVE",
"107 655 OFFCURVE",
"105 655 CURVE SMOOTH",
"95 655 LINE SMOOTH",
"93 655 OFFCURVE",
"92 654 OFFCURVE",
"92 652 CURVE SMOOTH",
"170 3 LINE SMOOTH",
"170 1 OFFCURVE",
"171 0 OFFCURVE",
"173 0 CURVE SMOOTH"
);
}
);
width = 417;
},
{
layerId = "7BFDDD14-D104-4977-93DD-3DA2763EA456";
paths = (
{
closed = 1;
nodes = (
"228 0 LINE SMOOTH",
"232 0 OFFCURVE",
"236 3 OFFCURVE",
"238 8 CURVE SMOOTH",
"500 645 LINE SMOOTH",
"502 652 OFFCURVE",
"499 655 OFFCURVE",
"493 655 CURVE SMOOTH",
"437 655 LINE SMOOTH",
"433 655 OFFCURVE",
"429 652 OFFCURVE",
"426 647 CURVE SMOOTH",
"259 226 LINE SMOOTH",
"239 176 OFFCURVE",
"220 127 OFFCURVE",
"202 77 CURVE",
"200 77 LINE",
"198 127 OFFCURVE",
"194 176 OFFCURVE",
"190 227 CURVE SMOOTH",
"157 647 LINE SMOOTH",
"157 652 OFFCURVE",
"153 655 OFFCURVE",
"148 655 CURVE SMOOTH",
"94 655 LINE SMOOTH",
"88 655 OFFCURVE",
"84 651 OFFCURVE",
"85 646 CURVE SMOOTH",
"143 8 LINE SMOOTH",
"143 3 OFFCURVE",
"147 0 OFFCURVE",
"152 0 CURVE SMOOTH"
);
}
);
width = 440;
},
{
layerId = "84FABC8E-B1B3-42CE-8CB3-674F4218367A";
paths = (
{
closed = 1;
nodes = (
"327 0 LINE SMOOTH",
"334 0 OFFCURVE",
"339 6 OFFCURVE",
"342 14 CURVE SMOOTH",
"597 640 LINE SMOOTH",
"600 649 OFFCURVE",
"596 655 OFFCURVE",
"587 655 CURVE SMOOTH",
"435 655 LINE SMOOTH",
"427 655 OFFCURVE",
"422 649 OFFCURVE",
"419 641 CURVE SMOOTH",
"302 289 LINE SMOOTH",
"286 242 OFFCURVE",
"271 194 OFFCURVE",
"257 146 CURVE",
"255 146 LINE",
"255 193 OFFCURVE",
"256 241 OFFCURVE",
"255 289 CURVE SMOOTH",
"248 641 LINE SMOOTH",
"248 650 OFFCURVE",
"243 655 OFFCURVE",
"234 655 CURVE SMOOTH",
"91 655 LINE SMOOTH",
"83 655 OFFCURVE",
"76 650 OFFCURVE",
"78 640 CURVE SMOOTH",
"137 14 LINE SMOOTH",
"138 5 OFFCURVE",
"144 0 OFFCURVE",
"152 0 CURVE SMOOTH"
);
}
);
width = 530;
}
);
leftKerningGroup = V;
rightKerningGroup = V;
unicode = 0056;
},
{
glyphname = W;
lastChange = "2022-10-27 03:39:12 +0000";
layers = (
{
anchors = (
{
name = bottom;
position = "{294, 0}";
},
{
name = top;
position = "{382, 655}";
}
);
layerId = "C7C49F0D-FB24-4177-B585-680F100D73B3";
paths = (
{
closed = 1;
nodes = (
"168 0 LINE SMOOTH",
"171 0 OFFCURVE",
"172 0 OFFCURVE",
"174 4 CURVE SMOOTH",
"321 367 LINE SMOOTH",
"335 402 OFFCURVE",
"349 441 OFFCURVE",
"363 477 CURVE",
"364 477 LINE",
"365 440 OFFCURVE",
"366 402 OFFCURVE",
"368 365 CURVE SMOOTH",
"392 4 LINE SMOOTH",
"392 0 OFFCURVE",
"394 0 OFFCURVE",
"397 0 CURVE",
"411 0 LINE SMOOTH",
"414 0 OFFCURVE",
"415 0 OFFCURVE",
"417 4 CURVE SMOOTH",
"670 652 LINE SMOOTH",
"671 655 OFFCURVE",
"670 655 OFFCURVE",
"668 655 CURVE SMOOTH",
"658 655 LINE SMOOTH",
"656 655 OFFCURVE",
"655 655 OFFCURVE",
"654 652 CURVE SMOOTH",
"453 141 LINE SMOOTH",
"437 99 OFFCURVE",
"422 58 OFFCURVE",
"406 16 CURVE",
"405 16 LINE",
"403 59 OFFCURVE",
"402 100 OFFCURVE",
"399 143 CURVE SMOOTH",
"368 641 LINE SMOOTH",
"367 644 OFFCURVE",
"366 645 OFFCURVE",
"363 645 CURVE SMOOTH",
"356 645 LINE SMOOTH",
"353 645 OFFCURVE",
"353 644 OFFCURVE",
"353 640 CURVE SMOOTH",
"360 509 LINE",
"210 135 LINE SMOOTH",
"195 95 OFFCURVE",
"180 56 OFFCURVE",
"164 16 CURVE",
"163 16 LINE",
"160 56 OFFCURVE",
"157 97 OFFCURVE",
"154 137 CURVE SMOOTH",
"115 652 LINE SMOOTH",
"115 654 OFFCURVE",
"115 655 OFFCURVE",
"112 655 CURVE SMOOTH",
"102 655 LINE SMOOTH",
"100 655 OFFCURVE",
"99 654 OFFCURVE",
"99 652 CURVE SMOOTH",
"150 4 LINE SMOOTH",
"150 0 OFFCURVE",
"152 0 OFFCURVE",
"155 0 CURVE SMOOTH"
);
}
);
width = 622;
},
{
anchors = (
{
name = bottom;
position = "{287, 0}";
},
{
name = top;
position = "{386, 655}";
}
);
layerId = "7BFDDD14-D104-4977-93DD-3DA2763EA456";
paths = (
{
closed = 1;
nodes = (
"200 0 LINE SMOOTH",
"205 0 OFFCURVE",
"208 3 OFFCURVE",
"211 9 CURVE SMOOTH",
"312 272 LINE SMOOTH",
"326 311 OFFCURVE",
"340 351 OFFCURVE",
"354 390 CURVE",
"355 390 LINE",
"356 349 OFFCURVE",
"357 309 OFFCURVE",
"359 272 CURVE SMOOTH",
"370 9 LINE SMOOTH",
"370 3 OFFCURVE",
"374 0 OFFCURVE",
"379 0 CURVE",
"450.997 0 LINE SMOOTH",
"456 0 OFFCURVE",
"460 3 OFFCURVE",
"462 9 CURVE SMOOTH",
"692 646 LINE SMOOTH",
"695 652 OFFCURVE",
"692 655 OFFCURVE",
"686 655 CURVE SMOOTH",
"631 655 LINE SMOOTH",
"626 655 OFFCURVE",
"622 652 OFFCURVE",
"620 646 CURVE SMOOTH",
"475 235 LINE SMOOTH",
"457 183 OFFCURVE",
"440 128 OFFCURVE",
"427 83 CURVE",
"425 83 LINE",
"425 127 OFFCURVE",
"424 172 OFFCURVE",
"423 216 CURVE SMOOTH",
"406 636 LINE SMOOTH",
"406 641 OFFCURVE",
"402 645 OFFCURVE",
"397 645 CURVE SMOOTH",
"344 645 LINE SMOOTH",
"338 645 OFFCURVE",
"334 641 OFFCURVE",
"334 635 CURVE SMOOTH",
"340 509 LINE",
"229 215 LINE SMOOTH",
"212 171 OFFCURVE",
"196 127 OFFCURVE",
"181 83 CURVE",
"179 83 LINE",
"179 128 OFFCURVE",
"180 188 OFFCURVE",
"178 238 CURVE SMOOTH",
"160 646 LINE SMOOTH",
"159 652 OFFCURVE",
"157 655 OFFCURVE",
"151 655 CURVE SMOOTH",
"98 655 LINE SMOOTH",
"93 655 OFFCURVE",
"89 651 OFFCURVE",
"89 646 CURVE SMOOTH",
"123 9 LINE SMOOTH",
"123 3 OFFCURVE",
"127 0 OFFCURVE",
"132 0 CURVE SMOOTH"
);
}
);
width = 637;
},
{
anchors = (
{
name = bottom;
position = "{341, 0}";
},
{
name = top;
position = "{445, 655}";
}
);
layerId = "84FABC8E-B1B3-42CE-8CB3-674F4218367A";
paths = (
{
closed = 1;
nodes = (
"264 0 LINE SMOOTH",
"271 0 OFFCURVE",
"276 5 OFFCURVE",
"279 14 CURVE SMOOTH",
"344 185 LINE SMOOTH",
"362 231 OFFCURVE",
"378 276 OFFCURVE",
"394 323 CURVE",
"396 323 LINE",
"397 277 OFFCURVE",
"398 231 OFFCURVE",
"400 185 CURVE SMOOTH",
"407 14 LINE SMOOTH",
"407 5 OFFCURVE",
"413 0 OFFCURVE",
"422 0 CURVE SMOOTH",
"565 0 LINE SMOOTH",
"572 0 OFFCURVE",
"577 6 OFFCURVE",
"580 14 CURVE SMOOTH",
"808 640 LINE SMOOTH",
"811 649 OFFCURVE",
"806 655 OFFCURVE",
"798 655 CURVE SMOOTH",
"666 655 LINE SMOOTH",
"657 655 OFFCURVE",
"652 650 OFFCURVE",
"649 641 CURVE SMOOTH",
"579 420 LINE SMOOTH",
"555 342 OFFCURVE",
"531 245 OFFCURVE",
"515 167 CURVE",
"514 167 LINE",
"514 218 OFFCURVE",
"514 267 OFFCURVE",
"513 317 CURVE SMOOTH",
"504 624 LINE SMOOTH",
"503 633 OFFCURVE",
"500 638 OFFCURVE",
"489 638 CURVE SMOOTH",
"362 638 LINE SMOOTH",
"353 638 OFFCURVE",
"348 633 OFFCURVE",
"348 623 CURVE SMOOTH",
"359 511 LINE",
"279 309 LINE SMOOTH",
"261 263 OFFCURVE",
"243 214 OFFCURVE",
"227 167 CURVE",
"224 167 LINE",
"231 243 OFFCURVE",
"236 320 OFFCURVE",
"237 396 CURVE SMOOTH",
"236 641 LINE SMOOTH",
"236 650 OFFCURVE",
"230 655 OFFCURVE",
"221 655 CURVE SMOOTH",
"92 655 LINE SMOOTH",
"83 655 OFFCURVE",
"78 650 OFFCURVE",
"78 640 CURVE SMOOTH",
"109 14 LINE SMOOTH",
"109 5 OFFCURVE",
"115 0 OFFCURVE",
"124 0 CURVE SMOOTH"
);
}
);
width = 744;
}
);
leftKerningGroup = W;
rightKerningGroup = W;
unicode = 0057;
},
{
glyphname = X;
lastChange = "2022-10-27 03:39:12 +0000";
layers = (
{
layerId = "C7C49F0D-FB24-4177-B585-680F100D73B3";
paths = (
{
closed = 1;
nodes = (
"-6 0 LINE SMOOTH",
"-3 0 OFFCURVE",
"-2 1 OFFCURVE",
"0 4 CURVE SMOOTH",
"136 203 LINE SMOOTH",
"163 242 OFFCURVE",
"192 282 OFFCURVE",
"219 321 CURVE",
"220 321 LINE",
"235 281 OFFCURVE",
"250 243 OFFCURVE",
"265 203 CURVE SMOOTH",
"340 3 LINE SMOOTH",
"341 0 OFFCURVE",
"342 0 OFFCURVE",
"344 0 CURVE SMOOTH",
"353 0 LINE SMOOTH",
"356 0 OFFCURVE",
"357 1 OFFCURVE",
"356 4 CURVE SMOOTH",
"232 335 LINE",
"450 651 LINE SMOOTH",
"452 654 OFFCURVE",
"451 655 OFFCURVE",
"448 655 CURVE SMOOTH",
"436 655 LINE SMOOTH",
"434 655 OFFCURVE",
"433 655 OFFCURVE",
"431 652 CURVE SMOOTH",
"290 446 LINE SMOOTH",
"268 415 OFFCURVE",
"246 382 OFFCURVE",
"224 351 CURVE",
"223 351 LINE",
"210 383 OFFCURVE",
"198 416 OFFCURVE",
"186 449 CURVE SMOOTH",
"109 652 LINE SMOOTH",
"108 655 OFFCURVE",
"107 655 OFFCURVE",
"105 655 CURVE SMOOTH",
"95 655 LINE SMOOTH",
"93 655 OFFCURVE",
"91 654 OFFCURVE",
"92 650 CURVE SMOOTH",
"210 337 LINE",
"-18 4 LINE SMOOTH",
"-20 2 OFFCURVE",
"-19 0 OFFCURVE",
"-16 0 CURVE SMOOTH"
);
}
);
width = 395;
},
{
layerId = "7BFDDD14-D104-4977-93DD-3DA2763EA456";
paths = (
{
closed = 1;
nodes = (
"45 0 LINE SMOOTH",
"50 0 OFFCURVE",
"53 3 OFFCURVE",
"56 8 CURVE SMOOTH",
"166 178 LINE SMOOTH",
"186 211 OFFCURVE",
"205 245 OFFCURVE",
"224 278 CURVE",
"225 278 LINE",
"233 244 OFFCURVE",
"243 210 OFFCURVE",
"252 176 CURVE SMOOTH",
"305 8 LINE SMOOTH",
"306 2 OFFCURVE",
"309 0 OFFCURVE",
"314 0 CURVE SMOOTH",
"372 0 LINE SMOOTH",
"379 0 OFFCURVE",
"383 3 OFFCURVE",
"381 10 CURVE SMOOTH",
"275 336 LINE",
"473 645 LINE SMOOTH",
"476 652 OFFCURVE",
"473 655 OFFCURVE",
"467 655 CURVE SMOOTH",
"406 655 LINE SMOOTH",
"401 655 OFFCURVE",
"398 652 OFFCURVE",
"395 647 CURVE SMOOTH",
"297 494 LINE SMOOTH",
"277 461 OFFCURVE",
"258 428 OFFCURVE",
"239 395 CURVE",
"238 395 LINE",
"230 428 OFFCURVE",
"221 461 OFFCURVE",
"212 494 CURVE SMOOTH",
"163 647 LINE SMOOTH",
"162 653 OFFCURVE",
"159 655 OFFCURVE",
"154 655 CURVE SMOOTH",
"95 655 LINE SMOOTH",
"88 655 OFFCURVE",
"85 652 OFFCURVE",
"86 645 CURVE SMOOTH",
"187 338 LINE",
"-24 10 LINE SMOOTH",
"-27 4 OFFCURVE",
"-25 0 OFFCURVE",
"-18 0 CURVE SMOOTH"
);
}
);
width = 413;
},
{
layerId = "84FABC8E-B1B3-42CE-8CB3-674F4218367A";
paths = (
{
closed = 1;
nodes = (
"143 0 LINE SMOOTH",
"152 0 OFFCURVE",
"157 6 OFFCURVE",
"161 14 CURVE SMOOTH",
"219 120 LINE SMOOTH",
"233 149 OFFCURVE",
"248 179 OFFCURVE",
"262 208 CURVE",
"264 208 LINE",
"269 179 OFFCURVE",
"274 149 OFFCURVE",
"281 119 CURVE SMOOTH",
"304 14 LINE SMOOTH",
"306 5 OFFCURVE",
"310 0 OFFCURVE",
"320 0 CURVE SMOOTH",
"470 0 LINE SMOOTH",
"479 0 OFFCURVE",
"485 6 OFFCURVE",
"482 15 CURVE SMOOTH",
"370 335 LINE",
"572 640 LINE SMOOTH",
"576 648 OFFCURVE",
"572 655 OFFCURVE",
"564 655 CURVE SMOOTH",
"403 655 LINE SMOOTH",
"396 655 OFFCURVE",
"391 650 OFFCURVE",
"387 641 CURVE SMOOTH",
"342 551 LINE SMOOTH",
"327 521 OFFCURVE",
"313 491 OFFCURVE",
"300 461 CURVE",
"298 461 LINE",
"293 490 OFFCURVE",
"288 520 OFFCURVE",
"281 550 CURVE SMOOTH",
"259 641 LINE SMOOTH",
"257 650 OFFCURVE",
"254 655 OFFCURVE",
"244 655 CURVE SMOOTH",
"96 655 LINE SMOOTH",
"86 655 OFFCURVE",
"80 649 OFFCURVE",
"83 640 CURVE SMOOTH",
"189 335 LINE",
"-26 15 LINE SMOOTH",
"-30 7 OFFCURVE",
"-27 0 OFFCURVE",
"-17 0 CURVE SMOOTH"
);
}
);
width = 511;
}
);
leftKerningGroup = X;
rightKerningGroup = X;
unicode = 0058;
},
{
glyphname = Y;
lastChange = "2022-10-27 03:39:12 +0000";
layers = (
{
anchors = (
{
name = bottom;
position = "{163, 0}";
},
{
name = top;
position = "{260, 655}";
},
{
name = topleft;
position = "{92, 655}";
}
);
layerId = "C7C49F0D-FB24-4177-B585-680F100D73B3";
paths = (
{
closed = 1;
nodes = (
"167 0 LINE SMOOTH",
"169 0 OFFCURVE",
"170 0 OFFCURVE",
"171 5 CURVE SMOOTH",
"206 225 LINE",
"442 651 LINE SMOOTH",
"444 654 OFFCURVE",
"442 655 OFFCURVE",
"440 655 CURVE SMOOTH",
"431 655 LINE SMOOTH",
"428 655 OFFCURVE",
"427 655 OFFCURVE",
"425 651 CURVE SMOOTH",
"269 369 LINE SMOOTH",
"246 329 OFFCURVE",
"224 288 OFFCURVE",
"202 248 CURVE",
"201 248 LINE",
"191 289 OFFCURVE",
"181 331 OFFCURVE",
"171 372 CURVE SMOOTH",
"106 651 LINE SMOOTH",
"105 655 OFFCURVE",
"104 655 OFFCURVE",
"101 655 CURVE SMOOTH",
"92 655 LINE SMOOTH",
"90 655 OFFCURVE",
"88 654 OFFCURVE",
"89 650 CURVE SMOOTH",
"190 225 LINE",
"155 5 LINE SMOOTH",
"154 0 OFFCURVE",
"156 0 OFFCURVE",
"159 0 CURVE SMOOTH"
);
}
);
width = 384;
},
{
anchors = (
{
name = bottom;
position = "{171, 0}";
},
{
name = top;
position = "{273, 655}";
},
{
name = topleft;
position = "{87, 655}";
}
);
layerId = "7BFDDD14-D104-4977-93DD-3DA2763EA456";
paths = (
{
closed = 1;
nodes = (
"201 0 LINE SMOOTH",
"206 0 OFFCURVE",
"209 3 OFFCURVE",
"210 9 CURVE SMOOTH",
"244 225 LINE",
"471 645 LINE SMOOTH",
"474 652 OFFCURVE",
"471 655 OFFCURVE",
"465 655 CURVE SMOOTH",
"405 655 LINE SMOOTH",
"399 655 OFFCURVE",
"396 652 OFFCURVE",
"393 646 CURVE SMOOTH",
"282 431 LINE SMOOTH",
"261 390 OFFCURVE",
"241 349 OFFCURVE",
"222 308 CURVE",
"221 308 LINE",
"214 350 OFFCURVE",
"206 391 OFFCURVE",
"198 432 CURVE SMOOTH",
"158 646 LINE SMOOTH",
"156 652 OFFCURVE",
"153 655 OFFCURVE",
"148 655 CURVE SMOOTH",
"91 655 LINE SMOOTH",
"85 655 OFFCURVE",
"81 652 OFFCURVE",
"82 645 CURVE SMOOTH",
"175 224 LINE",
"141 9 LINE SMOOTH",
"140 3 OFFCURVE",
"144 0 OFFCURVE",
"149 0 CURVE SMOOTH"
);
}
);
width = 408;
},
{
anchors = (
{
name = bottom;
position = "{223, 0}";
},
{
name = top;
position = "{320, 655}";
},
{
name = topleft;
position = "{83.004, 655}";
}
);
layerId = "84FABC8E-B1B3-42CE-8CB3-674F4218367A";
paths = (
{
closed = 1;
nodes = (
"291 0 LINE SMOOTH",
"300 0 OFFCURVE",
"305 6 OFFCURVE",
"306 15 CURVE SMOOTH",
"340 227 LINE",
"576 640 LINE SMOOTH",
"580 649 OFFCURVE",
"575 655 OFFCURVE",
"567.005 655 CURVE SMOOTH",
"413 655 LINE SMOOTH",
"405 655 OFFCURVE",
"400 649 OFFCURVE",
"396 641 CURVE SMOOTH",
"333 496 LINE SMOOTH",
"314 454 OFFCURVE",
"297 414 OFFCURVE",
"279 372 CURVE",
"277 372 LINE",
"273 414 OFFCURVE",
"268 456 OFFCURVE",
"262 498 CURVE SMOOTH",
"245 641 LINE SMOOTH",
"243 650 OFFCURVE",
"239 655 OFFCURVE",
"230 655 CURVE SMOOTH",
"87 655 LINE SMOOTH",
"78 655 OFFCURVE",
"72 649 OFFCURVE",
"74 640 CURVE SMOOTH",
"180 227 LINE",
"146 15 LINE SMOOTH",
"144 5 OFFCURVE",
"150 0 OFFCURVE",
"160 0 CURVE SMOOTH"
);
}
);
width = 507;
}
);
leftKerningGroup = Y;
rightKerningGroup = Y;
unicode = 0059;
},
{
glyphname = Z;
lastChange = "2022-10-27 03:39:12 +0000";
layers = (
{
anchors = (
{
name = bottom;
position = "{162, 0}";
},
{
name = top;
position = "{276, 655}";
}
);
layerId = "C7C49F0D-FB24-4177-B585-680F100D73B3";
paths = (
{
closed = 1;
nodes = (
"312 0 LINE SMOOTH",
"315 0 OFFCURVE",
"316 0 OFFCURVE",
"317 3 CURVE SMOOTH",
"319 12 LINE SMOOTH",
"320 16 OFFCURVE",
"318 16 OFFCURVE",
"316 16 CURVE SMOOTH",
"115 16 LINE SMOOTH",
"82 16 OFFCURVE",
"48 16 OFFCURVE",
"15 16 CURVE",
"15 17 LINE",
"36 49 OFFCURVE",
"58 81 OFFCURVE",
"79 113 CURVE SMOOTH",
"430 641 LINE SMOOTH",
"432 643 OFFCURVE",
"433 644 OFFCURVE",
"434 647 CURVE SMOOTH",
"435 651 LINE SMOOTH",
"436 655 OFFCURVE",
"433 655 OFFCURVE",
"431 655 CURVE SMOOTH",
"124 655 LINE SMOOTH",
"121 655 OFFCURVE",
"120 655 OFFCURVE",
"119 652 CURVE SMOOTH",
"117 643 LINE SMOOTH",
"116 639 OFFCURVE",
"118 639 OFFCURVE",
"120 639 CURVE SMOOTH",
"307 639 LINE SMOOTH",
"341 639 OFFCURVE",
"375 639 OFFCURVE",
"409 639 CURVE",
"409 638 LINE",
"391 610 OFFCURVE",
"371 581 OFFCURVE",
"353 553 CURVE SMOOTH",
"-5 16 LINE SMOOTH",
"-7 13 OFFCURVE",
"-7 12 OFFCURVE",
"-8 8 CURVE SMOOTH",
"-9 4 LINE SMOOTH",
"-10 0 OFFCURVE",
"-9 0 OFFCURVE",
"-6 0 CURVE SMOOTH"
);
}
);
width = 384;
},
{
anchors = (
{
name = bottom;
position = "{169, 0}";
},
{
name = top;
position = "{280, 655}";
}
);
layerId = "7BFDDD14-D104-4977-93DD-3DA2763EA456";
paths = (
{
closed = 1;
nodes = (
"333 0 LINE SMOOTH",
"339 0 OFFCURVE",
"342 3 OFFCURVE",
"343 9 CURVE SMOOTH",
"351 57 LINE SMOOTH",
"352 63 OFFCURVE",
"349 66 OFFCURVE",
"343 66 CURVE SMOOTH",
"189 66 LINE SMOOTH",
"159 66 OFFCURVE",
"129 66 OFFCURVE",
"97 66 CURVE",
"97 67 LINE",
"116 97 OFFCURVE",
"136 126 OFFCURVE",
"155 157 CURVE SMOOTH",
"457 632 LINE SMOOTH",
"459 636 OFFCURVE",
"461 639 OFFCURVE",
"462 643 CURVE SMOOTH",
"462 648 LINE SMOOTH",
"463 653 OFFCURVE",
"461 655 OFFCURVE",
"455 655 CURVE SMOOTH",
"121 655 LINE SMOOTH",
"115 655 OFFCURVE",
"112 652 OFFCURVE",
"111 646 CURVE SMOOTH",
"103 598 LINE SMOOTH",
"102 592 OFFCURVE",
"105 589 OFFCURVE",
"111 589 CURVE SMOOTH",
"259 589 LINE SMOOTH",
"289 589 OFFCURVE",
"318 589 OFFCURVE",
"349 589 CURVE",
"349 588 LINE",
"328 555 OFFCURVE",
"306 521 OFFCURVE",
"285 487 CURVE SMOOTH",
"-8 23 LINE SMOOTH",
"-11 19 OFFCURVE",
"-13 16 OFFCURVE",
"-13 11 CURVE SMOOTH",
"-14 7 LINE SMOOTH",
"-15 2 OFFCURVE",
"-12 0 OFFCURVE",
"-7 0 CURVE SMOOTH"
);
}
);
width = 406;
},
{
anchors = (
{
name = bottom;
position = "{201, 0}";
},
{
name = top;
position = "{318, 655}";
}
);
layerId = "84FABC8E-B1B3-42CE-8CB3-674F4218367A";
paths = (
{
closed = 1;
nodes = (
"396 0 LINE SMOOTH",
"404 0 OFFCURVE",
"410 7 OFFCURVE",
"411 15 CURVE SMOOTH",
"429 129 LINE SMOOTH",
"431 139 OFFCURVE",
"425 144 OFFCURVE",
"416 144 CURVE SMOOTH",
"309 144 LINE SMOOTH",
"280 144 OFFCURVE",
"248 144 OFFCURVE",
"219 142 CURVE",
"219 144 LINE",
"242 175 OFFCURVE",
"268 213 OFFCURVE",
"291 250 CURVE SMOOTH",
"521 617 LINE SMOOTH",
"524 622 OFFCURVE",
"527 628 OFFCURVE",
"528 634 CURVE SMOOTH",
"529 641 LINE SMOOTH",
"530 649 OFFCURVE",
"526 655 OFFCURVE",
"518 655 CURVE SMOOTH",
"116 655 LINE SMOOTH",
"108 655 OFFCURVE",
"102 649 OFFCURVE",
"101 640 CURVE SMOOTH",
"82 526 LINE SMOOTH",
"80 516 OFFCURVE",
"86 511 OFFCURVE",
"95 511 CURVE SMOOTH",
"193 511 LINE SMOOTH",
"222 511 OFFCURVE",
"256 512 OFFCURVE",
"285 513 CURVE",
"285 511 LINE",
"264 481 OFFCURVE",
"238 442 OFFCURVE",
"216 406 CURVE SMOOTH",
"-12 38 LINE SMOOTH",
"-16 33 OFFCURVE",
"-18 27 OFFCURVE",
"-18 21 CURVE SMOOTH",
"-19 14 LINE SMOOTH",
"-21 6 OFFCURVE",
"-17 0 OFFCURVE",
"-10 0 CURVE SMOOTH"
);
}
);
width = 467;
}
);
leftKerningGroup = Z;
rightKerningGroup = Z;
unicode = 005A;
},
{
glyphname = a;
lastChange = "2022-10-27 03:39:12 +0000";
layers = (
{
anchors = (
{
name = bottom;
position = "{153, 0}";
},
{
name = ogonek;
position = "{308, 10}";
},
{
name = top;
position = "{237, 478}";
}
);
layerId = "C7C49F0D-FB24-4177-B585-680F100D73B3";
paths = (
{
closed = 1;
nodes = (
"187 -8 OFFCURVE",
"241 29 OFFCURVE",
"295 86 CURVE",
"291 60 OFFCURVE",
"287 30 OFFCURVE",
"286 3 CURVE SMOOTH",
"286 0 OFFCURVE",
"287 0 OFFCURVE",
"289 0 CURVE SMOOTH",
"299 0 LINE SMOOTH",
"301 0 OFFCURVE",
"302 1 OFFCURVE",
"302 3 CURVE SMOOTH",
"304 34 OFFCURVE",
"308 61 OFFCURVE",
"316 111 CURVE SMOOTH",
"371 462 LINE",
"324 472 OFFCURVE",
"283 486 OFFCURVE",
"237 486 CURVE SMOOTH",
"150 486 OFFCURVE",
"96 441 OFFCURVE",
"79 334 CURVE SMOOTH",
"48 136 LINE SMOOTH",
"32 36 OFFCURVE",
"61 -8 OFFCURVE",
"132 -8 CURVE SMOOTH"
);
},
{
closed = 1;
nodes = (
"70 8 OFFCURVE",
"50 48 OFFCURVE",
"64 138 CURVE SMOOTH",
"95 333 LINE SMOOTH",
"110 430 OFFCURVE",
"161 470 OFFCURVE",
"237 470 CURVE SMOOTH",
"271 470 OFFCURVE",
"313 460 OFFCURVE",
"353 450 CURVE",
"299 108 LINE",
"237 46 OFFCURVE",
"186 8 OFFCURVE",
"133 8 CURVE SMOOTH"
);
}
);
width = 399;
},
{
anchors = (
{
name = bottom;
position = "{162, 0}";
},
{
name = ogonek;
position = "{329, 10}";
},
{
name = top;
position = "{247, 487}";
}
);
layerId = "7BFDDD14-D104-4977-93DD-3DA2763EA456";
paths = (
{
closed = 1;
nodes = (
"175 -8 OFFCURVE",
"221 20 OFFCURVE",
"265 64 CURVE",
"263 45 OFFCURVE",
"262 26 OFFCURVE",
"261 9 CURVE SMOOTH",
"261 3 OFFCURVE",
"264 0 OFFCURVE",
"270 0 CURVE SMOOTH",
"315 0 LINE SMOOTH",
"322 0 OFFCURVE",
"325 3 OFFCURVE",
"325 9 CURVE SMOOTH",
"325 36 OFFCURVE",
"329 70 OFFCURVE",
"338 121 CURVE SMOOTH",
"394 474 LINE",
"337 479 OFFCURVE",
"296 495 OFFCURVE",
"239 495 CURVE SMOOTH",
"140 495 OFFCURVE",
"88 448 OFFCURVE",
"69 328 CURVE SMOOTH",
"40 145 LINE SMOOTH",
"24 45 OFFCURVE",
"54 -8 OFFCURVE",
"125 -8 CURVE SMOOTH"
);
},
{
closed = 1;
nodes = (
"110 57 OFFCURVE",
"99 87 OFFCURVE",
"108 145 CURVE SMOOTH",
"137 322 LINE SMOOTH",
"149 400 OFFCURVE",
"178 429 OFFCURVE",
"237 429 CURVE SMOOTH",
"261 429 OFFCURVE",
"292 425 OFFCURVE",
"316 419 CURVE",
"270 126 LINE",
"224 81 OFFCURVE",
"187 57 OFFCURVE",
"153 57 CURVE SMOOTH"
);
}
);
width = 405;
},
{
anchors = (
{
name = bottom;
position = "{190, 0}";
},
{
name = ogonek;
position = "{391, 10}";
},
{
name = top;
position = "{271, 497}";
}
);
layerId = "84FABC8E-B1B3-42CE-8CB3-674F4218367A";
paths = (
{
closed = 1;
nodes = (
"158 -8 OFFCURVE",
"210 17 OFFCURVE",
"257 64 CURVE",
"255 46 OFFCURVE",
"254 29 OFFCURVE",
"255 15 CURVE SMOOTH",
"255 5 OFFCURVE",
"259 0 OFFCURVE",
"269 0 CURVE SMOOTH",
"376 0 LINE SMOOTH",
"385 0 OFFCURVE",
"390 5 OFFCURVE",
"391 15 CURVE SMOOTH",
"393 48 OFFCURVE",
"399 88 OFFCURVE",
"406 131 CURVE SMOOTH",
"462 487 LINE",
"398 490 OFFCURVE",
"332 507 OFFCURVE",
"250 507 CURVE SMOOTH",
"127 507 OFFCURVE",
"70 458 OFFCURVE",
"50 339 CURVE SMOOTH",
"20 149 LINE SMOOTH",
"2 44 OFFCURVE",
"30 -8 OFFCURVE",
"107 -8 CURVE SMOOTH"
);
},
{
closed = 1;
nodes = (
"181 128 OFFCURVE",
"174 142 OFFCURVE",
"179 173 CURVE SMOOTH",
"205 330 LINE SMOOTH",
"210 365 OFFCURVE",
"222 379 OFFCURVE",
"250 379 CURVE SMOOTH",
"264 379 OFFCURVE",
"276 377 OFFCURVE",
"289 374 CURVE",
"253 150 LINE",
"235 136 OFFCURVE",
"220 128 OFFCURVE",
"204 128 CURVE SMOOTH"
);
}
);
width = 448;
}
);
leftKerningGroup = o;
leftMetricsKey = o;
rightKerningGroup = u;
rightMetricsKey = u;
unicode = 0061;
},
{
glyphname = ae;
lastChange = "2022-10-27 03:39:12 +0000";
layers = (
{
layerId = "C7C49F0D-FB24-4177-B585-680F100D73B3";
paths = (
{
closed = 1;
nodes = (
"161 -8 OFFCURVE",
"204 18 OFFCURVE",
"267 89 CURVE",
"275 25 OFFCURVE",
"315 -8 OFFCURVE",
"385 -8 CURVE SMOOTH",
"469 -8 OFFCURVE",
"512 30 OFFCURVE",
"522 117 CURVE SMOOTH",
"523 121 OFFCURVE",
"522 122 OFFCURVE",
"519 122 CURVE SMOOTH",
"510 122 LINE SMOOTH",
"508 122 OFFCURVE",
"507 121 OFFCURVE",
"507 118 CURVE SMOOTH",
"497 41 OFFCURVE",
"460 8 OFFCURVE",
"386 8 CURVE SMOOTH",
"305 8 OFFCURVE",
"270 58 OFFCURVE",
"284 152 CURVE SMOOTH",
"299 245 LINE",
"413 254 LINE SMOOTH",
"524 263 OFFCURVE",
"564 306 OFFCURVE",
"564 388 CURVE SMOOTH",
"564 452 OFFCURVE",
"523 486 OFFCURVE",
"451 486 CURVE SMOOTH",
"390 486 OFFCURVE",
"342 461 OFFCURVE",
"318 405 CURVE",
"314 459 OFFCURVE",
"280 486 OFFCURVE",
"223 486 CURVE SMOOTH",
"146 486 OFFCURVE",
"106 448 OFFCURVE",
"99 367 CURVE SMOOTH",
"99 364 OFFCURVE",
"99 363 OFFCURVE",
"102 363 CURVE SMOOTH",
"112 363 LINE SMOOTH",
"114 363 OFFCURVE",
"115 364 OFFCURVE",
"115 367 CURVE SMOOTH",
"122 439 OFFCURVE",
"155 470 OFFCURVE",
"220 470 CURVE SMOOTH",
"286 470 OFFCURVE",
"312 438 OFFCURVE",
"298 346 CURVE SMOOTH",
"285 259 LINE",
"180 250 LINE SMOOTH",
"80 240 OFFCURVE",
"34 183 OFFCURVE",
"34 87 CURVE SMOOTH",
"34 26 OFFCURVE",
"62 -8 OFFCURVE",
"111 -8 CURVE SMOOTH"
);
},
{
closed = 1;
nodes = (
"73 8 OFFCURVE",
"50 36 OFFCURVE",
"50 89 CURVE SMOOTH",
"50 172 OFFCURVE",
"92 225 OFFCURVE",
"177 234 CURVE SMOOTH",
"282 244 LINE",
"270 158 LINE SMOOTH",
"267 139 OFFCURVE",
"266 125 OFFCURVE",
"265 110 CURVE",
"204 38 OFFCURVE",
"160 8 OFFCURVE",
"113 8 CURVE SMOOTH"
);
},
{
closed = 1;
nodes = (
"314 339 LINE SMOOTH",
"328 426 OFFCURVE",
"373 470 OFFCURVE",
"449 470 CURVE SMOOTH",
"513 470 OFFCURVE",
"548 441 OFFCURVE",
"548 387 CURVE SMOOTH",
"548 310 OFFCURVE",
"509 278 OFFCURVE",
"411 269 CURVE SMOOTH",
"301 260 LINE"
);
}
);
width = 592;
},
{
layerId = "7BFDDD14-D104-4977-93DD-3DA2763EA456";
paths = (
{
closed = 1;
nodes = (
"170 -8 OFFCURVE",
"210 13 OFFCURVE",
"261 69 CURVE",
"277 17 OFFCURVE",
"318 -8 OFFCURVE",
"383 -8 CURVE SMOOTH",
"473 -8 OFFCURVE",
"529 38 OFFCURVE",
"537 124 CURVE SMOOTH",
"538 130 OFFCURVE",
"535 133 OFFCURVE",
"528 133 CURVE SMOOTH",
"479 133 LINE SMOOTH",
"473 133 OFFCURVE",
"470 131 OFFCURVE",
"469 124 CURVE SMOOTH",
"463 80 OFFCURVE",
"435 57 OFFCURVE",
"391 57 CURVE SMOOTH",
"337 57 OFFCURVE",
"312 92 OFFCURVE",
"322 157 CURVE SMOOTH",
"333 226 LINE",
"424 230 LINE SMOOTH",
"525 237 OFFCURVE",
"578 293 OFFCURVE",
"578 381 CURVE SMOOTH",
"578 456 OFFCURVE",
"536 495 OFFCURVE",
"456 495 CURVE SMOOTH",
"405 495 OFFCURVE",
"364 476 OFFCURVE",
"335 436 CURVE",
"318 476 OFFCURVE",
"284 495 OFFCURVE",
"229 495 CURVE SMOOTH",
"144 495 OFFCURVE",
"91 447 OFFCURVE",
"90 364 CURVE SMOOTH",
"90 358 OFFCURVE",
"93 354 OFFCURVE",
"99 354 CURVE SMOOTH",
"148 354 LINE SMOOTH",
"154 354 OFFCURVE",
"157 358 OFFCURVE",
"158 364 CURVE SMOOTH",
"162 408 OFFCURVE",
"186 429 OFFCURVE",
"229 429 CURVE SMOOTH",
"277 429 OFFCURVE",
"293 403 OFFCURVE",
"281 336 CURVE SMOOTH",
"273 283 LINE",
"215 280 LINE SMOOTH",
"93 272 OFFCURVE",
"33 212 OFFCURVE",
"33 104 CURVE SMOOTH",
"33 34 OFFCURVE",
"66 -8 OFFCURVE",
"122 -8 CURVE SMOOTH"
);
},
{
closed = 1;
nodes = (
"116 58 OFFCURVE",
"103 75 OFFCURVE",
"103 112 CURVE SMOOTH",
"103 177 OFFCURVE",
"140 216 OFFCURVE",
"212 221 CURVE SMOOTH",
"263 223 LINE",
"256 177 LINE SMOOTH",
"253 158 OFFCURVE",
"252 141 OFFCURVE",
"252 126 CURVE",
"208 78 OFFCURVE",
"176 58 OFFCURVE",
"145 58 CURVE SMOOTH"
);
},
{
closed = 1;
nodes = (
"350 330 LINE SMOOTH",
"361 400 OFFCURVE",
"390 429 OFFCURVE",
"445 429 CURVE SMOOTH",
"486 429 OFFCURVE",
"508 410 OFFCURVE",
"508 373 CURVE SMOOTH",
"508 320 OFFCURVE",
"478 293 OFFCURVE",
"416 289 CURVE SMOOTH",
"343 286 LINE"
);
}
);
width = 594;
},
{
layerId = "84FABC8E-B1B3-42CE-8CB3-674F4218367A";
paths = (
{
closed = 1;
nodes = (
"164 -8 OFFCURVE",
"209 16 OFFCURVE",
"260 69 CURVE",
"288 18 OFFCURVE",
"338 -8 OFFCURVE",
"418 -8 CURVE SMOOTH",
"548 -8 OFFCURVE",
"614 41 OFFCURVE",
"623 149 CURVE SMOOTH",
"624 158 OFFCURVE",
"620 163 OFFCURVE",
"610 163 CURVE SMOOTH",
"490 163 LINE SMOOTH",
"482 163 OFFCURVE",
"476 157 OFFCURVE",
"475 149 CURVE SMOOTH",
"472 121 OFFCURVE",
"458 110 OFFCURVE",
"431 110 CURVE SMOOTH",
"402 110 OFFCURVE",
"389 128 OFFCURVE",
"395 165 CURVE SMOOTH",
"402 207 LINE",
"484 211 LINE SMOOTH",
"604 218 OFFCURVE",
"663 274 OFFCURVE",
"663 382 CURVE SMOOTH",
"663 464 OFFCURVE",
"606 507 OFFCURVE",
"513 507 CURVE SMOOTH",
"457 507 OFFCURVE",
"410 491 OFFCURVE",
"374 455 CURVE",
"349 490 OFFCURVE",
"310 507 OFFCURVE",
"248 507 CURVE SMOOTH",
"134 507 OFFCURVE",
"68 453 OFFCURVE",
"62 345 CURVE SMOOTH",
"62 336 OFFCURVE",
"67 330 OFFCURVE",
"76 330 CURVE SMOOTH",
"189 330 LINE SMOOTH",
"197 330 OFFCURVE",
"203 336 OFFCURVE",
"203 345 CURVE SMOOTH",
"204 377 OFFCURVE",
"216 392 OFFCURVE",
"242 392 CURVE SMOOTH",
"267 392 OFFCURVE",
"276 376 OFFCURVE",
"270 344 CURVE SMOOTH",
"262 292 LINE",
"195 288 LINE SMOOTH",
"64 277 OFFCURVE",
"6 216 OFFCURVE",
"6 101 CURVE SMOOTH",
"6 33 OFFCURVE",
"45 -8 OFFCURVE",
"109 -8 CURVE SMOOTH"
);
},
{
closed = 1;
nodes = (
"167 108 OFFCURVE",
"159 118 OFFCURVE",
"159 142 CURVE SMOOTH",
"159 180 OFFCURVE",
"178 202 OFFCURVE",
"220 205 CURVE SMOOTH",
"248 206 LINE",
"246 191 LINE SMOOTH",
"243 172 OFFCURVE",
"241 155 OFFCURVE",
"242 139 CURVE",
"221 118 OFFCURVE",
"202 108 OFFCURVE",
"185 108 CURVE SMOOTH"
);
},
{
closed = 1;
nodes = (
"422 335 LINE SMOOTH",
"428 372 OFFCURVE",
"444 389 OFFCURVE",
"474 389 CURVE SMOOTH",
"497 389 OFFCURVE",
"509 377 OFFCURVE",
"509 355 CURVE SMOOTH",
"509 321 OFFCURVE",
"489 301 OFFCURVE",
"451 298 CURVE SMOOTH",
"416 296 LINE"
);
}
);
width = 662;
}
);
leftKerningGroup = ae;
rightKerningGroup = e;
rightMetricsKey = e;
unicode = 00E6;
},
{
glyphname = b;
lastChange = "2022-10-27 03:39:12 +0000";
layers = (
{
layerId = "C7C49F0D-FB24-4177-B585-680F100D73B3";
paths = (
{
closed = 1;
nodes = (
"265 -8 OFFCURVE",
"322 36 OFFCURVE",
"339 146 CURVE SMOOTH",
"369 348 LINE SMOOTH",
"384 441 OFFCURVE",
"356 486 OFFCURVE",
"289 486 CURVE SMOOTH",
"234 486 OFFCURVE",
"179 451 OFFCURVE",
"115 389 CURVE",
"112 369 LINE",
"180 433 OFFCURVE",
"236 470 OFFCURVE",
"288 470 CURVE SMOOTH",
"343 470 OFFCURVE",
"366 430 OFFCURVE",
"353 348 CURVE SMOOTH",
"323 145 LINE SMOOTH",
"308 49 OFFCURVE",
"256 8 OFFCURVE",
"181 8 CURVE SMOOTH",
"149 8 OFFCURVE",
"110 16 OFFCURVE",
"63 28 CURVE",
"166 679 LINE SMOOTH",
"167 683 OFFCURVE",
"165 683 OFFCURVE",
"162 683 CURVE SMOOTH",
"155 683 LINE SMOOTH",
"152 683 OFFCURVE",
"151 683 OFFCURVE",
"150 679 CURVE SMOOTH",
"45 16 LINE",
"93 5 OFFCURVE",
"134 -8 OFFCURVE",
"179 -8 CURVE SMOOTH"
);
}
);
width = 403;
},
{
layerId = "7BFDDD14-D104-4977-93DD-3DA2763EA456";
paths = (
{
closed = 1;
nodes = (
"281 -8 OFFCURVE",
"334 44 OFFCURVE",
"354 167 CURVE SMOOTH",
"382 349 LINE SMOOTH",
"397 445 OFFCURVE",
"369 495 OFFCURVE",
"296 495 CURVE SMOOTH",
"246 495 OFFCURVE",
"199 467 OFFCURVE",
"148 416 CURVE",
"138 350 LINE",
"191 401 OFFCURVE",
"234 429 OFFCURVE",
"269 429 CURVE SMOOTH",
"306 429 OFFCURVE",
"322 404 OFFCURVE",
"312 344 CURVE SMOOTH",
"285 171 LINE SMOOTH",
"272 89 OFFCURVE",
"241 57 OFFCURVE",
"182 57 CURVE SMOOTH",
"158 57 OFFCURVE",
"130 61 OFFCURVE",
"106 67 CURVE",
"202 673 LINE SMOOTH",
"203 679 OFFCURVE",
"201 683 OFFCURVE",
"195 683 CURVE SMOOTH",
"143 683 LINE SMOOTH",
"138 683 OFFCURVE",
"134 680 OFFCURVE",
"133 674 CURVE SMOOTH",
"28 11 LINE",
"86 5 OFFCURVE",
"125 -8 OFFCURVE",
"179 -8 CURVE SMOOTH"
);
}
);
width = 405;
},
{
layerId = "84FABC8E-B1B3-42CE-8CB3-674F4218367A";
paths = (
{
closed = 1;
nodes = (
"337 -8 OFFCURVE",
"396 44 OFFCURVE",
"416 164 CURVE SMOOTH",
"448 365 LINE SMOOTH",
"464 462 OFFCURVE",
"433 507 OFFCURVE",
"359 507 CURVE SMOOTH",
"310 507 OFFCURVE",
"265 486 OFFCURVE",
"214 443 CURVE",
"200 343 LINE",
"224 361 OFFCURVE",
"244 371 OFFCURVE",
"262 371 CURVE SMOOTH",
"282 371 OFFCURVE",
"291 359 OFFCURVE",
"286 329 CURVE SMOOTH",
"261 171 LINE SMOOTH",
"255 135 OFFCURVE",
"241 120 OFFCURVE",
"215 120 CURVE SMOOTH",
"201 120 OFFCURVE",
"189 122 OFFCURVE",
"178 124 CURVE SMOOTH",
"265 668 LINE SMOOTH",
"266 677 OFFCURVE",
"261 683 OFFCURVE",
"252 683 CURVE SMOOTH",
"124 683 LINE SMOOTH",
"116 683 OFFCURVE",
"110 678 OFFCURVE",
"109 668 CURVE SMOOTH",
"5 13 LINE",
"69 6 OFFCURVE",
"132 -8 OFFCURVE",
"209 -8 CURVE SMOOTH"
);
}
);
width = 448;
}
);
leftKerningGroup = h;
leftMetricsKey = h;
rightKerningGroup = o;
rightMetricsKey = "=o+2";
unicode = 0062;
},
{
glyphname = c;
lastChange = "2022-10-27 03:39:12 +0000";
layers = (
{
anchors = (
{
name = bottom;
position = "{153, 0}";
},
{
name = top;
position = "{234, 478}";
}
);
layerId = "C7C49F0D-FB24-4177-B585-680F100D73B3";
paths = (
{
closed = 1;
nodes = (
"253 -7 OFFCURVE",
"298 37 OFFCURVE",
"312 137 CURVE SMOOTH",
"312 142 OFFCURVE",
"311 142 OFFCURVE",
"309 142 CURVE SMOOTH",
"299 142 LINE SMOOTH",
"297 142 OFFCURVE",
"296 141 OFFCURVE",
"296 138 CURVE SMOOTH",
"283 48 OFFCURVE",
"243 8 OFFCURVE",
"167 8 CURVE SMOOTH",
"88 8 OFFCURVE",
"53 60 OFFCURVE",
"67 152 CURVE SMOOTH",
"96 339 LINE SMOOTH",
"110 426 OFFCURVE",
"155 470 OFFCURVE",
"230 470 CURVE SMOOTH",
"305 470 OFFCURVE",
"343 423 OFFCURVE",
"329 349 CURVE SMOOTH",
"328 346 OFFCURVE",
"329 345 OFFCURVE",
"332 345 CURVE SMOOTH",
"341 345 LINE SMOOTH",
"344 345 OFFCURVE",
"344 346 OFFCURVE",
"345 349 CURVE SMOOTH",
"361 433 OFFCURVE",
"316 486 OFFCURVE",
"232 486 CURVE SMOOTH",
"146 486 OFFCURVE",
"95 437 OFFCURVE",
"80 340 CURVE SMOOTH",
"51 152 LINE SMOOTH",
"35 51 OFFCURVE",
"78 -9 OFFCURVE",
"166 -8 CURVE SMOOTH"
);
}
);
width = 373;
},
{
anchors = (
{
name = bottom;
position = "{173, 0}";
},
{
name = top;
position = "{242, 487}";
}
);
layerId = "7BFDDD14-D104-4977-93DD-3DA2763EA456";
paths = (
{
closed = 1;
nodes = (
"273 -8 OFFCURVE",
"329 43 OFFCURVE",
"337.996 141 CURVE SMOOTH",
"339 148 OFFCURVE",
"336 151 OFFCURVE",
"330 151 CURVE SMOOTH",
"281 151 LINE SMOOTH",
"275 151 OFFCURVE",
"272 148 OFFCURVE",
"271 141 CURVE SMOOTH",
"264 86 OFFCURVE",
"238 57 OFFCURVE",
"182 57 CURVE SMOOTH",
"123 57 OFFCURVE",
"101 94 OFFCURVE",
"114 171 CURVE SMOOTH",
"137 316 LINE SMOOTH",
"151 398 OFFCURVE",
"177 429 OFFCURVE",
"237 429 CURVE SMOOTH",
"288 429 OFFCURVE",
"314 399 OFFCURVE",
"305 346 CURVE SMOOTH",
"304 340 OFFCURVE",
"306 336 OFFCURVE",
"313 336 CURVE SMOOTH",
"361 336 LINE SMOOTH",
"367 336 OFFCURVE",
"369 339 OFFCURVE",
"371 346 CURVE SMOOTH",
"393 437 OFFCURVE",
"339 495 OFFCURVE",
"244 495 CURVE SMOOTH",
"140 495 OFFCURVE",
"88 442 OFFCURVE",
"69 324 CURVE SMOOTH",
"44 168 LINE SMOOTH",
"26 56 OFFCURVE",
"70 -8 OFFCURVE",
"175 -8 CURVE SMOOTH"
);
}
);
width = 392;
},
{
anchors = (
{
name = bottom;
position = "{201, 0}";
},
{
name = top;
position = "{264, 499}";
}
);
layerId = "84FABC8E-B1B3-42CE-8CB3-674F4218367A";
paths = (
{
closed = 1;
nodes = (
"330 -8 OFFCURVE",
"401 57 OFFCURVE",
"412 188 CURVE SMOOTH",
"413 197 OFFCURVE",
"407 203 OFFCURVE",
"398 203 CURVE SMOOTH",
"285 203 LINE SMOOTH",
"277 203 OFFCURVE",
"271 197 OFFCURVE",
"270 188 CURVE SMOOTH",
"265 145 OFFCURVE",
"251 127 OFFCURVE",
"220 127 CURVE SMOOTH",
"188 127 OFFCURVE",
"176 144 OFFCURVE",
"183 187 CURVE SMOOTH",
"203 312 LINE SMOOTH",
"210 356 OFFCURVE",
"222 372 OFFCURVE",
"253 372 CURVE SMOOTH",
"284 372 OFFCURVE",
"298 353 OFFCURVE",
"290 311 CURVE SMOOTH",
"288 303 OFFCURVE",
"293 297 OFFCURVE",
"303 297 CURVE SMOOTH",
"417 297 LINE SMOOTH",
"425 297 OFFCURVE",
"429 303 OFFCURVE",
"431 311 CURVE SMOOTH",
"457 426 OFFCURVE",
"393 507 OFFCURVE",
"262 507 CURVE SMOOTH",
"138 507 OFFCURVE",
"69 449 OFFCURVE",
"48 324 CURVE SMOOTH",
"28 194 LINE SMOOTH",
"8 66 OFFCURVE",
"72 -8 OFFCURVE",
"205 -8 CURVE SMOOTH"
);
}
);
width = 439;
}
);
leftKerningGroup = o;
leftMetricsKey = o;
rightKerningGroup = c;
unicode = 0063;
},
{
glyphname = d;
lastChange = "2022-10-27 03:39:12 +0000";
layers = (
{
layerId = "C7C49F0D-FB24-4177-B585-680F100D73B3";
paths = (
{
closed = 1;
nodes = (
"186 -8 OFFCURVE",
"241 26 OFFCURVE",
"302 92 CURVE",
"305 113 LINE",
"242 46 OFFCURVE",
"185 8 OFFCURVE",
"135 8 CURVE SMOOTH",
"76 8 OFFCURVE",
"52 44 OFFCURVE",
"67 136 CURVE SMOOTH",
"98 337 LINE SMOOTH",
"114 436 OFFCURVE",
"160 470 OFFCURVE",
"226 470 CURVE SMOOTH",
"271 470 OFFCURVE",
"313 454 OFFCURVE",
"358 421 CURVE",
"361 438 LINE",
"318 469 OFFCURVE",
"274 486 OFFCURVE",
"227 486 CURVE SMOOTH",
"149 486 OFFCURVE",
"99 446 OFFCURVE",
"82 337 CURVE SMOOTH",
"51 135 LINE SMOOTH",
"36 34 OFFCURVE",
"65 -8 OFFCURVE",
"133 -8 CURVE SMOOTH"
);
},
{
closed = 1;
nodes = (
"300 0 LINE SMOOTH",
"302 0 OFFCURVE",
"303 1 OFFCURVE",
"303 3 CURVE SMOOTH",
"306 34 OFFCURVE",
"309 69 OFFCURVE",
"316 110 CURVE SMOOTH",
"407 679 LINE SMOOTH",
"408 683 OFFCURVE",
"406 683 OFFCURVE",
"403 683 CURVE SMOOTH",
"396 683 LINE SMOOTH",
"393 683 OFFCURVE",
"392 683 OFFCURVE",
"391 679 CURVE SMOOTH",
"299 103 LINE",
"299 99 LINE",
"294 72 OFFCURVE",
"289 35 OFFCURVE",
"287 3 CURVE SMOOTH",
"287 0 OFFCURVE",
"288 0 OFFCURVE",
"290 0 CURVE SMOOTH"
);
}
);
width = 400;
},
{
layerId = "7BFDDD14-D104-4977-93DD-3DA2763EA456";
paths = (
{
closed = 1;
nodes = (
"180 -8 OFFCURVE",
"224 18 OFFCURVE",
"281 78 CURVE",
"287 140 LINE",
"233 84 OFFCURVE",
"194 57 OFFCURVE",
"156 57 CURVE SMOOTH",
"116 57 OFFCURVE",
"102 84 OFFCURVE",
"112 142 CURVE SMOOTH",
"142 334 LINE SMOOTH",
"153 399 OFFCURVE",
"181 429 OFFCURVE",
"232 429 CURVE SMOOTH",
"261 429 OFFCURVE",
"296 419 OFFCURVE",
"329 400 CURVE",
"338 464 LINE",
"309 482 OFFCURVE",
"267 495 OFFCURVE",
"226 495 CURVE SMOOTH",
"144 495 OFFCURVE",
"90 443 OFFCURVE",
"75 345 CURVE SMOOTH",
"42 142 LINE SMOOTH",
"27 44 OFFCURVE",
"57 -8 OFFCURVE",
"128 -8 CURVE SMOOTH"
);
},
{
closed = 1;
nodes = (
"320 0 LINE SMOOTH",
"327 0 OFFCURVE",
"329 2 OFFCURVE",
"329 10 CURVE SMOOTH",
"329 30 OFFCURVE",
"333 68 OFFCURVE",
"341 117 CURVE SMOOTH",
"429 674 LINE SMOOTH",
"430 680 OFFCURVE",
"427 683 OFFCURVE",
"422 683 CURVE SMOOTH",
"370 683 LINE SMOOTH",
"365 683 OFFCURVE",
"361 680 OFFCURVE",
"360 674 CURVE SMOOTH",
"272 116 LINE",
"272 97 LINE",
"269 76 OFFCURVE",
"264 35 OFFCURVE",
"264 9 CURVE SMOOTH",
"264 3 OFFCURVE",
"267 0 OFFCURVE",
"272 0 CURVE SMOOTH"
);
}
);
width = 409;
},
{
layerId = "84FABC8E-B1B3-42CE-8CB3-674F4218367A";
paths = (
{
closed = 1;
nodes = (
"177 -8 OFFCURVE",
"230 30 OFFCURVE",
"278 84 CURVE",
"269 160 LINE",
"247 139 OFFCURVE",
"226 128 OFFCURVE",
"207 128 CURVE SMOOTH",
"184 128 OFFCURVE",
"177 142 OFFCURVE",
"182 175 CURVE SMOOTH",
"209 335 LINE SMOOTH",
"214 366 OFFCURVE",
"226 379 OFFCURVE",
"251 379 CURVE SMOOTH",
"270 379 OFFCURVE",
"288 374 OFFCURVE",
"305 363 CURVE",
"323 478 LINE",
"290 497 OFFCURVE",
"248 507 OFFCURVE",
"207 507 CURVE SMOOTH",
"119 507 OFFCURVE",
"73 458 OFFCURVE",
"54 345 CURVE SMOOTH",
"22 149 LINE SMOOTH",
"5 43 OFFCURVE",
"34 -8 OFFCURVE",
"111 -8 CURVE SMOOTH"
);
},
{
closed = 1;
nodes = (
"380 0 LINE SMOOTH",
"389 0 OFFCURVE",
"394 5 OFFCURVE",
"394 15 CURVE SMOOTH",
"397 47 OFFCURVE",
"402 87 OFFCURVE",
"409 130 CURVE SMOOTH",
"494 668 LINE SMOOTH",
"495 677 OFFCURVE",
"491 683 OFFCURVE",
"481 683 CURVE SMOOTH",
"353 683 LINE SMOOTH",
"345 683 OFFCURVE",
"339 677 OFFCURVE",
"338 668 CURVE SMOOTH",
"254 139 LINE",
"263 91 LINE",
"260 65 OFFCURVE",
"257 35 OFFCURVE",
"258 15 CURVE SMOOTH",
"258 4 OFFCURVE",
"264 0 OFFCURVE",
"272 0 CURVE SMOOTH"
);
}
);
width = 451;
}
);
leftKerningGroup = o;
leftMetricsKey = "=o+2";
rightKerningGroup = d;
unicode = 0064;
},
{
glyphname = eth;
lastChange = "2022-10-27 03:39:12 +0000";
layers = (
{
layerId = "C7C49F0D-FB24-4177-B585-680F100D73B3";
paths = (
{
closed = 1;
nodes = (
"258 -8 OFFCURVE",
"311 42 OFFCURVE",
"326 140 CURVE SMOOTH",
"361 363 LINE SMOOTH",
"386 522 OFFCURVE",
"352 636 OFFCURVE",
"237 690 CURVE SMOOTH",
"236 691 OFFCURVE",
"234 691 OFFCURVE",
"232 688 CURVE SMOOTH",
"228 681 LINE SMOOTH",
"226 678 OFFCURVE",
"227 676 OFFCURVE",
"229 675 CURVE SMOOTH",
"335 627 OFFCURVE",
"370 524 OFFCURVE",
"345 363 CURVE SMOOTH",
"310 141 LINE SMOOTH",
"297 53 OFFCURVE",
"249 8 OFFCURVE",
"172 8 CURVE SMOOTH",
"89 8 OFFCURVE",
"52 59 OFFCURVE",
"67 151 CURVE SMOOTH",
"90 298 LINE SMOOTH",
"103 383 OFFCURVE",
"141 419 OFFCURVE",
"202 419 CURVE SMOOTH",
"255 419 OFFCURVE",
"300 384 OFFCURVE",
"348 331 CURVE",
"350 353 LINE",
"305 401 OFFCURVE",
"259 435 OFFCURVE",
"203 435 CURVE SMOOTH",
"132 435 OFFCURVE",
"88 393 OFFCURVE",
"74 301 CURVE SMOOTH",
"51 151 LINE SMOOTH",
"35 51 OFFCURVE",
"80 -8 OFFCURVE",
"172 -8 CURVE SMOOTH"
);
},
{
closed = 1;
nodes = (
"403 650 LINE SMOOTH",
"406 652 OFFCURVE",
"406 653 OFFCURVE",
"405 655 CURVE SMOOTH",
"401 664 LINE SMOOTH",
"399 667 OFFCURVE",
"398 666 OFFCURVE",
"397 665 CURVE SMOOTH",
"189 560 LINE SMOOTH",
"186 558 OFFCURVE",
"186 557 OFFCURVE",
"187 555 CURVE SMOOTH",
"191 546 LINE SMOOTH",
"192 544 OFFCURVE",
"193 544 OFFCURVE",
"195 545 CURVE SMOOTH"
);
}
);
width = 389;
},
{
layerId = "7BFDDD14-D104-4977-93DD-3DA2763EA456";
paths = (
{
closed = 1;
nodes = (
"281 -8 OFFCURVE",
"336 44 OFFCURVE",
"355 164 CURVE SMOOTH",
"386 356 LINE SMOOTH",
"412 524 OFFCURVE",
"364 650 OFFCURVE",
"244 690 CURVE SMOOTH",
"239 692 OFFCURVE",
"235 691 OFFCURVE",
"231 687 CURVE SMOOTH",
"202 650 LINE SMOOTH",
"197 644 OFFCURVE",
"199 640 OFFCURVE",
"205 637 CURVE SMOOTH",
"308 595 OFFCURVE",
"345 499 OFFCURVE",
"315 345 CURVE SMOOTH",
"287 167 LINE SMOOTH",
"275 91 OFFCURVE",
"247 57 OFFCURVE",
"187 57 CURVE SMOOTH",
"126 57 OFFCURVE",
"100 91 OFFCURVE",
"114 171 CURVE SMOOTH",
"136 308 LINE SMOOTH",
"146 371 OFFCURVE",
"169 396 OFFCURVE",
"215 396 CURVE SMOOTH",
"259 396 OFFCURVE",
"297 364 OFFCURVE",
"321 321 CURVE",
"332 394 LINE",
"305 434 OFFCURVE",
"260 462 OFFCURVE",
"207 462 CURVE SMOOTH",
"133 462 OFFCURVE",
"84 418 OFFCURVE",
"68 318 CURVE SMOOTH",
"44 168 LINE SMOOTH",
"25 52 OFFCURVE",
"76 -8 OFFCURVE",
"179 -8 CURVE SMOOTH"
);
},
{
closed = 1;
nodes = (
"418 637 LINE SMOOTH",
"423 639 OFFCURVE",
"424 642 OFFCURVE",
"422 646 CURVE SMOOTH",
"408 679 LINE SMOOTH",
"406 684 OFFCURVE",
"404 685 OFFCURVE",
"399 682 CURVE SMOOTH",
"183 572 LINE SMOOTH",
"179 569 OFFCURVE",
"177 567 OFFCURVE",
"179 563 CURVE SMOOTH",
"194 528 LINE SMOOTH",
"196 523 OFFCURVE",
"199 523 OFFCURVE",
"204 526 CURVE SMOOTH"
);
}
);
width = 405;
},
{
layerId = "84FABC8E-B1B3-42CE-8CB3-674F4218367A";
paths = (
{
closed = 1;
nodes = (
"323 -8 OFFCURVE",
"398 55 OFFCURVE",
"418 177 CURVE SMOOTH",
"449 376 LINE SMOOTH",
"475 540 OFFCURVE",
"427 649 OFFCURVE",
"264 690 CURVE SMOOTH",
"255 692 OFFCURVE",
"250 692 OFFCURVE",
"244 683 CURVE SMOOTH",
"186 605 LINE SMOOTH",
"180 598 OFFCURVE",
"182 588 OFFCURVE",
"190 586 CURVE SMOOTH",
"304 552 OFFCURVE",
"318 478 OFFCURVE",
"289 346 CURVE",
"264 186 LINE SMOOTH",
"257 143 OFFCURVE",
"244 127 OFFCURVE",
"217 127 CURVE SMOOTH",
"184 127 OFFCURVE",
"175 145 OFFCURVE",
"182 188 CURVE SMOOTH",
"197 283 LINE SMOOTH",
"202 314 OFFCURVE",
"214 330 OFFCURVE",
"240 330 CURVE SMOOTH",
"261 330 OFFCURVE",
"282 320 OFFCURVE",
"297 302 CURVE",
"314 417 LINE",
"287 443 OFFCURVE",
"245 460 OFFCURVE",
"200 460 CURVE SMOOTH",
"108 460 OFFCURVE",
"62 407 OFFCURVE",
"44 293 CURVE SMOOTH",
"26 185 LINE SMOOTH",
"6 63 OFFCURVE",
"74 -8 OFFCURVE",
"203 -8 CURVE SMOOTH"
);
},
{
closed = 1;
nodes = (
"446 635 LINE SMOOTH",
"451 638 OFFCURVE",
"453 642 OFFCURVE",
"451 647 CURVE SMOOTH",
"435 680 LINE SMOOTH",
"432 686 OFFCURVE",
"429 687 OFFCURVE",
"424 684 CURVE SMOOTH",
"192 539 LINE SMOOTH",
"186 535 OFFCURVE",
"184 531 OFFCURVE",
"186 526 CURVE SMOOTH",
"203 493 LINE SMOOTH",
"207 487 OFFCURVE",
"210 487 OFFCURVE",
"215 490 CURVE SMOOTH"
);
}
);
width = 445;
}
);
leftKerningGroup = o;
leftMetricsKey = o;
rightKerningGroup = o;
rightMetricsKey = o;
unicode = 00F0;
},
{
glyphname = dcroat;
lastChange = "2022-10-27 03:39:12 +0000";
layers = (
{
components = (
{
alignment = -1;
name = d;
}
);
layerId = "C7C49F0D-FB24-4177-B585-680F100D73B3";
paths = (
{
closed = 1;
nodes = (
"390 584 LINE",
"459 584 LINE SMOOTH",
"462 584 OFFCURVE",
"463 584 OFFCURVE",
"464 587 CURVE SMOOTH",
"466 596 LINE SMOOTH",
"467 600 OFFCURVE",
"465 600 OFFCURVE",
"463 600 CURVE SMOOTH",
"269 600 LINE SMOOTH",
"266 600 OFFCURVE",
"265 600 OFFCURVE",
"264 597 CURVE SMOOTH",
"262 588 LINE SMOOTH",
"261 584 OFFCURVE",
"263 584 OFFCURVE",
"265 584 CURVE SMOOTH"
);
}
);
width = 399;
},
{
components = (
{
alignment = -1;
name = d;
}
);
layerId = "7BFDDD14-D104-4977-93DD-3DA2763EA456";
paths = (
{
closed = 1;
nodes = (
"410 557 LINE",
"462 557 LINE SMOOTH",
"467 557 OFFCURVE",
"470 560 OFFCURVE",
"471 566 CURVE SMOOTH",
"478 610 LINE SMOOTH",
"479 616 OFFCURVE",
"476 619 OFFCURVE",
"471 619 CURVE SMOOTH",
"274 619 LINE SMOOTH",
"268 619 OFFCURVE",
"265 616 OFFCURVE",
"264 610 CURVE SMOOTH",
"258 566 LINE SMOOTH",
"257 560 OFFCURVE",
"259 557 OFFCURVE",
"265 557 CURVE SMOOTH"
);
}
);
width = 408;
},
{
components = (
{
alignment = -1;
name = d;
}
);
layerId = "84FABC8E-B1B3-42CE-8CB3-674F4218367A";
paths = (
{
closed = 1;
nodes = (
"475 548 LINE",
"506 548 LINE SMOOTH",
"514 548 OFFCURVE",
"520 554 OFFCURVE",
"521 563 CURVE SMOOTH",
"532 630 LINE SMOOTH",
"533 640 OFFCURVE",
"528 645 OFFCURVE",
"519 645 CURVE SMOOTH",
"276 645 LINE SMOOTH",
"268 645 OFFCURVE",
"263 639 OFFCURVE",
"262 630 CURVE SMOOTH",
"251 563 LINE SMOOTH",
"249 553 OFFCURVE",
"254 548 OFFCURVE",
"264 548 CURVE SMOOTH"
);
}
);
width = 460;
}
);
leftKerningGroup = o;
leftMetricsKey = "=o+2";
rightKerningGroup = dcroat;
unicode = 0111;
},
{
glyphname = e;
lastChange = "2022-10-27 03:39:12 +0000";
layers = (
{
anchors = (
{
name = bottom;
position = "{160, 0}";
},
{
name = ogonek;
position = "{227, 10}";
},
{
name = top;
position = "{235, 478}";
}
);
layerId = "C7C49F0D-FB24-4177-B585-680F100D73B3";
paths = (
{
closed = 1;
nodes = (
"252 -8 OFFCURVE",
"294 30 OFFCURVE",
"305 117 CURVE",
"305 121 OFFCURVE",
"304 122 OFFCURVE",
"302 122 CURVE SMOOTH",
"293 122 LINE SMOOTH",
"290 122 OFFCURVE",
"289 121 OFFCURVE",
"289 118 CURVE",
"280 41 OFFCURVE",
"243 8 OFFCURVE",
"168 8 CURVE SMOOTH",
"88 8 OFFCURVE",
"53 58 OFFCURVE",
"67 152 CURVE SMOOTH",
"80 234 LINE",
"199 248 LINE SMOOTH",
"305 260 OFFCURVE",
"347 305 OFFCURVE",
"347 388 CURVE SMOOTH",
"347 452 OFFCURVE",
"305 486 OFFCURVE",
"233 486 CURVE SMOOTH",
"147 486 OFFCURVE",
"95 437 OFFCURVE",
"80 340 CURVE SMOOTH",
"51 152 LINE SMOOTH",
"36 49 OFFCURVE",
"78 -8 OFFCURVE",
"167 -8 CURVE SMOOTH"
);
},
{
closed = 1;
nodes = (
"96 339 LINE SMOOTH",
"110 426 OFFCURVE",
"156 470 OFFCURVE",
"232 470 CURVE SMOOTH",
"295 470 OFFCURVE",
"331 441 OFFCURVE",
"331 387 CURVE SMOOTH",
"331 311 OFFCURVE",
"292 275 OFFCURVE",
"197 263 CURVE SMOOTH",
"82 250 LINE"
);
}
);
width = 375;
},
{
anchors = (
{
name = bottom;
position = "{171, 0}";
},
{
name = ogonek;
position = "{251, 11}";
},
{
name = top;
position = "{245, 487}";
}
);
layerId = "7BFDDD14-D104-4977-93DD-3DA2763EA456";
paths = (
{
closed = 1;
nodes = (
"268 -8 OFFCURVE",
"326 40 OFFCURVE",
"332 124 CURVE",
"333 130 OFFCURVE",
"330 133 OFFCURVE",
"324 133 CURVE SMOOTH",
"274 133 LINE SMOOTH",
"268 133 OFFCURVE",
"266 131 OFFCURVE",
"265 124 CURVE",
"260 81 OFFCURVE",
"230 57 OFFCURVE",
"182 57 CURVE SMOOTH",
"126 57 OFFCURVE",
"102 91 OFFCURVE",
"113 162 CURVE SMOOTH",
"121 210 LINE",
"220 224 LINE SMOOTH",
"319 238 OFFCURVE",
"374 291 OFFCURVE",
"374 381 CURVE SMOOTH",
"374 455 OFFCURVE",
"327 495 OFFCURVE",
"243 495 CURVE SMOOTH",
"141 495 OFFCURVE",
"89 443 OFFCURVE",
"70 324 CURVE SMOOTH",
"44 166 LINE SMOOTH",
"27 54 OFFCURVE",
"75 -8 OFFCURVE",
"175 -8 CURVE SMOOTH"
);
},
{
closed = 1;
nodes = (
"139 324 LINE SMOOTH",
"151 399 OFFCURVE",
"179 429 OFFCURVE",
"236 429 CURVE SMOOTH",
"279 429 OFFCURVE",
"303 411 OFFCURVE",
"303 374 CURVE SMOOTH",
"303 323 OFFCURVE",
"273 294 OFFCURVE",
"209 284 CURVE SMOOTH",
"131 273 LINE"
);
}
);
width = 390;
},
{
anchors = (
{
name = bottom;
position = "{198, 0}";
},
{
name = ogonek;
position = "{311, 10}";
},
{
name = top;
position = "{274, 499}";
}
);
layerId = "84FABC8E-B1B3-42CE-8CB3-674F4218367A";
paths = (
{
closed = 1;
nodes = (
"330 -8 OFFCURVE",
"396 41 OFFCURVE",
"407 149 CURVE SMOOTH",
"408 158 OFFCURVE",
"404 163 OFFCURVE",
"395 163 CURVE SMOOTH",
"274 163 LINE SMOOTH",
"266 163 OFFCURVE",
"260 157 OFFCURVE",
"259 149 CURVE SMOOTH",
"256 121 OFFCURVE",
"241 110 OFFCURVE",
"213 110 CURVE SMOOTH",
"183 110 OFFCURVE",
"171 128 OFFCURVE",
"177 165 CURVE SMOOTH",
"182 196 LINE",
"265 205 LINE SMOOTH",
"390 219 OFFCURVE",
"447 275 OFFCURVE",
"447 379 CURVE SMOOTH",
"447 460 OFFCURVE",
"381 507 OFFCURVE",
"266 507 CURVE SMOOTH",
"139 507 OFFCURVE",
"68 448 OFFCURVE",
"48 322 CURVE SMOOTH",
"28 196 LINE SMOOTH",
"6 63 OFFCURVE",
"68 -8 OFFCURVE",
"200 -8 CURVE SMOOTH"
);
},
{
closed = 1;
nodes = (
"204 335 LINE SMOOTH",
"210 373 OFFCURVE",
"225 389 OFFCURVE",
"256 389 CURVE SMOOTH",
"281 389 OFFCURVE",
"293 378 OFFCURVE",
"293 355 CURVE SMOOTH",
"293 324 OFFCURVE",
"274 300 OFFCURVE",
"236 296 CURVE SMOOTH",
"197 292 LINE"
);
}
);
width = 447;
}
);
leftKerningGroup = o;
leftMetricsKey = o;
rightKerningGroup = e;
unicode = 0065;
},
{
glyphname = f;
lastChange = "2022-10-27 03:39:12 +0000";
layers = (
{
layerId = "C7C49F0D-FB24-4177-B585-680F100D73B3";
paths = (
{
closed = 1;
nodes = (
"166 555 LINE SMOOTH",
"180 640 OFFCURVE",
"204 675 OFFCURVE",
"271 675 CURVE SMOOTH",
"292 675 OFFCURVE",
"316 671 OFFCURVE",
"335 664 CURVE SMOOTH",
"338 663 OFFCURVE",
"339 664 OFFCURVE",
"339 667 CURVE SMOOTH",
"340 675 LINE SMOOTH",
"340 678 OFFCURVE",
"340 679 OFFCURVE",
"337 680 CURVE SMOOTH",
"322 686 OFFCURVE",
"295 691 OFFCURVE",
"272 691 CURVE SMOOTH",
"197 691 OFFCURVE",
"165 652 OFFCURVE",
"150 555 CURVE SMOOTH",
"138 478 LINE",
"76 478 LINE SMOOTH",
"73 478 OFFCURVE",
"72 478 OFFCURVE",
"71 475 CURVE SMOOTH",
"69 466 LINE SMOOTH",
"68 462 OFFCURVE",
"70 462 OFFCURVE",
"72 462 CURVE SMOOTH",
"135 462 LINE",
"66 23 LINE SMOOTH",
"51 -73 OFFCURVE",
"22 -121 OFFCURVE",
"-51 -174 CURVE",
"-53 -175 OFFCURVE",
"-53 -176 OFFCURVE",
"-52 -178 CURVE SMOOTH",
"-47 -187 LINE SMOOTH",
"-46 -189 OFFCURVE",
"-44 -189 OFFCURVE",
"-42 -187 CURVE",
"36 -131 OFFCURVE",
"66 -81 OFFCURVE",
"82 20 CURVE SMOOTH",
"151 462 LINE",
"283 462 LINE SMOOTH",
"286 462 OFFCURVE",
"287 462 OFFCURVE",
"288 465 CURVE SMOOTH",
"290 474 LINE SMOOTH",
"291 478 OFFCURVE",
"289 478 OFFCURVE",
"287 478 CURVE SMOOTH",
"154 478 LINE"
);
}
);
width = 265;
},
{
layerId = "7BFDDD14-D104-4977-93DD-3DA2763EA456";
paths = (
{
closed = 1;
nodes = (
"208 550 LINE SMOOTH",
"217 604 OFFCURVE",
"237 626 OFFCURVE",
"280 626 CURVE SMOOTH",
"303 626 OFFCURVE",
"324 621 OFFCURVE",
"344 611 CURVE SMOOTH",
"350 609 OFFCURVE",
"354 610 OFFCURVE",
"354 616 CURVE SMOOTH",
"361 664 LINE SMOOTH",
"362 669 OFFCURVE",
"361 672 OFFCURVE",
"357 675 CURVE SMOOTH",
"338 685 OFFCURVE",
"304 691 OFFCURVE",
"275 691 CURVE SMOOTH",
"198 691 OFFCURVE",
"154 646 OFFCURVE",
"140 554 CURVE SMOOTH",
"130 487 LINE",
"74 487 LINE SMOOTH",
"69 487 OFFCURVE",
"65 483 OFFCURVE",
"64 478 CURVE SMOOTH",
"57 431 LINE SMOOTH",
"56 424 OFFCURVE",
"59 422 OFFCURVE",
"65 422 CURVE SMOOTH",
"119 422 LINE",
"61 55 LINE SMOOTH",
"45 -47 OFFCURVE",
"20 -103 OFFCURVE",
"-24 -140 CURVE",
"-30 -145 OFFCURVE",
"-30 -149 OFFCURVE",
"-27 -153 CURVE SMOOTH",
"4 -193 LINE SMOOTH",
"6 -196 OFFCURVE",
"10 -197 OFFCURVE",
"14 -195 CURVE",
"81 -154 OFFCURVE",
"110 -68 OFFCURVE",
"129 50 CURVE SMOOTH",
"188 422 LINE",
"292 422 LINE SMOOTH",
"297 422 OFFCURVE",
"300 425 OFFCURVE",
"301 431 CURVE SMOOTH",
"309 477 LINE SMOOTH",
"310 484 OFFCURVE",
"307 487 OFFCURVE",
"301 487 CURVE SMOOTH",
"199 487 LINE"
);
}
);
width = 283;
},
{
layerId = "84FABC8E-B1B3-42CE-8CB3-674F4218367A";
paths = (
{
closed = 1;
nodes = (
"286 522 LINE SMOOTH",
"291 554 OFFCURVE",
"305 567 OFFCURVE",
"336 567 CURVE SMOOTH",
"356 567 OFFCURVE",
"376 563 OFFCURVE",
"394 557 CURVE SMOOTH",
"402 555 OFFCURVE",
"407 560 OFFCURVE",
"409 570 CURVE SMOOTH",
"424 665 LINE SMOOTH",
"426 673 OFFCURVE",
"422 677 OFFCURVE",
"413 679 CURVE SMOOTH",
"393 685 OFFCURVE",
"353 691 OFFCURVE",
"305 691 CURVE SMOOTH",
"202 691 OFFCURVE",
"151 641 OFFCURVE",
"132 533 CURVE SMOOTH",
"126 499 LINE",
"73 499 LINE SMOOTH",
"64 499 OFFCURVE",
"60 493 OFFCURVE",
"58 484 CURVE SMOOTH",
"41 379 LINE SMOOTH",
"40 370 OFFCURVE",
"44 364 OFFCURVE",
"54 364 CURVE SMOOTH",
"105 364 LINE",
"60 85 LINE SMOOTH",
"47 0 OFFCURVE",
"27 -44 OFFCURVE",
"-15 -79 CURVE SMOOTH",
"-22 -85 OFFCURVE",
"-22 -92 OFFCURVE",
"-18 -98 CURVE SMOOTH",
"45 -186 LINE SMOOTH",
"48 -191 OFFCURVE",
"54 -193 OFFCURVE",
"60 -189 CURVE SMOOTH",
"160 -128 OFFCURVE",
"193 -63 OFFCURVE",
"217 86 CURVE SMOOTH",
"261 364 LINE",
"333 364 LINE SMOOTH",
"342 364 OFFCURVE",
"347 371 OFFCURVE",
"348 379 CURVE SMOOTH",
"365 484 LINE SMOOTH",
"367 493 OFFCURVE",
"362 499 OFFCURVE",
"352 499 CURVE SMOOTH",
"283 499 LINE"
);
}
);
width = 334;
}
);
leftKerningGroup = f;
rightKerningGroup = f;
unicode = 0066;
},
{
glyphname = g;
lastChange = "2022-10-27 03:39:12 +0000";
layers = (
{
anchors = (
{
name = bottom;
position = "{164, 0}";
},
{
name = top;
position = "{243, 478}";
}
);
layerId = "C7C49F0D-FB24-4177-B585-680F100D73B3";
paths = (
{
closed = 1;
nodes = (
"154 486 OFFCURVE",
"98 442 OFFCURVE",
"81 335 CURVE SMOOTH",
"57 176 LINE SMOOTH",
"43 85 OFFCURVE",
"72 37 OFFCURVE",
"138 37 CURVE SMOOTH",
"192 37 OFFCURVE",
"245 71 OFFCURVE",
"306 128 CURVE",
"278 -48 LINE SMOOTH",
"262 -147 OFFCURVE",
"224 -177 OFFCURVE",
"146 -177 CURVE SMOOTH",
"71 -177 OFFCURVE",
"46 -143 OFFCURVE",
"56 -68 CURVE SMOOTH",
"57 -63 OFFCURVE",
"55 -63 OFFCURVE",
"53 -63 CURVE SMOOTH",
"44 -63 LINE SMOOTH",
"42 -63 OFFCURVE",
"41 -64 OFFCURVE",
"41 -67 CURVE SMOOTH",
"29 -152 OFFCURVE",
"63 -193 OFFCURVE",
"144 -193 CURVE SMOOTH",
"234 -193 OFFCURVE",
"276 -158 OFFCURVE",
"294 -48 CURVE SMOOTH",
"374 462 LINE",
"327 473 OFFCURVE",
"286 486 OFFCURVE",
"240 486 CURVE SMOOTH"
);
},
{
closed = 1;
nodes = (
"83 53 OFFCURVE",
"60 93 OFFCURVE",
"72 174 CURVE SMOOTH",
"97 334 LINE SMOOTH",
"113 431 OFFCURVE",
"163 470 OFFCURVE",
"239 470 CURVE SMOOTH",
"277 470 OFFCURVE",
"318 460 OFFCURVE",
"357 450 CURVE",
"310 150 LINE",
"244 89 OFFCURVE",
"189 53 OFFCURVE",
"138 53 CURVE SMOOTH"
);
}
);
width = 402;
},
{
anchors = (
{
name = bottom;
position = "{165, 0}";
},
{
name = top;
position = "{249, 487}";
}
);
layerId = "7BFDDD14-D104-4977-93DD-3DA2763EA456";
paths = (
{
closed = 1;
nodes = (
"140 495 OFFCURVE",
"89 444 OFFCURVE",
"71 331 CURVE SMOOTH",
"45 167 LINE SMOOTH",
"29 68 OFFCURVE",
"58 17 OFFCURVE",
"132 17 CURVE SMOOTH",
"177 17 OFFCURVE",
"218 39 OFFCURVE",
"264 80 CURVE",
"247 -27 LINE SMOOTH",
"234 -104 OFFCURVE",
"207 -131 OFFCURVE",
"152 -131 CURVE SMOOTH",
"102 -131 OFFCURVE",
"84 -109 OFFCURVE",
"91 -65 CURVE SMOOTH",
"92 -59 OFFCURVE",
"88 -56 OFFCURVE",
"82 -56 CURVE SMOOTH",
"33 -56 LINE SMOOTH",
"28 -56 OFFCURVE",
"25 -58 OFFCURVE",
"23 -65 CURVE SMOOTH",
"7 -137 OFFCURVE",
"45 -196 OFFCURVE",
"145 -196 CURVE SMOOTH",
"255 -196 OFFCURVE",
"299 -143 OFFCURVE",
"316 -27 CURVE SMOOTH",
"396 474 LINE",
"339 480 OFFCURVE",
"296 495 OFFCURVE",
"238 495 CURVE SMOOTH"
);
},
{
closed = 1;
nodes = (
"118 83 OFFCURVE",
"105 109 OFFCURVE",
"114 170 CURVE SMOOTH",
"138 321 LINE SMOOTH",
"151 402 OFFCURVE",
"181 429 OFFCURVE",
"237 429 CURVE SMOOTH",
"262 429 OFFCURVE",
"293 425 OFFCURVE",
"318 419 CURVE",
"275 147 LINE",
"228 104 OFFCURVE",
"192 83 OFFCURVE",
"157 83 CURVE SMOOTH"
);
}
);
width = 406;
},
{
anchors = (
{
name = bottom;
position = "{185, 0}";
},
{
name = top;
position = "{274, 497}";
}
);
layerId = "84FABC8E-B1B3-42CE-8CB3-674F4218367A";
paths = (
{
closed = 1;
nodes = (
"129 507 OFFCURVE",
"71 458 OFFCURVE",
"53 340 CURVE SMOOTH",
"29 191 LINE SMOOTH",
"12 85 OFFCURVE",
"40 33 OFFCURVE",
"117 33 CURVE SMOOTH",
"162 33 OFFCURVE",
"204 50 OFFCURVE",
"246 84 CURVE",
"231 -8 LINE SMOOTH",
"224 -49 OFFCURVE",
"213 -63 OFFCURVE",
"183 -63 CURVE SMOOTH",
"158 -63 OFFCURVE",
"149 -48 OFFCURVE",
"152 -25 CURVE SMOOTH",
"153 -16 OFFCURVE",
"149 -10 OFFCURVE",
"139 -10 CURVE SMOOTH",
"25 -10 LINE SMOOTH",
"17 -10 OFFCURVE",
"12 -15 OFFCURVE",
"10 -25 CURVE SMOOTH",
"-8 -128 OFFCURVE",
"48 -197 OFFCURVE",
"176 -197 CURVE SMOOTH",
"303 -197 OFFCURVE",
"366 -144 OFFCURVE",
"386 -14 CURVE SMOOTH",
"465 487 LINE",
"401 490 OFFCURVE",
"334 507 OFFCURVE",
"252 507 CURVE SMOOTH"
);
},
{
closed = 1;
nodes = (
"192 170 OFFCURVE",
"184 183 OFFCURVE",
"189 215 CURVE SMOOTH",
"208 330 LINE SMOOTH",
"213 365 OFFCURVE",
"226 379 OFFCURVE",
"252 379 CURVE SMOOTH",
"266 379 OFFCURVE",
"280 377 OFFCURVE",
"292 374 CURVE",
"262 189 LINE",
"244 177 OFFCURVE",
"229 170 OFFCURVE",
"214 170 CURVE SMOOTH"
);
}
);
width = 451;
}
);
leftKerningGroup = o;
rightKerningGroup = u;
rightMetricsKey = n;
unicode = 0067;
},
{
glyphname = h;
lastChange = "2022-10-27 03:39:12 +0000";
layers = (
{
anchors = (
{
name = bottom;
position = "{181, 0}";
},
{
name = center;
position = "{219, 239}";
},
{
name = top;
position = "{158, 683}";
}
);
layerId = "C7C49F0D-FB24-4177-B585-680F100D73B3";
paths = (
{
closed = 1;
nodes = (
"54 0 LINE SMOOTH",
"57 0 OFFCURVE",
"58 0 OFFCURVE",
"59 5 CURVE SMOOTH",
"166 679 LINE SMOOTH",
"167 683 OFFCURVE",
"165 683 OFFCURVE",
"162 683 CURVE SMOOTH",
"155 683 LINE SMOOTH",
"152 683 OFFCURVE",
"151 683 OFFCURVE",
"150 679 CURVE SMOOTH",
"43 5 LINE SMOOTH",
"42 0 OFFCURVE",
"44 0 OFFCURVE",
"47 0 CURVE SMOOTH"
);
},
{
closed = 1;
nodes = (
"312 0 LINE SMOOTH",
"315 0 OFFCURVE",
"316 0 OFFCURVE",
"317 4 CURVE SMOOTH",
"370 344 LINE SMOOTH",
"387 446 OFFCURVE",
"356 486 OFFCURVE",
"290 486 CURVE SMOOTH",
"232 486 OFFCURVE",
"171 442 OFFCURVE",
"115 387 CURVE",
"112 365 LINE",
"174 426 OFFCURVE",
"234 470 OFFCURVE",
"288 470 CURVE SMOOTH",
"347 470 OFFCURVE",
"369 430 OFFCURVE",
"354 342 CURVE SMOOTH",
"301 4 LINE SMOOTH",
"300 0 OFFCURVE",
"302 0 OFFCURVE",
"305 0 CURVE SMOOTH"
);
}
);
width = 417;
},
{
anchors = (
{
name = bottom;
position = "{180, 0}";
},
{
name = center;
position = "{215, 243}";
},
{
name = top;
position = "{169, 683}";
}
);
layerId = "7BFDDD14-D104-4977-93DD-3DA2763EA456";
paths = (
{
closed = 1;
nodes = (
"87 0 LINE SMOOTH",
"93 0 OFFCURVE",
"96 3 OFFCURVE",
"97 9 CURVE SMOOTH",
"202 674 LINE SMOOTH",
"203 680 OFFCURVE",
"201 683 OFFCURVE",
"195 683 CURVE SMOOTH",
"143 683 LINE SMOOTH",
"138 683 OFFCURVE",
"134 680 OFFCURVE",
"133 674 CURVE SMOOTH",
"28 9 LINE SMOOTH",
"27 3 OFFCURVE",
"30 0 OFFCURVE",
"36 0 CURVE SMOOTH"
);
},
{
closed = 1;
nodes = (
"325 0 LINE SMOOTH",
"330 0 OFFCURVE",
"334 3 OFFCURVE",
"335 9 CURVE SMOOTH",
"389 350 LINE SMOOTH",
"404 447 OFFCURVE",
"373 495 OFFCURVE",
"301 495 CURVE SMOOTH",
"248 495 OFFCURVE",
"197 464 OFFCURVE",
"147 412 CURVE",
"141 350 LINE",
"195 404 OFFCURVE",
"235 429 OFFCURVE",
"273 429 CURVE SMOOTH",
"313 429 OFFCURVE",
"328 404 OFFCURVE",
"319 348 CURVE SMOOTH",
"266 9 LINE SMOOTH",
"265 3 OFFCURVE",
"268 0 OFFCURVE",
"274 0 CURVE SMOOTH"
);
}
);
width = 419;
},
{
anchors = (
{
name = bottom;
position = "{198, 0}";
},
{
name = center;
position = "{239, 249}";
},
{
name = top;
position = "{190, 683}";
}
);
layerId = "84FABC8E-B1B3-42CE-8CB3-674F4218367A";
paths = (
{
closed = 1;
nodes = (
"148 0 LINE SMOOTH",
"156 0 OFFCURVE",
"161 6 OFFCURVE",
"162 14 CURVE SMOOTH",
"265 668 LINE SMOOTH",
"267 678 OFFCURVE",
"261 683 OFFCURVE",
"252 683 CURVE SMOOTH",
"124 683 LINE SMOOTH",
"116 683 OFFCURVE",
"111 677 OFFCURVE",
"110 668 CURVE SMOOTH",
"5 14 LINE SMOOTH",
"4 6 OFFCURVE",
"9 0 OFFCURVE",
"17 0 CURVE SMOOTH"
);
},
{
closed = 1;
nodes = (
"382 0 LINE SMOOTH",
"390 0 OFFCURVE",
"396 5 OFFCURVE",
"397 15 CURVE SMOOTH",
"450 352 LINE SMOOTH",
"468 459 OFFCURVE",
"438 507 OFFCURVE",
"362 507 CURVE SMOOTH",
"304 507 OFFCURVE",
"248 477 OFFCURVE",
"195 416 CURVE",
"204 339 LINE",
"226 360 OFFCURVE",
"248 371 OFFCURVE",
"267 371 CURVE SMOOTH",
"288 371 OFFCURVE",
"296 359 OFFCURVE",
"290 326 CURVE SMOOTH",
"241 15 LINE SMOOTH",
"240 6 OFFCURVE",
"245 0 OFFCURVE",
"254 0 CURVE SMOOTH"
);
}
);
width = 457;
}
);
leftKerningGroup = h;
rightKerningGroup = n;
rightMetricsKey = n;
unicode = 0068;
},
{
glyphname = hbar;
lastChange = "2022-10-27 03:39:12 +0000";
layers = (
{
components = (
{
alignment = -1;
name = h;
}
);
layerId = "C7C49F0D-FB24-4177-B585-680F100D73B3";
paths = (
{
closed = 1;
nodes = (
"135 584 LINE",
"260 584 LINE SMOOTH",
"263 584 OFFCURVE",
"264 584 OFFCURVE",
"265 587 CURVE SMOOTH",
"267 596 LINE SMOOTH",
"268 600 OFFCURVE",
"266 600 OFFCURVE",
"264 600 CURVE SMOOTH",
"69 600 LINE SMOOTH",
"66 600 OFFCURVE",
"65 600 OFFCURVE",
"64 597 CURVE SMOOTH",
"62 588 LINE SMOOTH",
"61 584 OFFCURVE",
"63 584 OFFCURVE",
"65 584 CURVE SMOOTH"
);
}
);
width = 417;
},
{
components = (
{
alignment = -1;
name = h;
}
);
layerId = "7BFDDD14-D104-4977-93DD-3DA2763EA456";
paths = (
{
closed = 1;
nodes = (
"115 557 LINE",
"261 557 LINE SMOOTH",
"267 557 OFFCURVE",
"270 560 OFFCURVE",
"271 566 CURVE SMOOTH",
"278 610 LINE SMOOTH",
"279 616 OFFCURVE",
"276 619 OFFCURVE",
"270 619 CURVE SMOOTH",
"73 619 LINE SMOOTH",
"67 619 OFFCURVE",
"65 616 OFFCURVE",
"64 610 CURVE SMOOTH",
"57 566 LINE SMOOTH",
"56 560 OFFCURVE",
"59 557 OFFCURVE",
"64 557 CURVE SMOOTH"
);
}
);
width = 419;
},
{
components = (
{
alignment = -1;
name = h;
transform = "{1, 0, 0, 1, 9, 0}";
}
);
layerId = "84FABC8E-B1B3-42CE-8CB3-674F4218367A";
paths = (
{
closed = 1;
nodes = (
"99 548 LINE",
"313 548 LINE SMOOTH",
"322 548 OFFCURVE",
"326 554 OFFCURVE",
"328 563 CURVE SMOOTH",
"339 630 LINE SMOOTH",
"341 640 OFFCURVE",
"335 645 OFFCURVE",
"326 645 CURVE SMOOTH",
"83 645 LINE SMOOTH",
"74 645 OFFCURVE",
"70 639 OFFCURVE",
"69 630 CURVE SMOOTH",
"58 563 LINE SMOOTH",
"57 554 OFFCURVE",
"61 548 OFFCURVE",
"69 548 CURVE SMOOTH"
);
}
);
width = 466;
}
);
leftKerningGroup = hbar;
rightKerningGroup = n;
rightMetricsKey = h;
unicode = 0127;
},
{
glyphname = idotless;
lastChange = "2022-10-27 03:39:12 +0000";
layers = (
{
anchors = (
{
name = bottom;
position = "{51, 0}";
},
{
name = ogonek;
position = "{64, 10}";
},
{
name = top;
position = "{127, 478}";
}
);
layerId = "C7C49F0D-FB24-4177-B585-680F100D73B3";
paths = (
{
closed = 1;
nodes = (
"55 0 LINE SMOOTH",
"58 0 OFFCURVE",
"59 0 OFFCURVE",
"60 5 CURVE SMOOTH",
"135 474 LINE SMOOTH",
"136 478 OFFCURVE",
"134 478 OFFCURVE",
"131 478 CURVE SMOOTH",
"124 478 LINE SMOOTH",
"121 478 OFFCURVE",
"120 478 OFFCURVE",
"119 474 CURVE SMOOTH",
"44 5 LINE SMOOTH",
"43 0 OFFCURVE",
"45 0 OFFCURVE",
"48 0 CURVE SMOOTH"
);
}
);
width = 161;
},
{
anchors = (
{
name = bottom;
position = "{62, 0}";
},
{
name = ogonek;
position = "{100, 10}";
},
{
name = top;
position = "{139, 487}";
}
);
layerId = "7BFDDD14-D104-4977-93DD-3DA2763EA456";
paths = (
{
closed = 1;
nodes = (
"88 0 LINE SMOOTH",
"94 0 OFFCURVE",
"96 3 OFFCURVE",
"97 9 CURVE SMOOTH",
"172 477 LINE SMOOTH",
"173 484 OFFCURVE",
"170 487 OFFCURVE",
"164 487 CURVE SMOOTH",
"112 487 LINE SMOOTH",
"107 487 OFFCURVE",
"103 483 OFFCURVE",
"102 477 CURVE SMOOTH",
"28 9 LINE SMOOTH",
"27 3 OFFCURVE",
"30 0 OFFCURVE",
"36 0 CURVE SMOOTH"
);
}
);
width = 182;
},
{
anchors = (
{
name = bottom;
position = "{83, 0}";
},
{
name = ogonek;
position = "{163, 10}";
},
{
name = top;
position = "{160, 499}";
}
);
layerId = "84FABC8E-B1B3-42CE-8CB3-674F4218367A";
paths = (
{
closed = 1;
nodes = (
"148 0 LINE SMOOTH",
"156 0 OFFCURVE",
"161 6 OFFCURVE",
"163 15 CURVE SMOOTH",
"237 484 LINE SMOOTH",
"239 494 OFFCURVE",
"233 499 OFFCURVE",
"224 499 CURVE SMOOTH",
"96 499 LINE SMOOTH",
"88 499 OFFCURVE",
"83 493 OFFCURVE",
"81 484 CURVE SMOOTH",
"6 15 LINE SMOOTH",
"5 6 OFFCURVE",
"10 0 OFFCURVE",
"20 0 CURVE SMOOTH"
);
}
);
width = 223;
}
);
leftKerningGroup = n;
leftMetricsKey = u;
rightKerningGroup = u;
rightMetricsKey = n;
unicode = 0131;
},
{
glyphname = jdotless;
lastChange = "2022-10-27 03:39:12 +0000";
layers = (
{
anchors = (
{
name = bottom;
position = "{47, 0}";
},
{
name = top;
position = "{122, 478}";
}
);
layerId = "C7C49F0D-FB24-4177-B585-680F100D73B3";
paths = (
{
closed = 1;
nodes = (
"42 15 LINE SMOOTH",
"26 -85 OFFCURVE",
"5 -127 OFFCURVE",
"-53 -175 CURVE",
"-55 -177 OFFCURVE",
"-55 -178 OFFCURVE",
"-54 -179 CURVE SMOOTH",
"-48 -188 LINE SMOOTH",
"-47 -189 OFFCURVE",
"-45 -189 OFFCURVE",
"-44 -188 CURVE",
"17 -140 OFFCURVE",
"41 -93 OFFCURVE",
"58 13 CURVE SMOOTH",
"131 474 LINE SMOOTH",
"132 478 OFFCURVE",
"130 478 OFFCURVE",
"127 478 CURVE SMOOTH",
"120 478 LINE SMOOTH",
"117 478 OFFCURVE",
"116 478 OFFCURVE",
"115 474 CURVE SMOOTH"
);
}
);
width = 153;
},
{
anchors = (
{
name = bottom;
position = "{58, 0}";
},
{
name = top;
position = "{135, 487}";
}
);
layerId = "7BFDDD14-D104-4977-93DD-3DA2763EA456";
paths = (
{
closed = 1;
nodes = (
"32 54 LINE SMOOTH",
"15 -51 OFFCURVE",
"-8 -105 OFFCURVE",
"-50 -140 CURVE",
"-56 -145 OFFCURVE",
"-57 -149 OFFCURVE",
"-53 -153 CURVE SMOOTH",
"-22 -193 LINE SMOOTH",
"-19 -196 OFFCURVE",
"-16 -197 OFFCURVE",
"-12 -195 CURVE",
"52 -155 OFFCURVE",
"81 -70 OFFCURVE",
"100 49 CURVE SMOOTH",
"168 477 LINE SMOOTH",
"169 483 OFFCURVE",
"166 487 OFFCURVE",
"160 487 CURVE SMOOTH",
"109 487 LINE SMOOTH",
"103 487 OFFCURVE",
"100 483 OFFCURVE",
"99 477 CURVE SMOOTH"
);
}
);
width = 174;
},
{
anchors = (
{
name = bottom;
position = "{84, 0}";
},
{
name = top;
position = "{163, 499}";
}
);
layerId = "84FABC8E-B1B3-42CE-8CB3-674F4218367A";
paths = (
{
closed = 1;
nodes = (
"17 85 LINE SMOOTH",
"3 -2 OFFCURVE",
"-19 -44 OFFCURVE",
"-58 -79 CURVE SMOOTH",
"-66 -85 OFFCURVE",
"-66 -93 OFFCURVE",
"-62 -98 CURVE SMOOTH",
"1 -186 LINE SMOOTH",
"5 -191 OFFCURVE",
"11 -193 OFFCURVE",
"17 -189 CURVE SMOOTH",
"118 -128 OFFCURVE",
"150 -62 OFFCURVE",
"173 86 CURVE SMOOTH",
"236 484 LINE SMOOTH",
"238 494 OFFCURVE",
"232 499 OFFCURVE",
"223 499 CURVE SMOOTH",
"96 499 LINE SMOOTH",
"87 499 OFFCURVE",
"81 493 OFFCURVE",
"80 484 CURVE SMOOTH"
);
}
);
width = 222;
}
);
leftKerningGroup = j;
rightKerningGroup = j;
unicode = 0237;
},
{
glyphname = k;
lastChange = "2022-10-27 03:39:12 +0000";
layers = (
{
anchors = (
{
name = bottom;
position = "{157, 0}";
},
{
name = top;
position = "{227, 478}";
}
);
layerId = "C7C49F0D-FB24-4177-B585-680F100D73B3";
paths = (
{
closed = 1;
nodes = (
"54 0 LINE SMOOTH",
"57 0 OFFCURVE",
"58 0 OFFCURVE",
"59 5 CURVE SMOOTH",
"84 163 LINE",
"185 277 LINE",
"289 3 LINE SMOOTH",
"290 1 OFFCURVE",
"290 0 OFFCURVE",
"293 0 CURVE SMOOTH",
"302 0 LINE SMOOTH",
"304 0 OFFCURVE",
"306 1 OFFCURVE",
"305 4 CURVE SMOOTH",
"197 290 LINE",
"359 474 LINE SMOOTH",
"361 477 OFFCURVE",
"360 478 OFFCURVE",
"358 478 CURVE SMOOTH",
"347 478 LINE SMOOTH",
"344 478 OFFCURVE",
"343 478 OFFCURVE",
"341 475 CURVE SMOOTH",
"173 288 LINE SMOOTH",
"145 256 OFFCURVE",
"119 225 OFFCURVE",
"90 192 CURVE",
"89 192 LINE",
"96 238 OFFCURVE",
"103 279 OFFCURVE",
"109 322 CURVE SMOOTH",
"166 679 LINE SMOOTH",
"167 683 OFFCURVE",
"165 683 OFFCURVE",
"162 683 CURVE SMOOTH",
"155 683 LINE SMOOTH",
"152 683 OFFCURVE",
"151 683 OFFCURVE",
"150 679 CURVE SMOOTH",
"43 5 LINE SMOOTH",
"42 0 OFFCURVE",
"44 0 OFFCURVE",
"47 0 CURVE SMOOTH"
);
}
);
width = 355;
},
{
anchors = (
{
name = bottom;
position = "{168, 0}";
},
{
name = top;
position = "{234, 487}";
}
);
layerId = "7BFDDD14-D104-4977-93DD-3DA2763EA456";
paths = (
{
closed = 1;
nodes = (
"87 0 LINE SMOOTH",
"93 0 OFFCURVE",
"96 3 OFFCURVE",
"97 9 CURVE SMOOTH",
"123 171 LINE",
"187 245 LINE",
"259 8 LINE SMOOTH",
"261 3 OFFCURVE",
"264 0 OFFCURVE",
"269 0 CURVE SMOOTH",
"325 0 LINE SMOOTH",
"331 0 OFFCURVE",
"334 4 OFFCURVE",
"333 10 CURVE SMOOTH",
"243 304 LINE",
"395 477 LINE SMOOTH",
"399 482 OFFCURVE",
"397 487 OFFCURVE",
"391 487 CURVE SMOOTH",
"325 487 LINE SMOOTH",
"320 487 OFFCURVE",
"316 484 OFFCURVE",
"313 480 CURVE SMOOTH",
"206 356 LINE SMOOTH",
"183 328 OFFCURVE",
"160 298 OFFCURVE",
"138 269 CURVE",
"137 269 LINE",
"144 308 OFFCURVE",
"150 343 OFFCURVE",
"155 378 CURVE SMOOTH",
"202 674 LINE SMOOTH",
"203 680 OFFCURVE",
"201 683 OFFCURVE",
"195 683 CURVE SMOOTH",
"143 683 LINE SMOOTH",
"138 683 OFFCURVE",
"134 680 OFFCURVE",
"133 674 CURVE SMOOTH",
"28 9 LINE SMOOTH",
"27 3 OFFCURVE",
"30 0 OFFCURVE",
"36 0 CURVE SMOOTH"
);
}
);
width = 373;
},
{
anchors = (
{
name = bottom;
position = "{208, 0}";
},
{
name = top;
position = "{281, 499}";
}
);
layerId = "84FABC8E-B1B3-42CE-8CB3-674F4218367A";
paths = (
{
closed = 1;
nodes = (
"147 0 LINE SMOOTH",
"156 0 OFFCURVE",
"160 6 OFFCURVE",
"162 15 CURVE SMOOTH",
"180 129 LINE",
"211 166 LINE",
"261 14 LINE SMOOTH",
"263 5 OFFCURVE",
"268 0 OFFCURVE",
"276 0 CURVE SMOOTH",
"420 0 LINE SMOOTH",
"429 0 OFFCURVE",
"435 7 OFFCURVE",
"431 15 CURVE SMOOTH",
"333 272 LINE",
"497 483 LINE SMOOTH",
"503 491 OFFCURVE",
"499 499 OFFCURVE",
"490 499 CURVE SMOOTH",
"343 499 LINE SMOOTH",
"334 499 OFFCURVE",
"329 494 OFFCURVE",
"323 485 CURVE SMOOTH",
"268 409 LINE SMOOTH",
"247 378 OFFCURVE",
"224 343 OFFCURVE",
"205 310 CURVE",
"202 310 LINE",
"214 361 OFFCURVE",
"224 412 OFFCURVE",
"232 463 CURVE SMOOTH",
"265 668 LINE SMOOTH",
"267 678 OFFCURVE",
"261 683 OFFCURVE",
"252 683 CURVE SMOOTH",
"124 683 LINE SMOOTH",
"116 683 OFFCURVE",
"111 677 OFFCURVE",
"110 668 CURVE SMOOTH",
"5 15 LINE SMOOTH",
"4 5 OFFCURVE",
"9 0 OFFCURVE",
"18 0 CURVE SMOOTH"
);
}
);
width = 465;
}
);
leftKerningGroup = h;
leftMetricsKey = h;
rightKerningGroup = k;
unicode = 006B;
},
{
glyphname = kgreenlandic;
lastChange = "2022-10-27 03:39:12 +0000";
layers = (
{
anchors = (
{
name = bottom;
position = "{152, 0}";
},
{
name = top;
position = "{227, 478}";
}
);
layerId = "C7C49F0D-FB24-4177-B585-680F100D73B3";
paths = (
{
closed = 1;
nodes = (
"55 0 LINE SMOOTH",
"58 0 OFFCURVE",
"59 0 OFFCURVE",
"60 5 CURVE SMOOTH",
"85 163 LINE",
"186 277 LINE",
"290 3 LINE SMOOTH",
"291 1 OFFCURVE",
"291 0 OFFCURVE",
"294 0 CURVE SMOOTH",
"303 0 LINE SMOOTH",
"305 0 OFFCURVE",
"307 1 OFFCURVE",
"306 4 CURVE SMOOTH",
"198 290 LINE",
"360 474 LINE SMOOTH",
"362 477 OFFCURVE",
"361 478 OFFCURVE",
"359 478 CURVE SMOOTH",
"348 478 LINE SMOOTH",
"345 478 OFFCURVE",
"344 478 OFFCURVE",
"342 475 CURVE SMOOTH",
"174 288 LINE SMOOTH",
"146 256 OFFCURVE",
"120 225 OFFCURVE",
"91 192 CURVE",
"90 192 LINE",
"97 238 OFFCURVE",
"103 278 OFFCURVE",
"110 322 CURVE SMOOTH",
"134 474 LINE SMOOTH",
"135 478 OFFCURVE",
"133 478 OFFCURVE",
"130 478 CURVE SMOOTH",
"123 478 LINE SMOOTH",
"120 478 OFFCURVE",
"119 478 OFFCURVE",
"118 474 CURVE SMOOTH",
"44 5 LINE SMOOTH",
"43 0 OFFCURVE",
"45 0 OFFCURVE",
"48 0 CURVE SMOOTH"
);
}
);
width = 356;
},
{
anchors = (
{
name = bottom;
position = "{158, 0}";
},
{
name = top;
position = "{237, 487}";
}
);
layerId = "7BFDDD14-D104-4977-93DD-3DA2763EA456";
paths = (
{
closed = 1;
nodes = (
"88 0 LINE SMOOTH",
"93 0 OFFCURVE",
"96 3 OFFCURVE",
"97 9 CURVE SMOOTH",
"123 171 LINE",
"188 245 LINE",
"259 8 LINE SMOOTH",
"261 3 OFFCURVE",
"264 0 OFFCURVE",
"269 0 CURVE SMOOTH",
"325 0 LINE SMOOTH",
"331 0 OFFCURVE",
"334 4 OFFCURVE",
"333 10 CURVE SMOOTH",
"243 304 LINE",
"395 477 LINE SMOOTH",
"399 482 OFFCURVE",
"397 487 OFFCURVE",
"391 487 CURVE SMOOTH",
"325 487 LINE SMOOTH",
"320 487 OFFCURVE",
"316 484 OFFCURVE",
"313 480 CURVE SMOOTH",
"206 356 LINE SMOOTH",
"183 328 OFFCURVE",
"160 298 OFFCURVE",
"138 269 CURVE",
"137 269 LINE",
"144 308 OFFCURVE",
"150 342 OFFCURVE",
"155 378 CURVE SMOOTH",
"171 477 LINE SMOOTH",
"172 483 OFFCURVE",
"169 487 OFFCURVE",
"164 487 CURVE SMOOTH",
"112 487 LINE SMOOTH",
"107 487 OFFCURVE",
"103 483 OFFCURVE",
"102 477 CURVE SMOOTH",
"28 9 LINE SMOOTH",
"27 3 OFFCURVE",
"30 0 OFFCURVE",
"36 0 CURVE SMOOTH"
);
}
);
width = 373;
},
{
anchors = (
{
name = bottom;
position = "{202, 0}";
},
{
name = top;
position = "{281, 499}";
}
);
layerId = "84FABC8E-B1B3-42CE-8CB3-674F4218367A";
paths = (
{
closed = 1;
nodes = (
"148 0 LINE SMOOTH",
"157 0 OFFCURVE",
"161 6 OFFCURVE",
"163 15 CURVE SMOOTH",
"181 129 LINE",
"213 166 LINE",
"262 14 LINE SMOOTH",
"264 5 OFFCURVE",
"269 0 OFFCURVE",
"277 0 CURVE SMOOTH",
"421 0 LINE SMOOTH",
"430 0 OFFCURVE",
"436 7 OFFCURVE",
"432 15 CURVE SMOOTH",
"334 272 LINE",
"498 483 LINE SMOOTH",
"504 491 OFFCURVE",
"500 499 OFFCURVE",
"491 499 CURVE SMOOTH",
"344 499 LINE SMOOTH",
"335 499 OFFCURVE",
"330 494 OFFCURVE",
"324 485 CURVE SMOOTH",
"269 409 LINE SMOOTH",
"248 378 OFFCURVE",
"225 343 OFFCURVE",
"206 310 CURVE",
"203 310 LINE",
"215 361 OFFCURVE",
"224 404 OFFCURVE",
"233 458 CURVE SMOOTH",
"237 484 LINE SMOOTH",
"239 494 OFFCURVE",
"232 499 OFFCURVE",
"224 499 CURVE SMOOTH",
"96 499 LINE SMOOTH",
"87 499 OFFCURVE",
"82 493 OFFCURVE",
"81 484 CURVE SMOOTH",
"6 15 LINE SMOOTH",
"5 5 OFFCURVE",
"10 0 OFFCURVE",
"19 0 CURVE SMOOTH"
);
}
);
width = 466;
}
);
leftKerningGroup = u;
leftMetricsKey = u;
rightKerningGroup = k;
rightMetricsKey = k;
unicode = 0138;
},
{
glyphname = l;
lastChange = "2022-10-27 03:39:12 +0000";
layers = (
{
anchors = (
{
name = bottom;
position = "{51, 0}";
},
{
name = center;
position = "{88, 239}";
},
{
name = top;
position = "{159, 683}";
},
{
name = topright;
position = "{187, 478}";
}
);
layerId = "C7C49F0D-FB24-4177-B585-680F100D73B3";
paths = (
{
closed = 1;
nodes = (
"54 0 LINE SMOOTH",
"57 0 OFFCURVE",
"58 0 OFFCURVE",
"59 5 CURVE SMOOTH",
"166 679 LINE SMOOTH",
"167 683 OFFCURVE",
"165 683 OFFCURVE",
"162 683 CURVE SMOOTH",
"155 683 LINE SMOOTH",
"152 683 OFFCURVE",
"151 683 OFFCURVE",
"150 679 CURVE SMOOTH",
"43 5 LINE SMOOTH",
"42 0 OFFCURVE",
"44 0 OFFCURVE",
"47 0 CURVE SMOOTH"
);
}
);
width = 160;
},
{
anchors = (
{
name = bottom;
position = "{59, 0}";
},
{
name = center;
position = "{98, 243}";
},
{
name = top;
position = "{169, 683}";
},
{
name = topright;
position = "{207, 487}";
}
);
layerId = "7BFDDD14-D104-4977-93DD-3DA2763EA456";
paths = (
{
closed = 1;
nodes = (
"87 0 LINE SMOOTH",
"93 0 OFFCURVE",
"96 3 OFFCURVE",
"97 9 CURVE SMOOTH",
"202 674 LINE SMOOTH",
"203 680 OFFCURVE",
"201 683 OFFCURVE",
"195 683 CURVE SMOOTH",
"143 683 LINE SMOOTH",
"138 683 OFFCURVE",
"134 680 OFFCURVE",
"133 674 CURVE SMOOTH",
"28 9 LINE SMOOTH",
"27 3 OFFCURVE",
"30 0 OFFCURVE",
"36 0 CURVE SMOOTH"
);
}
);
width = 182;
},
{
anchors = (
{
name = bottom;
position = "{82, 0}";
},
{
name = center;
position = "{121, 249}";
},
{
name = top;
position = "{189, 683}";
},
{
name = topright;
position = "{251, 499}";
}
);
layerId = "84FABC8E-B1B3-42CE-8CB3-674F4218367A";
paths = (
{
closed = 1;
nodes = (
"148 0 LINE SMOOTH",
"156 0 OFFCURVE",
"160 6 OFFCURVE",
"162 14 CURVE SMOOTH",
"265 668 LINE SMOOTH",
"267 678 OFFCURVE",
"261 683 OFFCURVE",
"252 683 CURVE SMOOTH",
"124 683 LINE SMOOTH",
"116 683 OFFCURVE",
"111 677 OFFCURVE",
"110 668 CURVE SMOOTH",
"5 14 LINE SMOOTH",
"4 6 OFFCURVE",
"9 0 OFFCURVE",
"17 0 CURVE SMOOTH"
);
}
);
width = 222.00019;
}
);
leftKerningGroup = h;
leftMetricsKey = h;
rightKerningGroup = l;
unicode = 006C;
},
{
glyphname = lslash;
lastChange = "2022-10-27 03:39:12 +0000";
layers = (
{
components = (
{
alignment = -1;
name = l;
}
);
layerId = "C7C49F0D-FB24-4177-B585-680F100D73B3";
paths = (
{
closed = 1;
nodes = (
"108 410 LINE",
"194 457 LINE SMOOTH",
"196 459 OFFCURVE",
"196 459 OFFCURVE",
"197 463 CURVE SMOOTH",
"199 472 LINE SMOOTH",
"200 476 OFFCURVE",
"198 476 OFFCURVE",
"195 474 CURVE SMOOTH",
"43 391 LINE SMOOTH",
"41 390 OFFCURVE",
"40 389 OFFCURVE",
"39 384 CURVE SMOOTH",
"37 376 LINE SMOOTH",
"36 373 OFFCURVE",
"39 373 OFFCURVE",
"40 374 CURVE SMOOTH"
);
}
);
width = 160;
},
{
components = (
{
alignment = -1;
name = l;
}
);
layerId = "7BFDDD14-D104-4977-93DD-3DA2763EA456";
paths = (
{
closed = 1;
nodes = (
"86 370 LINE",
"219 446 LINE SMOOTH",
"223 449 OFFCURVE",
"225 451 OFFCURVE",
"226 456 CURVE SMOOTH",
"234 506 LINE SMOOTH",
"235 513 OFFCURVE",
"232 515 OFFCURVE",
"227 513 CURVE SMOOTH",
"40 408 LINE SMOOTH",
"36 405.99 OFFCURVE",
"33 403 OFFCURVE",
"32 397 CURVE SMOOTH",
"24 346 LINE SMOOTH",
"23 340 OFFCURVE",
"28 338 OFFCURVE",
"32 341 CURVE SMOOTH"
);
}
);
width = 182;
},
{
components = (
{
alignment = -1;
name = l;
transform = "{1, 0, 0, 1, 2, 0}";
}
);
layerId = "84FABC8E-B1B3-42CE-8CB3-674F4218367A";
paths = (
{
closed = 1;
nodes = (
"57 326 LINE",
"255 399 LINE SMOOTH",
"262 402 OFFCURVE",
"266 407 OFFCURVE",
"267 415 CURVE SMOOTH",
"280 499 LINE SMOOTH",
"282 507 OFFCURVE",
"277 510 OFFCURVE",
"269 507 CURVE SMOOTH",
"43 423 LINE SMOOTH",
"35 420 OFFCURVE",
"31 415 OFFCURVE",
"30 407 CURVE SMOOTH",
"16 323 LINE SMOOTH",
"15 316 OFFCURVE",
"20 312 OFFCURVE",
"26 314 CURVE SMOOTH"
);
}
);
width = 225;
}
);
leftKerningGroup = lslash;
rightKerningGroup = lslash;
unicode = 0142;
},
{
glyphname = m;
lastChange = "2022-10-27 03:39:12 +0000";
layers = (
{
layerId = "C7C49F0D-FB24-4177-B585-680F100D73B3";
paths = (
{
closed = 1;
nodes = (
"54 0 LINE SMOOTH",
"57 0 OFFCURVE",
"58 0 OFFCURVE",
"59 4 CURVE SMOOTH",
"117 370 LINE",
"184 437 OFFCURVE",
"233 470 OFFCURVE",
"277 470 CURVE SMOOTH",
"329 470 OFFCURVE",
"346 433 OFFCURVE",
"335 362 CURVE SMOOTH",
"277 4 LINE SMOOTH",
"276 0 OFFCURVE",
"278 0 OFFCURVE",
"281 0 CURVE SMOOTH",
"288 0 LINE SMOOTH",
"291 0 OFFCURVE",
"292 0 OFFCURVE",
"293 4 CURVE SMOOTH",
"352 369 LINE",
"420 436 OFFCURVE",
"467 470 OFFCURVE",
"512 470 CURVE SMOOTH",
"563 470 OFFCURVE",
"581 433 OFFCURVE",
"569 362 CURVE SMOOTH",
"512 4 LINE SMOOTH",
"511 0 OFFCURVE",
"513 0 OFFCURVE",
"516 0 CURVE SMOOTH",
"523 0 LINE SMOOTH",
"526 0 OFFCURVE",
"527 0 OFFCURVE",
"528 4 CURVE SMOOTH",
"585 365 LINE SMOOTH",
"598 446 OFFCURVE",
"572 486 OFFCURVE",
"514 486 CURVE SMOOTH",
"463 486 OFFCURVE",
"419 455 OFFCURVE",
"354 391 CURVE",
"358 455 OFFCURVE",
"332 486 OFFCURVE",
"279 486 CURVE SMOOTH",
"229 486 OFFCURVE",
"184 456 OFFCURVE",
"120 392 CURVE",
"124 419 OFFCURVE",
"129 448 OFFCURVE",
"130 475 CURVE",
"130 478 OFFCURVE",
"129 478 OFFCURVE",
"127 478 CURVE SMOOTH",
"117 478 LINE SMOOTH",
"115 478 OFFCURVE",
"114 477 OFFCURVE",
"114 475 CURVE",
"112 441 OFFCURVE",
"107 403 OFFCURVE",
"101 368 CURVE SMOOTH",
"43 4 LINE SMOOTH",
"42 0 OFFCURVE",
"44 0 OFFCURVE",
"47 0 CURVE SMOOTH"
);
}
);
width = 628;
},
{
layerId = "7BFDDD14-D104-4977-93DD-3DA2763EA456";
paths = (
{
closed = 1;
nodes = (
"87 0 LINE SMOOTH",
"93 0 OFFCURVE",
"96 3 OFFCURVE",
"97 9 CURVE SMOOTH",
"153 361 LINE",
"201 408 OFFCURVE",
"236 429 OFFCURVE",
"268 429 CURVE SMOOTH",
"302 429 OFFCURVE",
"315 403 OFFCURVE",
"306 350 CURVE SMOOTH",
"252 9 LINE SMOOTH",
"251 3 OFFCURVE",
"254 0 OFFCURVE",
"260 0 CURVE SMOOTH",
"311 0 LINE SMOOTH",
"316 0 OFFCURVE",
"320 3 OFFCURVE",
"321 9 CURVE SMOOTH",
"377 361 LINE",
"425 407 OFFCURVE",
"460 429 OFFCURVE",
"492 429 CURVE SMOOTH",
"527 429 OFFCURVE",
"539 403 OFFCURVE",
"530 350 CURVE SMOOTH",
"476 10 LINE SMOOTH",
"475 3 OFFCURVE",
"478 0 OFFCURVE",
"484 0 CURVE SMOOTH",
"535 0 LINE SMOOTH",
"540 0 OFFCURVE",
"544 3 OFFCURVE",
"545 9 CURVE SMOOTH",
"600 354 LINE SMOOTH",
"615 449 OFFCURVE",
"588 495 OFFCURVE",
"523 495 CURVE SMOOTH",
"474 495 OFFCURVE",
"429 470 OFFCURVE",
"378 419 CURVE",
"374 470 OFFCURVE",
"347 495 OFFCURVE",
"298 495 CURVE SMOOTH",
"250 495 OFFCURVE",
"208 472 OFFCURVE",
"159 423 CURVE",
"161 443 OFFCURVE",
"162 461 OFFCURVE",
"162 478 CURVE",
"162 484 OFFCURVE",
"159 487 OFFCURVE",
"154 487 CURVE SMOOTH",
"107 487 LINE SMOOTH",
"101 487 OFFCURVE",
"98 484 OFFCURVE",
"98 478 CURVE",
"97 452 OFFCURVE",
"93 415 OFFCURVE",
"85 366 CURVE SMOOTH",
"28 9 LINE SMOOTH",
"27 3 OFFCURVE",
"30 0 OFFCURVE",
"36 0 CURVE SMOOTH"
);
}
);
width = 629;
},
{
layerId = "84FABC8E-B1B3-42CE-8CB3-674F4218367A";
paths = (
{
closed = 1;
nodes = (
"147 0 LINE SMOOTH",
"156 0 OFFCURVE",
"161 6 OFFCURVE",
"162 15 CURVE SMOOTH",
"215 351 LINE",
"231 363 OFFCURVE",
"245 371 OFFCURVE",
"259 371 CURVE SMOOTH",
"280 371 OFFCURVE",
"288 358 OFFCURVE",
"282 328 CURVE SMOOTH",
"232 15 LINE SMOOTH",
"231 6 OFFCURVE",
"236 0 OFFCURVE",
"246 0 CURVE SMOOTH",
"374 0 LINE SMOOTH",
"382 0 OFFCURVE",
"387 6 OFFCURVE",
"389 15 CURVE SMOOTH",
"442 351 LINE",
"457 363 OFFCURVE",
"472 371 OFFCURVE",
"487 371 CURVE SMOOTH",
"508 371 OFFCURVE",
"515 358 OFFCURVE",
"510 328 CURVE SMOOTH",
"460 15 LINE SMOOTH",
"459 6 OFFCURVE",
"463 0 OFFCURVE",
"473 0 CURVE SMOOTH",
"601 0 LINE SMOOTH",
"610 0 OFFCURVE",
"615 6 OFFCURVE",
"616 15 CURVE SMOOTH",
"669 353 LINE SMOOTH",
"687 462 OFFCURVE",
"657 507 OFFCURVE",
"583 507 CURVE SMOOTH",
"531 507 OFFCURVE",
"482 480 OFFCURVE",
"443 442 CURVE",
"434 486 OFFCURVE",
"406 507 OFFCURVE",
"355 507 CURVE SMOOTH",
"300 507 OFFCURVE",
"253 478 OFFCURVE",
"211 435 CURVE",
"213 454 OFFCURVE",
"214 471 OFFCURVE",
"213 484 CURVE SMOOTH",
"213 496 OFFCURVE",
"207 499 OFFCURVE",
"199 499 CURVE SMOOTH",
"91 499 LINE SMOOTH",
"82 499 OFFCURVE",
"77 494 OFFCURVE",
"76 484 CURVE SMOOTH",
"75 451 OFFCURVE",
"68 411 OFFCURVE",
"61 368 CURVE SMOOTH",
"5 15 LINE SMOOTH",
"4 6 OFFCURVE",
"9 0 OFFCURVE",
"19 0 CURVE SMOOTH"
);
}
);
width = 676;
}
);
leftKerningGroup = n;
leftMetricsKey = n;
rightKerningGroup = n;
rightMetricsKey = n;
unicode = 006D;
},
{
glyphname = n;
lastChange = "2022-10-27 03:39:12 +0000";
layers = (
{
anchors = (
{
name = apo;
position = "{60, 488}";
},
{
name = bottom;
position = "{180, 0}";
},
{
name = top;
position = "{254, 478}";
}
);
layerId = "C7C49F0D-FB24-4177-B585-680F100D73B3";
paths = (
{
closed = 1;
nodes = (
"312 0 LINE SMOOTH",
"315 0 OFFCURVE",
"316 0 OFFCURVE",
"317 4 CURVE SMOOTH",
"370 344 LINE SMOOTH",
"387 446 OFFCURVE",
"356 486 OFFCURVE",
"290 486 CURVE SMOOTH",
"232 486 OFFCURVE",
"171 442 OFFCURVE",
"115 387 CURVE",
"112 365 LINE",
"174 426 OFFCURVE",
"234 470 OFFCURVE",
"288 470 CURVE SMOOTH",
"347 470 OFFCURVE",
"369 430 OFFCURVE",
"354 342 CURVE SMOOTH",
"301 4 LINE SMOOTH",
"300 0 OFFCURVE",
"302 0 OFFCURVE",
"305 0 CURVE SMOOTH"
);
},
{
closed = 1;
nodes = (
"54 0 LINE SMOOTH",
"57 0 OFFCURVE",
"58 0 OFFCURVE",
"59 4 CURVE SMOOTH",
"118 375 LINE",
"118 379 LINE",
"123 407 OFFCURVE",
"127 442 OFFCURVE",
"130 475 CURVE SMOOTH",
"130 478 OFFCURVE",
"129 478 OFFCURVE",
"127 478 CURVE SMOOTH",
"117 478 LINE SMOOTH",
"115 478 OFFCURVE",
"114 477 OFFCURVE",
"114 475 CURVE SMOOTH",
"111 441 OFFCURVE",
"107 403 OFFCURVE",
"101 368 CURVE SMOOTH",
"43 4 LINE SMOOTH",
"42 0 OFFCURVE",
"44 0 OFFCURVE",
"47 0 CURVE SMOOTH"
);
}
);
width = 417;
},
{
anchors = (
{
name = apo;
position = "{79, 488}";
},
{
name = bottom;
position = "{183, 0}";
},
{
name = top;
position = "{260, 487}";
}
);
layerId = "7BFDDD14-D104-4977-93DD-3DA2763EA456";
paths = (
{
closed = 1;
nodes = (
"325 0 LINE SMOOTH",
"330 0 OFFCURVE",
"334 3 OFFCURVE",
"335 9 CURVE SMOOTH",
"389 350 LINE SMOOTH",
"404 447 OFFCURVE",
"373 495 OFFCURVE",
"301 495 CURVE SMOOTH",
"248 495 OFFCURVE",
"197 464 OFFCURVE",
"147 412 CURVE",
"141 350 LINE",
"195 404 OFFCURVE",
"235 429 OFFCURVE",
"273 429 CURVE SMOOTH",
"313 429 OFFCURVE",
"328 404 OFFCURVE",
"319 348 CURVE SMOOTH",
"266 9 LINE SMOOTH",
"265 3 OFFCURVE",
"268 0 OFFCURVE",
"274 0 CURVE SMOOTH"
);
},
{
closed = 1;
nodes = (
"87 0 LINE SMOOTH",
"93 0 OFFCURVE",
"96 3 OFFCURVE",
"97 9 CURVE SMOOTH",
"155 374 LINE",
"154 385 LINE",
"158 408 OFFCURVE",
"162 453 OFFCURVE",
"162 478 CURVE SMOOTH",
"162 484 OFFCURVE",
"159 487 OFFCURVE",
"154 487 CURVE SMOOTH",
"108 487 LINE SMOOTH",
"101 487 OFFCURVE",
"98 484 OFFCURVE",
"98 477 CURVE SMOOTH",
"97 455 OFFCURVE",
"93 414 OFFCURVE",
"85 366 CURVE SMOOTH",
"28 9 LINE SMOOTH",
"27 3 OFFCURVE",
"30 0 OFFCURVE",
"36 0 CURVE SMOOTH"
);
}
);
width = 419;
},
{
anchors = (
{
name = apo;
position = "{19, 497}";
},
{
name = bottom;
position = "{203, 0}";
},
{
name = top;
position = "{279, 497}";
}
);
layerId = "84FABC8E-B1B3-42CE-8CB3-674F4218367A";
paths = (
{
closed = 1;
nodes = (
"382 0 LINE SMOOTH",
"390 0 OFFCURVE",
"396 5 OFFCURVE",
"397 15 CURVE SMOOTH",
"450 352 LINE SMOOTH",
"468 459 OFFCURVE",
"438 507 OFFCURVE",
"362 507 CURVE SMOOTH",
"304 507 OFFCURVE",
"248 477 OFFCURVE",
"195 416 CURVE",
"204 339 LINE",
"226 360 OFFCURVE",
"248 371 OFFCURVE",
"267 371 CURVE SMOOTH",
"288 371 OFFCURVE",
"295 359 OFFCURVE",
"290 326 CURVE SMOOTH",
"241 15 LINE SMOOTH",
"240 6 OFFCURVE",
"245 0 OFFCURVE",
"254 0 CURVE SMOOTH"
);
},
{
closed = 1;
nodes = (
"147 0 LINE SMOOTH",
"156 0 OFFCURVE",
"160 6 OFFCURVE",
"162 15 CURVE SMOOTH",
"217 361 LINE",
"208 407 LINE",
"211 433 OFFCURVE",
"214 465 OFFCURVE",
"213 484 CURVE SMOOTH",
"213 496 OFFCURVE",
"207 499 OFFCURVE",
"198 499 CURVE SMOOTH",
"91 499 LINE SMOOTH",
"82 499 OFFCURVE",
"77 494 OFFCURVE",
"76 484 CURVE SMOOTH",
"74 452 OFFCURVE",
"68 411 OFFCURVE",
"61 368 CURVE SMOOTH",
"5 15 LINE SMOOTH",
"4 6 OFFCURVE",
"9 0 OFFCURVE",
"19 0 CURVE SMOOTH"
);
}
);
width = 457;
}
);
leftKerningGroup = n;
rightKerningGroup = n;
unicode = 006E;
},
{
glyphname = eng;
lastChange = "2022-10-27 03:39:12 +0000";
layers = (
{
layerId = "C7C49F0D-FB24-4177-B585-680F100D73B3";
paths = (
{
closed = 1;
nodes = (
"278 -140 OFFCURVE",
"302 -93 OFFCURVE",
"319 13 CURVE SMOOTH",
"370 344 LINE SMOOTH",
"387 446 OFFCURVE",
"356 486 OFFCURVE",
"290 486 CURVE SMOOTH",
"234 486 OFFCURVE",
"175 444 OFFCURVE",
"120 392 CURVE",
"124 419 OFFCURVE",
"128 448 OFFCURVE",
"130 475 CURVE",
"130 478 OFFCURVE",
"129 478 OFFCURVE",
"127 478 CURVE SMOOTH",
"117 478 LINE SMOOTH",
"115 478 OFFCURVE",
"114 477 OFFCURVE",
"114 475 CURVE",
"111 441 OFFCURVE",
"107 403 OFFCURVE",
"101 368 CURVE SMOOTH",
"43 4 LINE SMOOTH",
"42 0 OFFCURVE",
"44 0 OFFCURVE",
"47 0 CURVE SMOOTH",
"54 0 LINE SMOOTH",
"57 0 OFFCURVE",
"58 0 OFFCURVE",
"59 4 CURVE SMOOTH",
"117 370 LINE",
"177 428 OFFCURVE",
"235 470 OFFCURVE",
"288 470 CURVE SMOOTH",
"347 470 OFFCURVE",
"369 430 OFFCURVE",
"354 342 CURVE SMOOTH",
"303 15 LINE SMOOTH",
"287 -85 OFFCURVE",
"265 -127 OFFCURVE",
"208 -175 CURVE SMOOTH",
"206 -177 OFFCURVE",
"206 -178 OFFCURVE",
"207 -179 CURVE",
"213 -188 LINE",
"214 -189 OFFCURVE",
"215 -189 OFFCURVE",
"217 -188 CURVE"
);
}
);
width = 418;
},
{
layerId = "7BFDDD14-D104-4977-93DD-3DA2763EA456";
paths = (
{
closed = 1;
nodes = (
"293 -155 OFFCURVE",
"322 -70 OFFCURVE",
"341 49 CURVE SMOOTH",
"389 350 LINE SMOOTH",
"405 450 OFFCURVE",
"372 495 OFFCURVE",
"302 495 CURVE SMOOTH",
"250 495 OFFCURVE",
"204 467 OFFCURVE",
"159 423 CURVE",
"161 443 OFFCURVE",
"163 464 OFFCURVE",
"162 478 CURVE",
"162 484 OFFCURVE",
"159 487 OFFCURVE",
"154 487 CURVE SMOOTH",
"108 487 LINE SMOOTH",
"101 487 OFFCURVE",
"98 484 OFFCURVE",
"98 477 CURVE",
"97 455 OFFCURVE",
"93 414 OFFCURVE",
"85 366 CURVE SMOOTH",
"28 9 LINE SMOOTH",
"27 3 OFFCURVE",
"30 0 OFFCURVE",
"36 0 CURVE SMOOTH",
"87.99 0 LINE SMOOTH",
"94 0 OFFCURVE",
"97 3 OFFCURVE",
"98 9 CURVE SMOOTH",
"153 362 LINE",
"202 408 OFFCURVE",
"238 429 OFFCURVE",
"274 429 CURVE SMOOTH",
"312 429 OFFCURVE",
"329 407 OFFCURVE",
"319 348 CURVE SMOOTH",
"273 54 LINE SMOOTH",
"258 -45 OFFCURVE",
"235 -103 OFFCURVE",
"191 -140 CURVE SMOOTH",
"186 -145 OFFCURVE",
"185 -149 OFFCURVE",
"189 -153 CURVE",
"219 -193 LINE",
"222 -196 OFFCURVE",
"226 -197 OFFCURVE",
"229 -195 CURVE"
);
}
);
width = 419;
},
{
layerId = "84FABC8E-B1B3-42CE-8CB3-674F4218367A";
paths = (
{
closed = 1;
nodes = (
"353 -128 OFFCURVE",
"385 -62 OFFCURVE",
"408 86 CURVE SMOOTH",
"450 352 LINE SMOOTH",
"468 461 OFFCURVE",
"437 507 OFFCURVE",
"362 507 CURVE SMOOTH",
"303 507 OFFCURVE",
"253 477 OFFCURVE",
"211 433 CURVE",
"213 453 OFFCURVE",
"214 471 OFFCURVE",
"213 484 CURVE SMOOTH",
"213 496 OFFCURVE",
"207 499 OFFCURVE",
"198 499 CURVE SMOOTH",
"91 499 LINE SMOOTH",
"82 499 OFFCURVE",
"77 494 OFFCURVE",
"76 484 CURVE SMOOTH",
"74 452 OFFCURVE",
"68 411 OFFCURVE",
"61 368 CURVE SMOOTH",
"5 15 LINE SMOOTH",
"4 6 OFFCURVE",
"9 0 OFFCURVE",
"19 0 CURVE SMOOTH",
"147 0 LINE SMOOTH",
"156 0 OFFCURVE",
"160 6 OFFCURVE",
"162 15 CURVE SMOOTH",
"215 348 LINE",
"232 362 OFFCURVE",
"249 371 OFFCURVE",
"265 371 CURVE SMOOTH",
"288 371 OFFCURVE",
"295 358 OFFCURVE",
"290 326 CURVE SMOOTH",
"252 85 LINE SMOOTH",
"239 -2 OFFCURVE",
"218 -45 OFFCURVE",
"177 -79 CURVE SMOOTH",
"170 -85 OFFCURVE",
"170 -93 OFFCURVE",
"174 -98 CURVE SMOOTH",
"237 -186 LINE SMOOTH",
"240 -191 OFFCURVE",
"246 -193 OFFCURVE",
"252 -189 CURVE SMOOTH"
);
}
);
width = 457;
}
);
leftKerningGroup = n;
leftMetricsKey = n;
rightKerningGroup = n;
rightMetricsKey = n;
unicode = 014B;
},
{
glyphname = o;
lastChange = "2022-10-27 03:39:12 +0000";
layers = (
{
anchors = (
{
name = bottom;
position = "{162, 0}";
},
{
name = center;
position = "{203, 239}";
},
{
name = ogonek;
position = "{318, 10}";
},
{
name = top;
position = "{238, 478}";
},
{
name = topright;
position = "{417, 478}";
}
);
layerId = "C7C49F0D-FB24-4177-B585-680F100D73B3";
paths = (
{
closed = 1;
nodes = (
"259 -8 OFFCURVE",
"311 42 OFFCURVE",
"327 140 CURVE SMOOTH",
"356 328 LINE SMOOTH",
"371 429 OFFCURVE",
"327 486 OFFCURVE",
"235 486 CURVE SMOOTH",
"147 486 OFFCURVE",
"95 436 OFFCURVE",
"80 338 CURVE SMOOTH",
"51 150 LINE SMOOTH",
"36 50 OFFCURVE",
"80 -8 OFFCURVE",
"172 -8 CURVE SMOOTH"
);
},
{
closed = 1;
nodes = (
"90 8 OFFCURVE",
"53 58 OFFCURVE",
"67 150 CURVE SMOOTH",
"96 337 LINE SMOOTH",
"109 425 OFFCURVE",
"156 470 OFFCURVE",
"233 470 CURVE SMOOTH",
"316 470 OFFCURVE",
"354 420 OFFCURVE",
"340 328 CURVE SMOOTH",
"311 141 LINE SMOOTH",
"297 54 OFFCURVE",
"251 8 OFFCURVE",
"174 8 CURVE SMOOTH"
);
}
);
width = 390;
},
{
anchors = (
{
name = bottom;
position = "{165, 0}";
},
{
name = center;
position = "{211, 254}";
},
{
name = ogonek;
position = "{329, 10}";
},
{
name = top;
position = "{250, 487}";
},
{
name = topright;
position = "{430, 487}";
}
);
layerId = "7BFDDD14-D104-4977-93DD-3DA2763EA456";
paths = (
{
closed = 1;
nodes = (
"282 -8 OFFCURVE",
"337 44 OFFCURVE",
"356 164 CURVE SMOOTH",
"380 317 LINE SMOOTH",
"398 436 OFFCURVE",
"346 495 OFFCURVE",
"246 495 CURVE SMOOTH",
"143 495 OFFCURVE",
"88 443 OFFCURVE",
"69 325 CURVE SMOOTH",
"44 170 LINE SMOOTH",
"25 52 OFFCURVE",
"75 -8 OFFCURVE",
"178 -8 CURVE SMOOTH"
);
},
{
closed = 1;
nodes = (
"124 57 OFFCURVE",
"101 94 OFFCURVE",
"114 173 CURVE SMOOTH",
"138 320 LINE SMOOTH",
"151 398 OFFCURVE",
"178 429 OFFCURVE",
"238 429 CURVE SMOOTH",
"298 429 OFFCURVE",
"323 394 OFFCURVE",
"310 313 CURVE SMOOTH",
"287 167 LINE SMOOTH",
"274 88 OFFCURVE",
"246 57 OFFCURVE",
"186 57 CURVE SMOOTH"
);
}
);
width = 406;
},
{
anchors = (
{
name = bottom;
position = "{190, 0}";
},
{
name = center;
position = "{230, 250}";
},
{
name = ogonek;
position = "{370, 10}";
},
{
name = top;
position = "{267, 499}";
},
{
name = topright;
position = "{475, 499}";
}
);
layerId = "84FABC8E-B1B3-42CE-8CB3-674F4218367A";
paths = (
{
closed = 1;
nodes = (
"330 -8 OFFCURVE",
"405 55 OFFCURVE",
"424 177 CURVE SMOOTH",
"446 311 LINE SMOOTH",
"466 435 OFFCURVE",
"396 507 OFFCURVE",
"265 507 CURVE SMOOTH",
"142 507 OFFCURVE",
"67 444 OFFCURVE",
"48 323 CURVE SMOOTH",
"26 187 LINE SMOOTH",
"6 64 OFFCURVE",
"74 -8 OFFCURVE",
"206 -8 CURVE SMOOTH"
);
},
{
closed = 1;
nodes = (
"187 127 OFFCURVE",
"177 146 OFFCURVE",
"183 188 CURVE SMOOTH",
"203 312 LINE SMOOTH",
"210 357 OFFCURVE",
"223 372 OFFCURVE",
"253 372 CURVE SMOOTH",
"285 372 OFFCURVE",
"296 353 OFFCURVE",
"289 311 CURVE SMOOTH",
"269 186 LINE SMOOTH",
"262 142 OFFCURVE",
"250 127 OFFCURVE",
"219 127 CURVE SMOOTH"
);
}
);
width = 452;
}
);
leftKerningGroup = o;
rightKerningGroup = o;
unicode = 006F;
},
{
glyphname = oslash;
lastChange = "2022-10-27 03:39:12 +0000";
layers = (
{
anchors = (
{
name = top;
position = "{234, 478}";
}
);
components = (
{
alignment = -1;
name = o;
}
);
layerId = "C7C49F0D-FB24-4177-B585-680F100D73B3";
paths = (
{
closed = 1;
nodes = (
"-3 -51 LINE SMOOTH",
"0 -51 OFFCURVE",
"1 -50 OFFCURVE",
"3 -47 CURVE SMOOTH",
"70 45 LINE",
"74 51 LINE",
"338 420 LINE",
"343 427 LINE",
"420 535 LINE SMOOTH",
"421 537 OFFCURVE",
"420 538 OFFCURVE",
"418 538 CURVE SMOOTH",
"409 538 LINE SMOOTH",
"406 538 OFFCURVE",
"405 537 OFFCURVE",
"403 535 CURVE SMOOTH",
"334 438 LINE",
"330 433 LINE",
"67 64 LINE",
"62 58 LINE",
"-13 -47 LINE SMOOTH",
"-15 -50 OFFCURVE",
"-14 -51 OFFCURVE",
"-11 -51 CURVE SMOOTH"
);
}
);
width = 390;
},
{
anchors = (
{
name = top;
position = "{246, 487}";
}
);
components = (
{
alignment = -1;
name = o;
}
);
layerId = "7BFDDD14-D104-4977-93DD-3DA2763EA456";
paths = (
{
closed = 1;
nodes = (
"31 -51 LINE SMOOTH",
"35 -51 OFFCURVE",
"39 -49 OFFCURVE",
"42 -45 CURVE SMOOTH",
"97 33 LINE",
"117 61 LINE",
"336 375 LINE",
"356 405 LINE",
"445 528 LINE SMOOTH",
"448 533 OFFCURVE",
"446 537 OFFCURVE",
"441 537 CURVE SMOOTH",
"393 537 LINE SMOOTH",
"388 537 OFFCURVE",
"385 536 OFFCURVE",
"382 532 CURVE SMOOTH",
"324 451 LINE",
"306 427 LINE",
"85 110 LINE",
"69 87 LINE",
"-21 -40 LINE SMOOTH",
"-25 -46 OFFCURVE",
"-23 -51 OFFCURVE",
"-17 -51 CURVE SMOOTH"
);
}
);
width = 406;
},
{
anchors = (
{
name = top;
position = "{277, 499}";
}
);
components = (
{
alignment = -1;
name = o;
}
);
layerId = "84FABC8E-B1B3-42CE-8CB3-674F4218367A";
paths = (
{
closed = 1;
nodes = (
"94 -52 LINE SMOOTH",
"101 -52 OFFCURVE",
"106 -48 OFFCURVE",
"111 -39 CURVE SMOOTH",
"150 21 LINE",
"179 107 LINE",
"334 363 LINE",
"414 424 LINE",
"485 532 LINE SMOOTH",
"491 541 OFFCURVE",
"487 548 OFFCURVE",
"478 548 CURVE SMOOTH",
"378 548 LINE SMOOTH",
"370 548 OFFCURVE",
"367 544 OFFCURVE",
"361 535 CURVE SMOOTH",
"323 475 LINE",
"300 400 LINE",
"152 157 LINE",
"64 82 LINE",
"-12 -36 LINE SMOOTH",
"-18 -45 OFFCURVE",
"-14 -52 OFFCURVE",
"-5 -52 CURVE SMOOTH"
);
}
);
width = 452;
}
);
leftKerningGroup = o;
rightKerningGroup = o;
unicode = 00F8;
},
{
glyphname = oe;
lastChange = "2022-10-27 03:39:12 +0000";
layers = (
{
layerId = "C7C49F0D-FB24-4177-B585-680F100D73B3";
paths = (
{
closed = 1;
nodes = (
"232 -8 OFFCURVE",
"277 23 OFFCURVE",
"302 85 CURVE",
"312 24 OFFCURVE",
"353 -8 OFFCURVE",
"419 -8 CURVE SMOOTH",
"504 -8 OFFCURVE",
"551 30 OFFCURVE",
"557 117 CURVE SMOOTH",
"557 121 OFFCURVE",
"556 122 OFFCURVE",
"554 122 CURVE SMOOTH",
"545 122 LINE SMOOTH",
"542 122 OFFCURVE",
"541 121 OFFCURVE",
"541 118 CURVE SMOOTH",
"535 41 OFFCURVE",
"495 8 OFFCURVE",
"420 8 CURVE SMOOTH",
"340 8 OFFCURVE",
"304 58 OFFCURVE",
"319 152 CURVE SMOOTH",
"332 234 LINE",
"451 248 LINE SMOOTH",
"557 260 OFFCURVE",
"598 305 OFFCURVE",
"598 388 CURVE SMOOTH",
"598 451 OFFCURVE",
"556 486 OFFCURVE",
"484 486 CURVE SMOOTH",
"417 486 OFFCURVE",
"370 455 OFFCURVE",
"346 392 CURVE",
"338 453 OFFCURVE",
"296 486 OFFCURVE",
"229 486 CURVE SMOOTH",
"147 486 OFFCURVE",
"95 436 OFFCURVE",
"80 338 CURVE SMOOTH",
"51 150 LINE SMOOTH",
"36 50 OFFCURVE",
"81 -8 OFFCURVE",
"168 -8 CURVE SMOOTH"
);
},
{
closed = 1;
nodes = (
"90 8 OFFCURVE",
"53 58 OFFCURVE",
"67 150 CURVE SMOOTH",
"96 337 LINE SMOOTH",
"110 425 OFFCURVE",
"156 470 OFFCURVE",
"228 470 CURVE SMOOTH",
"306 470 OFFCURVE",
"344 420 OFFCURVE",
"330 328 CURVE SMOOTH",
"301 141 LINE SMOOTH",
"287 54 OFFCURVE",
"241 8 OFFCURVE",
"168 8 CURVE SMOOTH"
);
},
{
closed = 1;
nodes = (
"348 339 LINE SMOOTH",
"362 426 OFFCURVE",
"408 470 OFFCURVE",
"483 470 CURVE SMOOTH",
"546 470 OFFCURVE",
"582 441 OFFCURVE",
"582 387 CURVE SMOOTH",
"582 311 OFFCURVE",
"543 275 OFFCURVE",
"448 263 CURVE SMOOTH",
"334 250 LINE"
);
}
);
width = 626;
},
{
layerId = "7BFDDD14-D104-4977-93DD-3DA2763EA456";
paths = (
{
closed = 1;
nodes = (
"226 -8 OFFCURVE",
"266 12 OFFCURVE",
"299 57 CURVE",
"320 12 OFFCURVE",
"360 -8 OFFCURVE",
"413 -8 CURVE SMOOTH",
"499 -8 OFFCURVE",
"560 35 OFFCURVE",
"569 123 CURVE SMOOTH",
"570 130 OFFCURVE",
"567 133 OFFCURVE",
"561 133 CURVE SMOOTH",
"511 133 LINE SMOOTH",
"505 133 OFFCURVE",
"503 130 OFFCURVE",
"502 123 CURVE SMOOTH",
"495 80 OFFCURVE",
"467 57 OFFCURVE",
"418 57 CURVE SMOOTH",
"362 57 OFFCURVE",
"338 92 OFFCURVE",
"350 161 CURVE SMOOTH",
"357 209 LINE",
"457 224 LINE SMOOTH",
"562 240 OFFCURVE",
"610 295 OFFCURVE",
"610 381 CURVE SMOOTH",
"610 451 OFFCURVE",
"568 495 OFFCURVE",
"486 495 CURVE SMOOTH",
"433 495 OFFCURVE",
"389 474 OFFCURVE",
"356 431 CURVE",
"339 473 OFFCURVE",
"296 495 OFFCURVE",
"241 495 CURVE SMOOTH",
"141 495 OFFCURVE",
"88 441 OFFCURVE",
"69 327 CURVE SMOOTH",
"44 168 LINE SMOOTH",
"26 56 OFFCURVE",
"73 -8 OFFCURVE",
"171 -8 CURVE SMOOTH"
);
},
{
closed = 1;
nodes = (
"125 57 OFFCURVE",
"101 94 OFFCURVE",
"114 170 CURVE SMOOTH",
"137 319 LINE SMOOTH",
"150 397 OFFCURVE",
"176 429 OFFCURVE",
"234 429 CURVE SMOOTH",
"293 429 OFFCURVE",
"316 392 OFFCURVE",
"305 316 CURVE SMOOTH",
"281 168 LINE SMOOTH",
"269 88 OFFCURVE",
"239 57 OFFCURVE",
"182 57 CURVE SMOOTH"
);
},
{
closed = 1;
nodes = (
"376 324 LINE SMOOTH",
"388 399 OFFCURVE",
"416 429 OFFCURVE",
"473 429 CURVE SMOOTH",
"516 429 OFFCURVE",
"540 411 OFFCURVE",
"540 374 CURVE SMOOTH",
"539 323 OFFCURVE",
"509 294 OFFCURVE",
"446 284 CURVE SMOOTH",
"368 273 LINE"
);
}
);
width = 626;
},
{
layerId = "84FABC8E-B1B3-42CE-8CB3-674F4218367A";
paths = (
{
closed = 1;
nodes = (
"244 -8 OFFCURVE",
"288 8 OFFCURVE",
"318 35 CURVE",
"348 6 OFFCURVE",
"387 -8 OFFCURVE",
"445 -8 CURVE SMOOTH",
"573 -8 OFFCURVE",
"641 39 OFFCURVE",
"651 149 CURVE SMOOTH",
"652 158 OFFCURVE",
"648 163 OFFCURVE",
"638 163 CURVE SMOOTH",
"518 163 LINE SMOOTH",
"510 163 OFFCURVE",
"504 157 OFFCURVE",
"503 149 CURVE SMOOTH",
"500 121 OFFCURVE",
"485 110 OFFCURVE",
"457 110 CURVE SMOOTH",
"427 110 OFFCURVE",
"414 129 OFFCURVE",
"421 166 CURVE SMOOTH",
"426 197 LINE",
"510 206 LINE SMOOTH",
"637 220 OFFCURVE",
"691 279 OFFCURVE",
"691 383 CURVE SMOOTH",
"691 459 OFFCURVE",
"628 507 OFFCURVE",
"529 507 CURVE SMOOTH",
"473 507 OFFCURVE",
"423 491 OFFCURVE",
"387 461 CURVE",
"363 490 OFFCURVE",
"319 507 OFFCURVE",
"262 507 CURVE SMOOTH",
"141 507 OFFCURVE",
"67.005 443.991 OFFCURVE",
"48 323 CURVE SMOOTH",
"26 186 LINE SMOOTH",
"8 69 OFFCURVE",
"74 -8 OFFCURVE",
"190 -8 CURVE SMOOTH"
);
},
{
closed = 1;
nodes = (
"187 127 OFFCURVE",
"176 144 OFFCURVE",
"183 188 CURVE SMOOTH",
"203 312 LINE SMOOTH",
"210 356 OFFCURVE",
"222 372 OFFCURVE",
"253 372 CURVE SMOOTH",
"284 372 OFFCURVE",
"295 354 OFFCURVE",
"289 311 CURVE SMOOTH",
"269 187 LINE SMOOTH",
"262 142 OFFCURVE",
"249 127 OFFCURVE",
"219 127 CURVE SMOOTH"
);
},
{
closed = 1;
nodes = (
"448 335 LINE SMOOTH",
"454 373 OFFCURVE",
"469 389 OFFCURVE",
"500 389 CURVE SMOOTH",
"525 389 OFFCURVE",
"537 378 OFFCURVE",
"537 355 CURVE SMOOTH",
"537 325 OFFCURVE",
"518 300 OFFCURVE",
"480 296 CURVE SMOOTH",
"441 292 LINE"
);
}
);
width = 690;
}
);
leftKerningGroup = o;
leftMetricsKey = o;
rightKerningGroup = e;
rightMetricsKey = e;
unicode = 0153;
},
{
glyphname = p;
lastChange = "2022-10-27 03:39:12 +0000";
layers = (
{
anchors = (
{
name = bottom;
position = "{162, 0}";
},
{
name = top;
position = "{238, 478}";
}
);
layerId = "C7C49F0D-FB24-4177-B585-680F100D73B3";
paths = (
{
closed = 1;
nodes = (
"265 -8 OFFCURVE",
"317 35 OFFCURVE",
"335 143 CURVE SMOOTH",
"368 350 LINE SMOOTH",
"383 444 OFFCURVE",
"352 486 OFFCURVE",
"289 486 CURVE SMOOTH",
"230 486 OFFCURVE",
"175 448 OFFCURVE",
"112 386 CURVE",
"109 365 LINE",
"177 429 OFFCURVE",
"232 470 OFFCURVE",
"288 470 CURVE SMOOTH",
"342 470 OFFCURVE",
"366 432 OFFCURVE",
"352 347 CURVE SMOOTH",
"319 143 LINE SMOOTH",
"303 49 OFFCURVE",
"257 8 OFFCURVE",
"186 8 CURVE SMOOTH",
"142 8 OFFCURVE",
"99 25 OFFCURVE",
"60 51 CURVE",
"57 34 LINE",
"99 9 OFFCURVE",
"142 -8 OFFCURVE",
"186 -8 CURVE SMOOTH"
);
},
{
closed = 1;
nodes = (
"25 -185 LINE SMOOTH",
"28 -185 OFFCURVE",
"29 -185 OFFCURVE",
"30 -181 CURVE SMOOTH",
"118 377 LINE",
"119 382 LINE",
"124 409 OFFCURVE",
"127 442 OFFCURVE",
"130 475 CURVE SMOOTH",
"130 478 OFFCURVE",
"129 478 OFFCURVE",
"127 478 CURVE SMOOTH",
"117 478 LINE SMOOTH",
"115 478 OFFCURVE",
"114 477 OFFCURVE",
"114 475 CURVE SMOOTH",
"111 441 OFFCURVE",
"107 403 OFFCURVE",
"101 368 CURVE SMOOTH",
"14 -181 LINE SMOOTH",
"13 -185 OFFCURVE",
"15 -185 OFFCURVE",
"18 -185 CURVE SMOOTH"
);
}
);
width = 399;
},
{
anchors = (
{
name = bottom;
position = "{164, 0}";
},
{
name = top;
position = "{241, 487}";
}
);
layerId = "7BFDDD14-D104-4977-93DD-3DA2763EA456";
paths = (
{
closed = 1;
nodes = (
"284 -8 OFFCURVE",
"334 48 OFFCURVE",
"352 164 CURVE SMOOTH",
"381 345 LINE SMOOTH",
"397 446 OFFCURVE",
"368 495 OFFCURVE",
"296 495 CURVE SMOOTH",
"245 495 OFFCURVE",
"199 467 OFFCURVE",
"145 414 CURVE",
"137 349 LINE",
"189 400 OFFCURVE",
"233 429 OFFCURVE",
"268 429 CURVE SMOOTH",
"307 429 OFFCURVE",
"322 402 OFFCURVE",
"312 342 CURVE SMOOTH",
"284 168 LINE SMOOTH",
"271 89 OFFCURVE",
"244 57 OFFCURVE",
"193 57 CURVE SMOOTH",
"162 57 OFFCURVE",
"126 68 OFFCURVE",
"99 86 CURVE",
"90 23 LINE",
"119 4 OFFCURVE",
"164 -8 OFFCURVE",
"202 -8 CURVE SMOOTH"
);
},
{
closed = 1;
nodes = (
"58 -185 LINE SMOOTH",
"64 -185 OFFCURVE",
"67 -182 OFFCURVE",
"68 -176 CURVE SMOOTH",
"155 374 LINE",
"155 395 LINE",
"158 412 OFFCURVE",
"162 454 OFFCURVE",
"162 478 CURVE SMOOTH",
"162 484 OFFCURVE",
"159 487 OFFCURVE",
"154 487 CURVE SMOOTH",
"108 487 LINE SMOOTH",
"102 487 OFFCURVE",
"98 484 OFFCURVE",
"98 477 CURVE SMOOTH",
"97 452 OFFCURVE",
"93 416 OFFCURVE",
"86 369 CURVE SMOOTH",
"-1 -176 LINE SMOOTH",
"-2 -182 OFFCURVE",
"1 -185 OFFCURVE",
"7 -185 CURVE SMOOTH"
);
}
);
width = 404;
},
{
anchors = (
{
name = bottom;
position = "{184, 0}";
},
{
name = top;
position = "{264, 499}";
}
);
layerId = "84FABC8E-B1B3-42CE-8CB3-674F4218367A";
paths = (
{
closed = 1;
nodes = (
"351 -8 OFFCURVE",
"398 44 OFFCURVE",
"417 164 CURVE SMOOTH",
"446 352 LINE SMOOTH",
"463 459 OFFCURVE",
"435 507 OFFCURVE",
"357 507 CURVE SMOOTH",
"299 507 OFFCURVE",
"247 478 OFFCURVE",
"191 417 CURVE",
"200 339 LINE",
"223 360 OFFCURVE",
"244 371 OFFCURVE",
"261 371 CURVE SMOOTH",
"284 371 OFFCURVE",
"291 358 OFFCURVE",
"286 325 CURVE SMOOTH",
"262 172 LINE SMOOTH",
"256 136 OFFCURVE",
"242 120 OFFCURVE",
"217 120 CURVE SMOOTH",
"199 120 OFFCURVE",
"180 125 OFFCURVE",
"163 136 CURVE",
"145 20 LINE",
"173 3 OFFCURVE",
"223 -8 OFFCURVE",
"263 -8 CURVE SMOOTH"
);
},
{
closed = 1;
nodes = (
"118 -185 LINE SMOOTH",
"126 -185 OFFCURVE",
"131 -179 OFFCURVE",
"132 -170 CURVE SMOOTH",
"217 361 LINE",
"208 408 LINE",
"212 437 OFFCURVE",
"214 466 OFFCURVE",
"213 484 CURVE SMOOTH",
"213 495 OFFCURVE",
"208 499 OFFCURVE",
"199 499 CURVE SMOOTH",
"91 499 LINE SMOOTH",
"82 499 OFFCURVE",
"77 494 OFFCURVE",
"76 484 CURVE SMOOTH",
"75 456 OFFCURVE",
"71 423 OFFCURVE",
"62 369 CURVE SMOOTH",
"-24 -170 LINE SMOOTH",
"-25 -180 OFFCURVE",
"-20 -185 OFFCURVE",
"-10 -185 CURVE SMOOTH"
);
}
);
width = 449;
}
);
leftKerningGroup = n;
leftMetricsKey = n;
rightKerningGroup = o;
rightMetricsKey = "=o+2";
unicode = 0070;
},
{
glyphname = thorn;
lastChange = "2022-10-27 03:39:12 +0000";
layers = (
{
layerId = "C7C49F0D-FB24-4177-B585-680F100D73B3";
paths = (
{
closed = 1;
nodes = (
"25 -185 LINE SMOOTH",
"28 -185 OFFCURVE",
"29 -185 OFFCURVE",
"30 -181 CURVE SMOOTH",
"166 679 LINE SMOOTH",
"167 683 OFFCURVE",
"165 683 OFFCURVE",
"162 683 CURVE SMOOTH",
"155 683 LINE SMOOTH",
"152 683 OFFCURVE",
"151 683 OFFCURVE",
"150 679 CURVE SMOOTH",
"14 -181 LINE SMOOTH",
"13 -185 OFFCURVE",
"15 -185 OFFCURVE",
"18 -185 CURVE SMOOTH"
);
},
{
closed = 1;
nodes = (
"265 -8 OFFCURVE",
"317 35 OFFCURVE",
"335 143 CURVE SMOOTH",
"367 350 LINE SMOOTH",
"383 444 OFFCURVE",
"352 486 OFFCURVE",
"289 486 CURVE SMOOTH",
"230 486 OFFCURVE",
"175 448 OFFCURVE",
"112 386 CURVE",
"109 365 LINE",
"177 429 OFFCURVE",
"232 470 OFFCURVE",
"287 470 CURVE SMOOTH",
"342 470 OFFCURVE",
"365 432 OFFCURVE",
"351 347 CURVE SMOOTH",
"319 143 LINE SMOOTH",
"303 49 OFFCURVE",
"257 8 OFFCURVE",
"186 8 CURVE SMOOTH",
"142 8 OFFCURVE",
"99 25 OFFCURVE",
"59 51 CURVE",
"56 34 LINE",
"98 9 OFFCURVE",
"141 -8 OFFCURVE",
"186 -8 CURVE SMOOTH"
);
}
);
width = 399;
},
{
layerId = "7BFDDD14-D104-4977-93DD-3DA2763EA456";
paths = (
{
closed = 1;
nodes = (
"58 -185 LINE SMOOTH",
"64 -185 OFFCURVE",
"67 -182 OFFCURVE",
"68 -176 CURVE SMOOTH",
"202 674 LINE SMOOTH",
"203 680 OFFCURVE",
"201 683 OFFCURVE",
"195 683 CURVE SMOOTH",
"143 683 LINE SMOOTH",
"138 683 OFFCURVE",
"134 680 OFFCURVE",
"133 674 CURVE SMOOTH",
"-1 -176 LINE SMOOTH",
"-2 -182 OFFCURVE",
"1 -185 OFFCURVE",
"7 -185 CURVE SMOOTH"
);
},
{
closed = 1;
nodes = (
"284 -8 OFFCURVE",
"334 47 OFFCURVE",
"352 164 CURVE SMOOTH",
"381 345 LINE SMOOTH",
"397 446 OFFCURVE",
"368 495 OFFCURVE",
"296 495 CURVE SMOOTH",
"245 495 OFFCURVE",
"199 467 OFFCURVE",
"145 414 CURVE",
"137 349 LINE",
"189 400 OFFCURVE",
"233 429 OFFCURVE",
"268 429 CURVE SMOOTH",
"307 429 OFFCURVE",
"322 402 OFFCURVE",
"312 342 CURVE SMOOTH",
"284 168 LINE SMOOTH",
"271 89 OFFCURVE",
"244 57 OFFCURVE",
"193 57 CURVE SMOOTH",
"162 57 OFFCURVE",
"126 68 OFFCURVE",
"99 86 CURVE",
"90 23 LINE",
"119 4 OFFCURVE",
"164 -8 OFFCURVE",
"202 -8 CURVE SMOOTH"
);
}
);
width = 404;
},
{
layerId = "84FABC8E-B1B3-42CE-8CB3-674F4218367A";
paths = (
{
closed = 1;
nodes = (
"117 -185 LINE SMOOTH",
"126 -185 OFFCURVE",
"131 -179 OFFCURVE",
"132 -170 CURVE SMOOTH",
"265 668 LINE SMOOTH",
"266 678 OFFCURVE",
"260 683 OFFCURVE",
"251 683 CURVE SMOOTH",
"124 683 LINE SMOOTH",
"115 683 OFFCURVE",
"110 677 OFFCURVE",
"109 668 CURVE SMOOTH",
"-24 -170 LINE SMOOTH",
"-26 -180 OFFCURVE",
"-21 -185 OFFCURVE",
"-11.006 -185 CURVE SMOOTH"
);
},
{
closed = 1;
nodes = (
"351 -8 OFFCURVE",
"397 44 OFFCURVE",
"416 164 CURVE SMOOTH",
"446 352 LINE SMOOTH",
"463 458 OFFCURVE",
"434 507 OFFCURVE",
"356 507 CURVE SMOOTH",
"298 507 OFFCURVE",
"247 478 OFFCURVE",
"191 417 CURVE",
"200 339 LINE",
"222 360 OFFCURVE",
"243 371 OFFCURVE",
"261 371 CURVE SMOOTH",
"283 371 OFFCURVE",
"291 358 OFFCURVE",
"285 325 CURVE SMOOTH",
"261 172 LINE SMOOTH",
"255 136 OFFCURVE",
"242 120 OFFCURVE",
"217 120 CURVE SMOOTH",
"198 120 OFFCURVE",
"180 125 OFFCURVE",
"162 136 CURVE",
"145 20 LINE",
"173 4 OFFCURVE",
"222 -8 OFFCURVE",
"263 -8 CURVE SMOOTH"
);
}
);
width = 448;
}
);
leftKerningGroup = h;
leftMetricsKey = h;
rightKerningGroup = o;
rightMetricsKey = b;
unicode = 00FE;
},
